SplineFontDB: 3.0
FontName: Asap-Symbol
FullName: Asap Symbol
FamilyName: Asap Symbol
Weight: Black
Copyright: Copyright (c) 2014, Omnibus-Type (www.omnibus-type.com omnibus.type@gmail.com) with Reserved Font Name 'Asap'
Version: 1.000
ItalicAngle: 0
UnderlinePosition: -102.4
UnderlineWidth: 102.4
Ascent: 1638
Descent: 410
InvalidEm: 0
sfntRevision: 0x00010000
woffMajor: 0
woffMinor: 0
LayerCount: 2
Layer: 0 1 "Back" 1
Layer: 1 1 "Fore" 0
XUID: [1021 505 -982332716 394228]
FSType: 8
OS2Version: 3
OS2_WeightWidthSlopeOnly: 0
OS2_UseTypoMetrics: 1
CreationTime: 1416371801
ModificationTime: 1418416826
PfmFamily: 33
TTFWeight: 900
TTFWidth: 5
LineGap: 0
VLineGap: 0
Panose: 2 15 5 4 3 2 2 6 2 3
OS2TypoAscent: 1925
OS2TypoAOffset: 0
OS2TypoDescent: -434
OS2TypoDOffset: 0
OS2TypoLinegap: 98
OS2WinAscent: 2023
OS2WinAOffset: 0
OS2WinDescent: 434
OS2WinDOffset: 0
HheadAscent: 2023
HheadAOffset: 0
HheadDescent: -434
HheadDOffset: 0
OS2SubXSize: 1331
OS2SubYSize: 1229
OS2SubXOff: 0
OS2SubYOff: 154
OS2SupXSize: 1331
OS2SupYSize: 1229
OS2SupXOff: 0
OS2SupYOff: 717
OS2StrikeYSize: 102
OS2StrikeYPos: 641
OS2CapHeight: 0
OS2XHeight: 0
OS2Vendor: 'OMNI'
OS2CodePages: 20000001.00000000
OS2UnicodeRanges: 00000003.00000000.00000000.00000000
Lookup: 1 0 0 "'aalt' Access All Alternates lookup 0" { "'aalt' Access All Alternates lookup 0 subtable"  } ['aalt' ('DFLT' <'dflt' > 'grek' <'dflt' > 'latn' <'dflt' > ) ]
Lookup: 3 0 0 "'aalt' Access All Alternates lookup 1" { "'aalt' Access All Alternates lookup 1 subtable"  } ['aalt' ('DFLT' <'dflt' > 'grek' <'dflt' > 'latn' <'dflt' > ) ]
Lookup: 1 0 0 "'sups' Superscript lookup 2" { "'sups' Superscript lookup 2 subtable" ("superior") } ['sups' ('DFLT' <'dflt' > 'grek' <'dflt' > 'latn' <'dflt' > ) ]
Lookup: 4 0 0 "'frac' Diagonal Fractions lookup 3" { "'frac' Diagonal Fractions lookup 3 subtable"  } ['frac' ('DFLT' <'dflt' > 'grek' <'dflt' > 'latn' <'dflt' > ) ]

StartChar: .notdef
Encoding: 65536 -1 0
Width: 1052
Flags: W
LayerCount: 2
Back
Fore
SplineSet
14 1434 m 1,0,-1
 1038 1434 l 1,1,-1
 1038 0 l 1,2,-1
 14 0 l 1,3,-1
 14 1434 l 1,0,-1
872 1331 m 1,4,-1
 176 1331 l 1,5,-1
 526 809 l 1,6,-1
 872 1331 l 1,4,-1
115 195 m 1,7,-1
 465 717 l 1,8,-1
 115 1239 l 1,9,-1
 115 195 l 1,7,-1
934 195 m 1,10,-1
 934 1239 l 1,11,-1
 588 717 l 1,12,-1
 934 195 l 1,10,-1
874 102 m 1,13,-1
 524 625 l 1,14,-1
 178 102 l 1,15,-1
 874 102 l 1,13,-1
EndSplineSet
EndChar

StartChar: A
Encoding: 65 65 2
Width: 1255
Flags: W
LayerCount: 2
Back
Fore
SplineSet
766 1401 m 2,1,-1
 1235 66 l 2,2,3
 1241 48 1241 48 1241 35 c 0,4,5
 1241 -4 1241 -4 1147 -4 c 2,6,-1
 1100 -4 l 2,7,8
 1014 -4 1014 -4 1004 33 c 2,9,-1
 899 332 l 1,10,-1
 348 332 l 1,11,-1
 248 33 l 2,12,13
 234 -4 234 -4 160 -4 c 2,14,-1
 119 -4 l 2,15,16
 15 -4 15 -4 14 35 c 0,17,18
 14 47 14 47 20 68 c 2,19,-1
 492 1401 l 2,20,21
 504 1438 504 1438 588 1438 c 2,22,-1
 668 1438 l 2,23,0
 754 1438 754 1438 766 1401 c 2,1,-1
625 1165 m 1,24,25
 609 1079 609 1079 594 1040 c 2,26,-1
 420 537 l 1,27,-1
 829 537 l 1,28,-1
 657 1040 l 2,29,30
 643 1087 643 1087 631 1165 c 1,31,-1
 625 1165 l 1,24,25
EndSplineSet
Substitution2: "Single Substitution lookup 14 subtable" ordfeminine
Substitution2: "'ss06' Style Set 6 lookup 13 subtable" one.ss01
Substitution2: "'ss05' Style Set 5 lookup 11 subtable" A.ss05
Substitution2: "'ss04' Style Set 4 lookup 10 subtable" A.ss04
Substitution2: "'ss03' Style Set 3 lookup 9 subtable" A.ss03
Substitution2: "'ss02' Style Set 2 lookup 8 subtable" A.ss02
Substitution2: "'ss01' Style Set 1 lookup 7 subtable" A.ss01
Substitution2: "'salt' Stylistic Alternatives lookup 6 subtable" A.ss01
AlternateSubs2: "'aalt' Access All Alternates lookup 1 subtable" ordfeminine A.ss01 A.ss02 A.ss03 A.ss04 A.ss05
Position2: "'cpsp' Capital Spacing lookup 1 subtable" dx=10 dy=0 dh=20 dv=0
EndChar

StartChar: AE
Encoding: 198 198 9
Width: 1873
Flags: W
LayerCount: 2
Back
Fore
SplineSet
1722 1354 m 2,1,-1
 1722 1309 l 2,2,3
 1722 1229 1722 1229 1671 1229 c 2,4,-1
 971 1229 l 1,5,-1
 1053 836 l 1,6,-1
 1614 836 l 2,7,8
 1641 836 1641 836 1652 817.5 c 128,-1,9
 1663 799 1663 799 1663 756 c 2,10,-1
 1663 711 l 2,11,12
 1663 670 1663 670 1651.5 650.5 c 128,-1,13
 1640 631 1640 631 1614 631 c 2,14,-1
 1096 631 l 1,15,-1
 1184 205 l 1,16,-1
 1673 205 l 2,17,18
 1724 205 1724 205 1724 125 c 2,19,-1
 1724 80 l 2,20,21
 1724 0 1724 0 1673 0 c 2,22,-1
 1047 0 l 2,23,24
 986 0 986 0 973 59 c 2,25,-1
 918 332 l 1,26,-1
 360 332 l 1,27,-1
 215 33 l 2,28,29
 195 -4 195 -4 127 -4 c 2,30,-1
 88 -4 l 2,31,32
 -12 -4 -12 -4 -12 35 c 0,33,34
 -12 53 -12 53 -4 70 c 2,35,-1
 653 1378 l 2,36,37
 669 1407 669 1407 690 1420.5 c 128,-1,38
 711 1434 711 1434 743 1434 c 2,39,-1
 1671 1434 l 2,40,0
 1722 1434 1722 1434 1722 1354 c 2,1,-1
762 1184 m 1,41,-1
 713 1044 l 1,42,-1
 463 537 l 1,43,-1
 877 537 l 1,44,-1
 772 1042 l 1,45,-1
 768 1184 l 1,46,-1
 762 1184 l 1,41,-1
EndSplineSet
Position2: "'cpsp' Capital Spacing lookup 1 subtable" dx=10 dy=0 dh=20 dv=0
EndChar

StartChar: B
Encoding: 66 66 10
Width: 1214
Flags: W
LayerCount: 2
Back
Fore
SplineSet
980 1336.5 m 128,-1,1
 1098 1239 1098 1239 1098 1071 c 0,2,3
 1098 971 1098 971 1032.5 881 c 128,-1,4
 967 791 967 791 874 760 c 1,5,-1
 874 752 l 1,6,7
 921 742 921 742 988 702 c 128,-1,8
 1055 662 1055 662 1106 588 c 128,-1,9
 1157 514 1157 514 1157 414 c 0,10,11
 1157 207 1157 207 1025 103.5 c 128,-1,12
 893 0 893 0 633 0 c 2,13,-1
 244 0 l 2,14,15
 207 0 207 0 190.5 16.5 c 128,-1,16
 174 33 174 33 174 70 c 2,17,-1
 174 1364 l 2,18,19
 174 1401 174 1401 190.5 1417.5 c 128,-1,20
 207 1434 207 1434 244 1434 c 2,21,-1
 629 1434 l 2,22,0
 862 1434 862 1434 980 1336.5 c 128,-1,1
414 1229 m 1,23,-1
 414 836 l 1,24,-1
 608 836 l 2,25,26
 717 836 717 836 784.5 894 c 128,-1,27
 852 952 852 952 852 1038 c 0,28,29
 852 1136 852 1136 792.5 1182.5 c 128,-1,30
 733 1229 733 1229 606 1229 c 2,31,-1
 414 1229 l 1,23,-1
414 631 m 1,32,-1
 414 205 l 1,33,-1
 670 205 l 2,34,35
 785 205 785 205 848 263.5 c 128,-1,36
 911 322 911 322 911 426 c 0,37,38
 911 524 911 524 840.5 577.5 c 128,-1,39
 770 631 770 631 635 631 c 2,40,-1
 414 631 l 1,32,-1
EndSplineSet
Substitution2: "'ss06' Style Set 6 lookup 13 subtable" two.ss01
Substitution2: "'ss05' Style Set 5 lookup 11 subtable" B.ss05
Substitution2: "'ss04' Style Set 4 lookup 10 subtable" B.ss04
Substitution2: "'ss03' Style Set 3 lookup 9 subtable" B.ss03
Substitution2: "'ss02' Style Set 2 lookup 8 subtable" B.ss02
Substitution2: "'ss01' Style Set 1 lookup 7 subtable" B.ss01
Substitution2: "'salt' Stylistic Alternatives lookup 6 subtable" B.ss01
AlternateSubs2: "'aalt' Access All Alternates lookup 1 subtable" B.ss01 B.ss02 B.ss03 B.ss04 B.ss05
Position2: "'cpsp' Capital Spacing lookup 1 subtable" dx=10 dy=0 dh=20 dv=0
EndChar

StartChar: C
Encoding: 67 67 11
Width: 1267
Flags: W
LayerCount: 2
Back
Fore
SplineSet
969.5 1428.5 m 128,-1,1
 1065 1409 1065 1409 1125.5 1377.5 c 128,-1,2
 1186 1346 1186 1346 1186 1313 c 0,3,4
 1186 1278 1186 1278 1151 1220.5 c 128,-1,5
 1116 1163 1116 1163 1090 1163 c 0,6,7
 1084 1163 1084 1163 1038.5 1184.5 c 128,-1,8
 993 1206 993 1206 928.5 1223.5 c 128,-1,9
 864 1241 864 1241 778 1241 c 0,10,11
 561 1241 561 1241 456.5 1114 c 128,-1,12
 352 987 352 987 352 717 c 0,13,14
 352 449 352 449 455.5 319.5 c 128,-1,15
 559 190 559 190 772 190 c 0,16,17
 930 190 930 190 1075 268 c 0,18,19
 1108 284 1108 284 1118 285 c 0,20,21
 1138 285 1138 285 1159 257 c 128,-1,22
 1180 229 1180 229 1195 194.5 c 128,-1,23
 1210 160 1210 160 1210 143 c 0,24,25
 1210 102 1210 102 1144.5 66.5 c 128,-1,26
 1079 31 1079 31 976.5 8.5 c 128,-1,27
 874 -14 874 -14 772 -14 c 0,28,29
 432 -14 432 -14 269 165 c 128,-1,30
 106 344 106 344 106 719 c 0,31,32
 106 1448 106 1448 778 1448 c 0,33,0
 874 1448 874 1448 969.5 1428.5 c 128,-1,1
EndSplineSet
Substitution2: "'ss06' Style Set 6 lookup 13 subtable" three.ss01
Substitution2: "'ss05' Style Set 5 lookup 11 subtable" C.ss05
Substitution2: "'ss04' Style Set 4 lookup 10 subtable" C.ss04
Substitution2: "'ss03' Style Set 3 lookup 9 subtable" C.ss03
Substitution2: "'ss02' Style Set 2 lookup 8 subtable" C.ss02
Substitution2: "'ss01' Style Set 1 lookup 7 subtable" C.ss01
Substitution2: "'salt' Stylistic Alternatives lookup 6 subtable" C.ss01
AlternateSubs2: "'aalt' Access All Alternates lookup 1 subtable" C.ss01 C.ss02 C.ss03 C.ss04 C.ss05
Position2: "'cpsp' Capital Spacing lookup 1 subtable" dx=10 dy=0 dh=20 dv=0
EndChar

StartChar: Ccedilla
Encoding: 199 199 12
Width: 1267
Flags: W
LayerCount: 2
Back
Fore
SplineSet
1151 69.5 m 128,-1,1
 1092 35 1092 35 997.5 12.5 c 128,-1,2
 903 -10 903 -10 803 -14 c 1,3,-1
 782 -88 l 1,4,5
 845 -90 845 -90 899.5 -125 c 128,-1,6
 954 -160 954 -160 954 -240 c 0,7,8
 954 -433 954 -433 715 -432 c 0,9,10
 629 -432 629 -432 547 -405.5 c 128,-1,11
 465 -379 465 -379 465 -338 c 0,12,13
 465 -305 465 -305 480.5 -286.5 c 128,-1,14
 496 -268 496 -268 516 -268 c 0,15,16
 534 -268 534 -268 573 -283 c 0,17,18
 641 -310 641 -310 692 -309 c 0,19,20
 733 -309 733 -309 756.5 -298 c 128,-1,21
 780 -287 780 -287 780 -254 c 0,22,23
 780 -227 780 -227 761.5 -214 c 128,-1,24
 743 -201 743 -201 709 -188 c 0,25,26
 682 -178 682 -178 668.5 -169 c 128,-1,27
 655 -160 655 -160 655 -145 c 0,28,29
 655 -133 655 -133 670.5 -84 c 128,-1,30
 686 -35 686 -35 694 -12 c 1,31,32
 395 8 395 8 250.5 187.5 c 128,-1,33
 106 367 106 367 106 719 c 0,34,35
 106 1448 106 1448 778 1448 c 0,36,37
 874 1448 874 1448 969.5 1428.5 c 128,-1,38
 1065 1409 1065 1409 1125.5 1377.5 c 128,-1,39
 1186 1346 1186 1346 1186 1313 c 0,40,41
 1186 1278 1186 1278 1151 1220.5 c 128,-1,42
 1116 1163 1116 1163 1090 1163 c 0,43,44
 1084 1163 1084 1163 1038.5 1184.5 c 128,-1,45
 993 1206 993 1206 928.5 1223.5 c 128,-1,46
 864 1241 864 1241 778 1241 c 0,47,48
 561 1241 561 1241 456.5 1114 c 128,-1,49
 352 987 352 987 352 717 c 0,50,51
 352 449 352 449 455.5 319.5 c 128,-1,52
 559 190 559 190 772 190 c 0,53,54
 930 190 930 190 1075 268 c 0,55,56
 1108 284 1108 284 1118 285 c 0,57,58
 1138 285 1138 285 1159 257 c 128,-1,59
 1180 229 1180 229 1195 194.5 c 128,-1,60
 1210 160 1210 160 1210 143 c 0,61,0
 1210 104 1210 104 1151 69.5 c 128,-1,1
EndSplineSet
Position2: "'cpsp' Capital Spacing lookup 1 subtable" dx=10 dy=0 dh=20 dv=0
EndChar

StartChar: D
Encoding: 68 68 13
Width: 1423
Flags: W
LayerCount: 2
Back
Fore
SplineSet
1150 1256.5 m 128,-1,1
 1321 1079 1321 1079 1321 717 c 256,2,3
 1321 355 1321 355 1150 177.5 c 128,-1,4
 979 0 979 0 678 0 c 2,5,-1
 244 0 l 2,6,7
 207 0 207 0 190.5 16.5 c 128,-1,8
 174 33 174 33 174 70 c 2,9,-1
 174 1364 l 2,10,11
 174 1401 174 1401 190.5 1417.5 c 128,-1,12
 207 1434 207 1434 244 1434 c 2,13,-1
 678 1434 l 2,14,0
 979 1434 979 1434 1150 1256.5 c 128,-1,1
414 1229 m 1,15,-1
 414 205 l 1,16,-1
 670 205 l 2,17,18
 858 205 858 205 965.5 331 c 128,-1,19
 1073 457 1073 457 1073 717 c 0,20,21
 1073 975 1073 975 965.5 1102 c 128,-1,22
 858 1229 858 1229 670 1229 c 2,23,-1
 414 1229 l 1,15,-1
EndSplineSet
Substitution2: "'ss06' Style Set 6 lookup 13 subtable" four.ss01
Substitution2: "'ss05' Style Set 5 lookup 11 subtable" D.ss05
Substitution2: "'ss04' Style Set 4 lookup 10 subtable" D.ss04
Substitution2: "'ss03' Style Set 3 lookup 9 subtable" D.ss03
Substitution2: "'ss02' Style Set 2 lookup 8 subtable" D.ss02
Substitution2: "'ss01' Style Set 1 lookup 7 subtable" D.ss01
Substitution2: "'salt' Stylistic Alternatives lookup 6 subtable" D.ss01
AlternateSubs2: "'aalt' Access All Alternates lookup 1 subtable" D.ss01 D.ss02 D.ss03 D.ss04 D.ss05
Position2: "'cpsp' Capital Spacing lookup 1 subtable" dx=10 dy=0 dh=20 dv=0
EndChar

StartChar: Eth
Encoding: 208 208 14
Width: 1425
Flags: W
LayerCount: 2
Back
Fore
SplineSet
1153 1256.5 m 128,-1,1
 1325 1079 1325 1079 1325 717 c 256,2,3
 1325 355 1325 355 1153 177.5 c 128,-1,4
 981 0 981 0 680 0 c 2,5,-1
 231 0 l 2,6,7
 194 0 194 0 178 16.5 c 128,-1,8
 162 33 162 33 162 70 c 2,9,-1
 162 629 l 1,10,-1
 59 629 l 2,11,12
 32 629 32 629 21 648.5 c 128,-1,13
 10 668 10 668 10 709 c 2,14,-1
 10 754 l 2,15,16
 10 795 10 795 21.5 814.5 c 128,-1,17
 33 834 33 834 59 834 c 2,18,-1
 162 834 l 1,19,-1
 162 1364 l 2,20,21
 162 1401 162 1401 178.5 1417.5 c 128,-1,22
 195 1434 195 1434 231 1434 c 2,23,-1
 680 1434 l 2,24,0
 981 1434 981 1434 1153 1256.5 c 128,-1,1
401 1229 m 1,25,-1
 401 834 l 1,26,-1
 582 834 l 2,27,28
 609 834 609 834 620 814.5 c 128,-1,29
 631 795 631 795 631 754 c 2,30,-1
 631 709 l 2,31,32
 631 668 631 668 619.5 648.5 c 128,-1,33
 608 629 608 629 582 629 c 2,34,-1
 401 629 l 1,35,-1
 401 205 l 1,36,-1
 672 205 l 2,37,38
 860 205 860 205 969.5 332 c 128,-1,39
 1079 459 1079 459 1079 717 c 256,40,41
 1079 975 1079 975 969.5 1102 c 128,-1,42
 860 1229 860 1229 672 1229 c 2,43,-1
 401 1229 l 1,25,-1
EndSplineSet
Position2: "'cpsp' Capital Spacing lookup 1 subtable" dx=10 dy=0 dh=20 dv=0
EndChar

StartChar: E
Encoding: 69 69 15
Width: 1118
Flags: W
LayerCount: 2
Back
Fore
SplineSet
1012.5 1414.5 m 128,-1,1
 1024 1395 1024 1395 1024 1354 c 2,2,-1
 1024 1309 l 2,3,4
 1024 1268 1024 1268 1012.5 1248.5 c 128,-1,5
 1001 1229 1001 1229 975 1229 c 2,6,-1
 414 1229 l 1,7,-1
 414 836 l 1,8,-1
 915 836 l 2,9,10
 942 836 942 836 953.5 817.5 c 128,-1,11
 965 799 965 799 965 756 c 2,12,-1
 965 711 l 2,13,14
 965 670 965 670 953.5 650.5 c 128,-1,15
 942 631 942 631 915 631 c 2,16,-1
 414 631 l 1,17,-1
 414 205 l 1,18,-1
 977 205 l 2,19,20
 1004 205 1004 205 1015 185.5 c 128,-1,21
 1026 166 1026 166 1026 125 c 2,22,-1
 1026 80 l 2,23,24
 1026 39 1026 39 1015 19.5 c 128,-1,25
 1004 0 1004 0 977 0 c 2,26,-1
 244 0 l 2,27,28
 207 0 207 0 190.5 16.5 c 128,-1,29
 174 33 174 33 174 70 c 2,30,-1
 174 1364 l 2,31,32
 174 1401 174 1401 190.5 1417.5 c 128,-1,33
 207 1434 207 1434 244 1434 c 2,34,-1
 975 1434 l 2,35,0
 1001 1434 1001 1434 1012.5 1414.5 c 128,-1,1
EndSplineSet
Substitution2: "'ss06' Style Set 6 lookup 13 subtable" five.ss01
Substitution2: "'ss05' Style Set 5 lookup 11 subtable" E.ss05
Substitution2: "'ss04' Style Set 4 lookup 10 subtable" E.ss04
Substitution2: "'ss03' Style Set 3 lookup 9 subtable" E.ss03
Substitution2: "'ss02' Style Set 2 lookup 8 subtable" E.ss02
Substitution2: "'ss01' Style Set 1 lookup 7 subtable" E.ss01
Substitution2: "'salt' Stylistic Alternatives lookup 6 subtable" E.ss01
AlternateSubs2: "'aalt' Access All Alternates lookup 1 subtable" E.ss01 E.ss02 E.ss03 E.ss04 E.ss05
Position2: "'cpsp' Capital Spacing lookup 1 subtable" dx=10 dy=0 dh=20 dv=0
EndChar

StartChar: F
Encoding: 70 70 20
Width: 1030
Flags: W
LayerCount: 2
Back
Fore
SplineSet
945 1414.5 m 128,-1,1
 956 1395 956 1395 956 1354 c 2,2,-1
 956 1309 l 2,3,4
 956 1268 956 1268 945 1248.5 c 128,-1,5
 934 1229 934 1229 907 1229 c 2,6,-1
 414 1229 l 1,7,-1
 414 836 l 1,8,-1
 879 836 l 2,9,10
 906 836 906 836 918 816.5 c 128,-1,11
 930 797 930 797 930 756 c 2,12,-1
 930 711 l 2,13,14
 930 668 930 668 917.5 649.5 c 128,-1,15
 905 631 905 631 879 631 c 2,16,-1
 414 631 l 1,17,-1
 414 49 l 2,18,19
 414 -4 414 -4 313 -4 c 2,20,-1
 274 -4 l 2,21,22
 174 -4 174 -4 174 49 c 2,23,-1
 174 1364 l 2,24,25
 174 1401 174 1401 190.5 1417.5 c 128,-1,26
 207 1434 207 1434 244 1434 c 2,27,-1
 907 1434 l 2,28,0
 934 1434 934 1434 945 1414.5 c 128,-1,1
EndSplineSet
Substitution2: "'ss06' Style Set 6 lookup 13 subtable" six.ss01
Substitution2: "'ss05' Style Set 5 lookup 11 subtable" F.ss05
Substitution2: "'ss04' Style Set 4 lookup 10 subtable" F.ss04
Substitution2: "'ss03' Style Set 3 lookup 9 subtable" F.ss03
Substitution2: "'ss02' Style Set 2 lookup 8 subtable" F.ss02
Substitution2: "'ss01' Style Set 1 lookup 7 subtable" F.ss01
Substitution2: "'salt' Stylistic Alternatives lookup 6 subtable" F.ss01
AlternateSubs2: "'aalt' Access All Alternates lookup 1 subtable" F.ss01 F.ss02 F.ss03 F.ss04 F.ss05
Position2: "'cpsp' Capital Spacing lookup 1 subtable" dx=10 dy=0 dh=20 dv=0
EndChar

StartChar: G
Encoding: 71 71 21
Width: 1376
Flags: W
LayerCount: 2
Back
Fore
SplineSet
970.5 1428.5 m 128,-1,1
 1067 1409 1067 1409 1128.5 1377.5 c 128,-1,2
 1190 1346 1190 1346 1190 1313 c 0,3,4
 1190 1278 1190 1278 1155 1220.5 c 128,-1,5
 1120 1163 1120 1163 1094 1163 c 0,6,7
 1088 1163 1088 1163 1041.5 1184.5 c 128,-1,8
 995 1206 995 1206 929.5 1223.5 c 128,-1,9
 864 1241 864 1241 778 1241 c 0,10,11
 553 1241 553 1241 452.5 1111 c 128,-1,12
 352 981 352 981 352 721 c 0,13,14
 352 191 352 191 764 190 c 0,15,16
 897 190 897 190 983 213 c 1,17,-1
 983 559 l 1,18,-1
 770 559 l 2,19,20
 743 559 743 559 731 577.5 c 128,-1,21
 719 596 719 596 719 639 c 2,22,-1
 719 684 l 2,23,24
 719 727 719 727 731 745.5 c 128,-1,25
 743 764 743 764 770 764 c 2,26,-1
 1153 764 l 2,27,28
 1190 764 1190 764 1206.5 747.5 c 128,-1,29
 1223 731 1223 731 1223 694 c 2,30,-1
 1223 139 l 2,31,32
 1223 55 1223 55 1082.5 20.5 c 128,-1,33
 942 -14 942 -14 758 -14 c 0,34,35
 432 -14 432 -14 269 165 c 128,-1,36
 106 344 106 344 106 711 c 0,37,38
 106 1448 106 1448 778 1448 c 0,39,0
 874 1448 874 1448 970.5 1428.5 c 128,-1,1
EndSplineSet
Substitution2: "'ss06' Style Set 6 lookup 13 subtable" seven.ss01
Substitution2: "'ss05' Style Set 5 lookup 11 subtable" G.ss05
Substitution2: "'ss04' Style Set 4 lookup 10 subtable" G.ss04
Substitution2: "'ss03' Style Set 3 lookup 9 subtable" G.ss03
Substitution2: "'ss02' Style Set 2 lookup 8 subtable" G.ss02
Substitution2: "'ss01' Style Set 1 lookup 7 subtable" G.ss01
Substitution2: "'salt' Stylistic Alternatives lookup 6 subtable" G.ss01
AlternateSubs2: "'aalt' Access All Alternates lookup 1 subtable" G.ss01 G.ss02 G.ss03 G.ss04 G.ss05
Position2: "'cpsp' Capital Spacing lookup 1 subtable" dx=10 dy=0 dh=20 dv=0
EndChar

StartChar: H
Encoding: 72 72 22
Width: 1501
Flags: W
LayerCount: 2
Back
Fore
SplineSet
1325 1384 m 2,1,-1
 1325 49 l 2,2,3
 1325 -4 1325 -4 1227 -4 c 2,4,-1
 1186 -4 l 2,5,6
 1086 -4 1086 -4 1085 49 c 2,7,-1
 1085 631 l 1,8,-1
 426 631 l 1,9,-1
 426 49 l 2,10,11
 426 -4 426 -4 328 -4 c 2,12,-1
 287 -4 l 2,13,14
 187 -4 187 -4 186 49 c 2,15,-1
 186 1384 l 2,16,17
 186 1437 186 1437 287 1438 c 2,18,-1
 328 1438 l 2,19,20
 426 1438 426 1438 426 1384 c 2,21,-1
 426 836 l 1,22,-1
 1085 836 l 1,23,-1
 1085 1384 l 2,24,25
 1085 1437 1085 1437 1186 1438 c 2,26,-1
 1227 1438 l 2,27,0
 1325 1437 1325 1437 1325 1384 c 2,1,-1
EndSplineSet
Substitution2: "'ss06' Style Set 6 lookup 13 subtable" eight.ss01
Substitution2: "'ss05' Style Set 5 lookup 11 subtable" H.ss05
Substitution2: "'ss04' Style Set 4 lookup 10 subtable" H.ss04
Substitution2: "'ss02' Style Set 2 lookup 8 subtable" H.ss02
Substitution2: "'ss01' Style Set 1 lookup 7 subtable" H.ss01
Substitution2: "'salt' Stylistic Alternatives lookup 6 subtable" H.ss01
AlternateSubs2: "'aalt' Access All Alternates lookup 1 subtable" H.ss01 H.ss02 H.ss04 H.ss05
Position2: "'cpsp' Capital Spacing lookup 1 subtable" dx=10 dy=0 dh=20 dv=0
EndChar

StartChar: I
Encoding: 73 73 23
Width: 577
Flags: W
LayerCount: 2
Back
Fore
SplineSet
408 1384 m 2,1,-1
 408 49 l 2,2,3
 408 -4 408 -4 309 -4 c 2,4,-1
 268 -4 l 2,5,6
 168 -4 168 -4 168 49 c 2,7,-1
 168 1384 l 2,8,9
 168 1437 168 1437 268 1438 c 2,10,-1
 309 1438 l 2,11,0
 408 1437 408 1437 408 1384 c 2,1,-1
EndSplineSet
Substitution2: "'ss06' Style Set 6 lookup 13 subtable" one.ss02
Substitution2: "'ss05' Style Set 5 lookup 11 subtable" I.ss05
Substitution2: "'ss04' Style Set 4 lookup 10 subtable" I.ss04
Substitution2: "'ss02' Style Set 2 lookup 8 subtable" I.ss02
Substitution2: "'ss01' Style Set 1 lookup 7 subtable" I.ss01
Substitution2: "'salt' Stylistic Alternatives lookup 6 subtable" I.ss01
AlternateSubs2: "'aalt' Access All Alternates lookup 1 subtable" I.ss01 I.ss02 I.ss04 I.ss05
Position2: "'cpsp' Capital Spacing lookup 1 subtable" dx=10 dy=0 dh=20 dv=0
EndChar

StartChar: J
Encoding: 74 74 28
Width: 823
Flags: W
LayerCount: 2
Back
Fore
SplineSet
668 1384 m 2,1,-1
 668 418 l 2,2,3
 668 213 668 213 563.5 99.5 c 128,-1,4
 459 -14 459 -14 233 -14 c 0,5,6
 153 -14 153 -14 79.5 2 c 128,-1,7
 6 18 6 18 6 63 c 0,8,9
 6 96 6 96 22.5 152.5 c 128,-1,10
 39 209 39 209 68 211 c 0,11,12
 80 211 80 211 113.5 202 c 128,-1,13
 147 193 147 193 190 193 c 0,14,15
 315 193 315 193 371.5 249 c 128,-1,16
 428 305 428 305 428 428 c 2,17,-1
 428 1384 l 2,18,19
 428 1437 428 1437 528 1438 c 2,20,-1
 567 1438 l 2,21,0
 668 1437 668 1437 668 1384 c 2,1,-1
EndSplineSet
Substitution2: "'ss06' Style Set 6 lookup 13 subtable" two.ss02
Substitution2: "'ss05' Style Set 5 lookup 11 subtable" J.ss05
Substitution2: "'ss04' Style Set 4 lookup 10 subtable" J.ss04
Substitution2: "'ss02' Style Set 2 lookup 8 subtable" J.ss02
Substitution2: "'ss01' Style Set 1 lookup 7 subtable" J.ss01
Substitution2: "'salt' Stylistic Alternatives lookup 6 subtable" J.ss01
AlternateSubs2: "'aalt' Access All Alternates lookup 1 subtable" J.ss01 J.ss02 J.ss04 J.ss05
Position2: "'cpsp' Capital Spacing lookup 1 subtable" dx=10 dy=0 dh=20 dv=0
EndChar

StartChar: K
Encoding: 75 75 29
Width: 1179
Flags: W
LayerCount: 2
Back
Fore
SplineSet
1099.5 1429.5 m 128,-1,1
 1122 1421 1122 1421 1122 1409 c 0,2,3
 1122 1393 1122 1393 1104 1368 c 2,4,-1
 641 743 l 1,5,-1
 1188 63 l 2,6,7
 1204 38 1204 38 1204 25 c 256,8,9
 1204 11 1204 11 1180.5 3.5 c 128,-1,10
 1157 -4 1157 -4 1104 -4 c 2,11,-1
 1038 -4 l 2,12,13
 993 -4 993 -4 964.5 2 c 128,-1,14
 936 8 936 8 920 29 c 2,15,-1
 422 672 l 1,16,-1
 414 670 l 1,17,-1
 414 49 l 2,18,19
 414 -4 414 -4 315 -4 c 2,20,-1
 274 -4 l 2,21,22
 174 -4 174 -4 174 49 c 2,23,-1
 174 1384 l 2,24,25
 174 1437 174 1437 274 1438 c 2,26,-1
 315 1438 l 2,27,28
 413 1438 413 1438 414 1384 c 2,29,-1
 414 791 l 1,30,-1
 422 791 l 1,31,-1
 862 1405 l 2,32,33
 885 1438 885 1438 977 1438 c 2,34,-1
 1032 1438 l 2,35,0
 1077 1438 1077 1438 1099.5 1429.5 c 128,-1,1
EndSplineSet
Substitution2: "'ss06' Style Set 6 lookup 13 subtable" three.ss02
Substitution2: "'ss04' Style Set 4 lookup 10 subtable" K.ss04
Substitution2: "'ss02' Style Set 2 lookup 8 subtable" K.ss02
Substitution2: "'ss01' Style Set 1 lookup 7 subtable" K.ss01
Substitution2: "'salt' Stylistic Alternatives lookup 6 subtable" K.ss01
AlternateSubs2: "'aalt' Access All Alternates lookup 1 subtable" K.ss01 K.ss02 K.ss04
Position2: "'cpsp' Capital Spacing lookup 1 subtable" dx=10 dy=0 dh=20 dv=0
EndChar

StartChar: L
Encoding: 76 76 30
Width: 991
Flags: W
LayerCount: 2
Back
Fore
SplineSet
414 1384 m 2,1,-1
 414 205 l 1,2,-1
 930 205 l 2,3,4
 957 205 957 205 968 185.5 c 128,-1,5
 979 166 979 166 979 125 c 2,6,-1
 979 80 l 2,7,8
 979 39 979 39 967.5 19.5 c 128,-1,9
 956 0 956 0 930 0 c 2,10,-1
 244 0 l 2,11,12
 207 0 207 0 190.5 16.5 c 128,-1,13
 174 33 174 33 174 70 c 2,14,-1
 174 1384 l 2,15,16
 174 1437 174 1437 274 1438 c 2,17,-1
 313 1438 l 2,18,0
 414 1437 414 1437 414 1384 c 2,1,-1
EndSplineSet
Substitution2: "'ss06' Style Set 6 lookup 13 subtable" four.ss02
Substitution2: "'ss04' Style Set 4 lookup 10 subtable" L.ss04
Substitution2: "'ss01' Style Set 1 lookup 7 subtable" L.ss01
Substitution2: "'salt' Stylistic Alternatives lookup 6 subtable" L.ss01
AlternateSubs2: "'aalt' Access All Alternates lookup 1 subtable" L.ss01 L.ss04
Position2: "'cpsp' Capital Spacing lookup 1 subtable" dx=10 dy=0 dh=20 dv=0
EndChar

StartChar: Lslash
Encoding: 321 321 31
Width: 995
Flags: W
LayerCount: 2
Back
Fore
SplineSet
399 1384 m 2,1,-1
 399 940 l 1,2,-1
 602 1061 l 2,3,4
 618 1071 618 1071 627 1071 c 0,5,6
 647 1071 647 1071 647 1038 c 2,7,-1
 647 1014 l 2,8,9
 647 963 647 963 602 938 c 2,10,-1
 399 815 l 1,11,-1
 399 205 l 1,12,-1
 936 205 l 2,13,14
 963 205 963 205 974 185.5 c 128,-1,15
 985 166 985 166 985 125 c 2,16,-1
 985 80 l 2,17,18
 985 39 985 39 974 19.5 c 128,-1,19
 963 0 963 0 936 0 c 2,20,-1
 231 0 l 2,21,22
 194 0 194 0 178 16.5 c 128,-1,23
 162 33 162 33 162 70 c 2,24,-1
 162 670 l 1,25,-1
 66 614 l 2,26,27
 54 604 54 604 41 604 c 0,28,29
 21 604 21 604 20 639 c 2,30,-1
 20 664 l 2,31,32
 20 713 20 713 66 739 c 2,33,-1
 162 795 l 1,34,-1
 162 1384 l 2,35,36
 162 1437 162 1437 260 1438 c 2,37,-1
 301 1438 l 2,38,0
 399 1437 399 1437 399 1384 c 2,1,-1
EndSplineSet
Position2: "'cpsp' Capital Spacing lookup 1 subtable" dx=10 dy=0 dh=20 dv=0
EndChar

StartChar: M
Encoding: 77 77 32
Width: 1726
Flags: W
LayerCount: 2
Back
Fore
SplineSet
1561 1384 m 2,1,-1
 1561 49 l 2,2,3
 1561 -4 1561 -4 1462 -4 c 2,4,-1
 1427 -4 l 2,5,6
 1327 -4 1327 -4 1327 49 c 2,7,-1
 1327 1040 l 1,8,-1
 1321 1036 l 1,9,-1
 963 406 l 2,10,11
 943 375 943 375 901 375 c 2,12,-1
 829 375 l 2,13,14
 790 375 790 375 768 406 c 2,15,-1
 406 1044 l 1,16,-1
 399 1049 l 1,17,-1
 399 49 l 2,18,19
 399 -4 399 -4 299 -4 c 2,20,-1
 266 -4 l 2,21,22
 166 -4 166 -4 166 49 c 2,23,-1
 166 1384 l 2,24,25
 166 1437 166 1437 266 1438 c 2,26,-1
 354 1438 l 2,27,28
 434 1438 434 1438 459 1393 c 2,29,-1
 827 748 l 1,30,-1
 864 662 l 1,31,-1
 903 743 l 1,32,-1
 1272 1393 l 2,33,34
 1297 1438 1297 1438 1376 1438 c 2,35,-1
 1462 1438 l 2,36,0
 1561 1437 1561 1437 1561 1384 c 2,1,-1
EndSplineSet
Substitution2: "'ss06' Style Set 6 lookup 13 subtable" five.ss02
Substitution2: "'ss04' Style Set 4 lookup 10 subtable" M.ss04
Substitution2: "'ss01' Style Set 1 lookup 7 subtable" M.ss01
Substitution2: "'salt' Stylistic Alternatives lookup 6 subtable" M.ss01
AlternateSubs2: "'aalt' Access All Alternates lookup 1 subtable" M.ss01 M.ss04
Position2: "'cpsp' Capital Spacing lookup 1 subtable" dx=10 dy=0 dh=20 dv=0
EndChar

StartChar: N
Encoding: 78 78 33
Width: 1472
Flags: W
LayerCount: 2
Back
Fore
SplineSet
1307 1384 m 2,1,-1
 1307 49 l 2,2,3
 1307 -4 1307 -4 1208 -4 c 2,4,-1
 1151 -4 l 2,5,6
 1112 -4 1112 -4 1088.5 5 c 128,-1,7
 1065 14 1065 14 1051 37 c 2,8,-1
 449 948 l 1,9,-1
 399 1036 l 1,10,-1
 399 49 l 2,11,12
 399 -4 399 -4 299 -4 c 2,13,-1
 266 -4 l 2,14,15
 166 -4 166 -4 166 49 c 2,16,-1
 166 1384 l 2,17,18
 166 1437 166 1437 266 1438 c 2,19,-1
 328 1438 l 2,20,21
 369 1438 369 1438 393.5 1427.5 c 128,-1,22
 418 1417 418 1417 436 1393 c 2,23,-1
 1016 510 l 1,24,-1
 1073 410 l 1,25,-1
 1073 1384 l 2,26,27
 1073 1437 1073 1437 1174 1438 c 2,28,-1
 1208 1438 l 2,29,0
 1307 1437 1307 1437 1307 1384 c 2,1,-1
EndSplineSet
Substitution2: "'ss06' Style Set 6 lookup 13 subtable" six.ss02
Substitution2: "'ss01' Style Set 1 lookup 7 subtable" N.ss01
Substitution2: "'salt' Stylistic Alternatives lookup 6 subtable" N.ss01
Substitution2: "'aalt' Access All Alternates lookup 0 subtable" N.ss01
Position2: "'cpsp' Capital Spacing lookup 1 subtable" dx=10 dy=0 dh=20 dv=0
EndChar

StartChar: O
Encoding: 79 79 35
Width: 1497
Flags: W
LayerCount: 2
Back
Fore
SplineSet
1227 1261.5 m 128,-1,1
 1391 1075 1391 1075 1391 719 c 0,2,3
 1391 361 1391 361 1226 173.5 c 128,-1,4
 1061 -14 1061 -14 750 -14 c 0,5,6
 437 -14 437 -14 271.5 174 c 128,-1,7
 106 362 106 362 106 719 c 256,8,9
 106 1075 106 1075 271 1261.5 c 128,-1,10
 436 1448 436 1448 750 1448 c 256,11,0
 1063 1448 1063 1448 1227 1261.5 c 128,-1,1
452.5 1109 m 128,-1,13
 352 977 352 977 352 719 c 256,14,15
 352 461 352 461 453.5 325.5 c 128,-1,16
 555 190 555 190 748 190 c 0,17,18
 943 190 943 190 1044 325.5 c 128,-1,19
 1145 461 1145 461 1145 719 c 256,20,21
 1145 977 1145 977 1043.5 1109 c 128,-1,22
 942 1241 942 1241 748 1241 c 256,23,12
 553 1241 553 1241 452.5 1109 c 128,-1,13
EndSplineSet
Substitution2: "Single Substitution lookup 14 subtable" ordmasculine
Substitution2: "'ss06' Style Set 6 lookup 13 subtable" seven.ss02
Substitution2: "'ss04' Style Set 4 lookup 10 subtable" O.ss04
Substitution2: "'ss01' Style Set 1 lookup 7 subtable" O.ss01
Substitution2: "'salt' Stylistic Alternatives lookup 6 subtable" O.ss01
AlternateSubs2: "'aalt' Access All Alternates lookup 1 subtable" ordmasculine O.ss01 O.ss04
Position2: "'cpsp' Capital Spacing lookup 1 subtable" dx=10 dy=0 dh=20 dv=0
EndChar

StartChar: Oslash
Encoding: 216 216 40
Width: 1497
Flags: W
LayerCount: 2
Back
Fore
SplineSet
1167 1315 m 1,1,-1
 1276 1438 l 2,2,3
 1294 1458 1294 1458 1313 1458 c 256,4,5
 1331 1458 1331 1458 1355.5 1435.5 c 128,-1,6
 1380 1413 1380 1413 1380 1393 c 0,7,8
 1380 1377 1380 1377 1364 1360 c 2,9,-1
 1249 1231 l 1,10,11
 1390 1047 1390 1047 1391 719 c 0,12,13
 1391 363 1391 363 1226 174.5 c 128,-1,14
 1061 -14 1061 -14 748 -14 c 0,15,16
 449 -14 449 -14 289 156 c 1,17,-1
 160 12 l 2,18,19
 142 -11 142 -11 123 -10 c 256,20,21
 105 -10 105 -10 80 12.5 c 128,-1,22
 55 35 55 35 55 55 c 0,23,24
 55 73 55 73 72 90 c 2,25,-1
 215 250 l 1,26,27
 104 428 104 428 104 719 c 0,28,29
 104 1075 104 1075 269 1261.5 c 128,-1,30
 434 1448 434 1448 748 1448 c 0,31,0
 1005 1448 1005 1448 1167 1315 c 1,1,-1
452.5 1109 m 128,-1,33
 352 977 352 977 352 719 c 0,34,35
 352 561 352 561 393 449 c 1,36,-1
 1014 1143 l 1,37,38
 916 1241 916 1241 748 1241 c 0,39,32
 553 1241 553 1241 452.5 1109 c 128,-1,33
449 334 m 1,40,41
 549 191 549 191 750 190 c 0,42,43
 943 190 943 190 1044 325.5 c 128,-1,44
 1145 461 1145 461 1145 719 c 0,45,46
 1145 916 1145 916 1081 1042 c 1,47,-1
 449 334 l 1,40,41
EndSplineSet
Position2: "'cpsp' Capital Spacing lookup 1 subtable" dx=10 dy=0 dh=20 dv=0
EndChar

StartChar: OE
Encoding: 338 338 42
Width: 2091
Flags: W
LayerCount: 2
Back
Fore
SplineSet
1993.5 185.5 m 128,-1,1
 2005 166 2005 166 2005 125 c 2,2,-1
 2005 80 l 2,3,4
 2005 39 2005 39 1993.5 19.5 c 128,-1,5
 1982 0 1982 0 1956 0 c 2,6,-1
 1221 0 l 2,7,8
 1184 0 1184 0 1166.5 16.5 c 128,-1,9
 1149 33 1149 33 1149 72 c 2,10,-1
 1149 119 l 1,11,12
 995 -14 995 -14 739 -14 c 0,13,14
 432 -14 432 -14 269 173 c 128,-1,15
 106 360 106 360 106 719 c 0,16,17
 106 1075 106 1075 269 1261.5 c 128,-1,18
 432 1448 432 1448 739 1448 c 0,19,20
 993 1448 993 1448 1149 1317 c 1,21,-1
 1149 1366 l 2,22,23
 1149 1401 1149 1401 1166.5 1417.5 c 128,-1,24
 1184 1434 1184 1434 1221 1434 c 2,25,-1
 1954 1434 l 2,26,27
 1981 1434 1981 1434 1992 1414.5 c 128,-1,28
 2003 1395 2003 1395 2003 1354 c 2,29,-1
 2003 1309 l 2,30,31
 2003 1268 2003 1268 1991.5 1248.5 c 128,-1,32
 1980 1229 1980 1229 1954 1229 c 2,33,-1
 1389 1229 l 1,34,-1
 1389 836 l 1,35,-1
 1894 836 l 2,36,37
 1921 836 1921 836 1932.5 817.5 c 128,-1,38
 1944 799 1944 799 1944 756 c 2,39,-1
 1944 711 l 2,40,41
 1944 670 1944 670 1932.5 650.5 c 128,-1,42
 1921 631 1921 631 1894 631 c 2,43,-1
 1389 631 l 1,44,-1
 1389 205 l 1,45,-1
 1956 205 l 2,46,0
 1982 205 1982 205 1993.5 185.5 c 128,-1,1
1043.5 325.5 m 128,-1,48
 1145 461 1145 461 1145 719 c 256,49,50
 1145 977 1145 977 1043.5 1109 c 128,-1,51
 942 1241 942 1241 748 1241 c 256,52,53
 553 1241 553 1241 452.5 1109 c 128,-1,54
 352 977 352 977 352 719 c 256,55,56
 352 461 352 461 453.5 325.5 c 128,-1,57
 555 190 555 190 748 190 c 0,58,47
 942 190 942 190 1043.5 325.5 c 128,-1,48
EndSplineSet
Position2: "'cpsp' Capital Spacing lookup 1 subtable" dx=10 dy=0 dh=20 dv=0
EndChar

StartChar: P
Encoding: 80 80 43
Width: 1167
Flags: W
LayerCount: 2
Back
Fore
SplineSet
980 1344.5 m 128,-1,1
 1122 1255 1122 1255 1122 1012 c 0,2,3
 1122 838 1122 838 1040 741.5 c 128,-1,4
 958 645 958 645 855 611.5 c 128,-1,5
 752 578 752 578 672 578 c 2,6,-1
 399 578 l 1,7,-1
 399 49 l 2,8,9
 399 -4 399 -4 299 -4 c 2,10,-1
 260 -4 l 2,11,12
 160 -4 160 -4 160 49 c 2,13,-1
 160 1364 l 2,14,15
 160 1401 160 1401 176.5 1417.5 c 128,-1,16
 193 1434 193 1434 229 1434 c 2,17,-1
 651 1434 l 2,18,0
 838 1434 838 1434 980 1344.5 c 128,-1,1
399 1229 m 1,19,-1
 399 784 l 1,20,-1
 659 784 l 2,21,22
 741 784 741 784 809 834.5 c 128,-1,23
 877 885 877 885 877 1012 c 0,24,25
 877 1133 877 1133 808 1181 c 128,-1,26
 739 1229 739 1229 643 1229 c 2,27,-1
 399 1229 l 1,19,-1
EndSplineSet
Substitution2: "'ss06' Style Set 6 lookup 13 subtable" eight.ss02
Substitution2: "'ss04' Style Set 4 lookup 10 subtable" P.ss04
Substitution2: "'ss01' Style Set 1 lookup 7 subtable" P.ss01
Substitution2: "'salt' Stylistic Alternatives lookup 6 subtable" P.ss01
AlternateSubs2: "'aalt' Access All Alternates lookup 1 subtable" P.ss01 P.ss04
Position2: "'cpsp' Capital Spacing lookup 1 subtable" dx=10 dy=0 dh=20 dv=0
EndChar

StartChar: Thorn
Encoding: 222 222 44
Width: 1161
Flags: W
LayerCount: 2
Back
Fore
SplineSet
399 1384 m 2,1,-1
 399 1198 l 1,2,-1
 657 1198 l 2,3,4
 843 1198 843 1198 985.5 1109 c 128,-1,5
 1128 1020 1128 1020 1128 776 c 0,6,7
 1128 602 1128 602 1046.5 505 c 128,-1,8
 965 408 965 408 862.5 375 c 128,-1,9
 760 342 760 342 678 342 c 2,10,-1
 399 342 l 1,11,-1
 399 49 l 2,12,13
 399 -4 399 -4 299 -4 c 2,14,-1
 260 -4 l 2,15,16
 160 -4 160 -4 160 49 c 2,17,-1
 160 1384 l 2,18,19
 160 1437 160 1437 260 1438 c 2,20,-1
 299 1438 l 2,21,0
 399 1437 399 1437 399 1384 c 2,1,-1
397 993 m 1,22,-1
 397 547 l 1,23,-1
 664 547 l 2,24,25
 746 547 746 547 813.5 598 c 128,-1,26
 881 649 881 649 881 776 c 0,27,28
 881 897 881 897 812 945 c 128,-1,29
 743 993 743 993 647 993 c 2,30,-1
 397 993 l 1,22,-1
EndSplineSet
Position2: "'cpsp' Capital Spacing lookup 1 subtable" dx=10 dy=0 dh=20 dv=0
EndChar

StartChar: Q
Encoding: 81 81 45
Width: 1497
Flags: W
LayerCount: 2
Back
Fore
SplineSet
1226 1259.5 m 128,-1,1
 1391 1071 1391 1071 1391 713 c 0,2,3
 1391 445 1391 445 1295.5 271.5 c 128,-1,4
 1200 98 1200 98 1020 33 c 1,5,-1
 1020 25 l 1,6,-1
 1382 -96 l 2,7,8
 1411 -106 1411 -106 1411 -127 c 0,9,10
 1411 -145 1411 -145 1397.5 -188 c 128,-1,11
 1384 -231 1384 -231 1361.5 -266 c 128,-1,12
 1339 -301 1339 -301 1315 -301 c 0,13,14
 1295 -301 1295 -301 680 -55 c 2,15,-1
 487 20 l 2,16,17
 106 172 106 172 106 713 c 0,18,19
 106 1071 106 1071 271 1259.5 c 128,-1,20
 436 1448 436 1448 750 1448 c 0,21,0
 1061 1448 1061 1448 1226 1259.5 c 128,-1,1
454.5 1106 m 128,-1,23
 352 971 352 971 352 713 c 256,24,25
 352 455 352 455 454.5 319.5 c 128,-1,26
 557 184 557 184 748 184 c 0,27,28
 941 184 941 184 1043 320.5 c 128,-1,29
 1145 457 1145 457 1145 713 c 256,30,31
 1145 969 1145 969 1042.5 1105 c 128,-1,32
 940 1241 940 1241 748 1241 c 0,33,22
 557 1241 557 1241 454.5 1106 c 128,-1,23
EndSplineSet
Substitution2: "'ss06' Style Set 6 lookup 13 subtable" one.ss03
Substitution2: "'ss01' Style Set 1 lookup 7 subtable" Q.ss01
Substitution2: "'salt' Stylistic Alternatives lookup 6 subtable" Q.ss01
Substitution2: "'aalt' Access All Alternates lookup 0 subtable" Q.ss01
Position2: "'cpsp' Capital Spacing lookup 1 subtable" dx=10 dy=0 dh=20 dv=0
EndChar

StartChar: R
Encoding: 82 82 46
Width: 1249
Flags: W
LayerCount: 2
Back
Fore
SplineSet
990 1342.5 m 128,-1,1
 1114 1251 1114 1251 1114 1061 c 0,2,3
 1114 940 1114 940 1050.5 854 c 128,-1,4
 987 768 987 768 877 725 c 1,5,-1
 877 717 l 1,6,7
 969 682 969 682 1044 489 c 2,8,-1
 1212 66 l 2,9,10
 1220 48 1220 48 1221 33 c 0,11,12
 1221 -4 1221 -4 1118 -4 c 2,13,-1
 1071 -4 l 2,14,15
 1032 -4 1032 -4 1006.5 5 c 128,-1,16
 981 14 981 14 973 33 c 2,17,-1
 815 434 l 2,18,19
 774 528 774 528 719 564 c 128,-1,20
 664 600 664 600 553 600 c 2,21,-1
 414 600 l 1,22,-1
 414 49 l 2,23,24
 414 -4 414 -4 313 -4 c 2,25,-1
 274 -4 l 2,26,27
 174 -4 174 -4 174 49 c 2,28,-1
 174 1364 l 2,29,30
 174 1401 174 1401 190.5 1417.5 c 128,-1,31
 207 1434 207 1434 244 1434 c 2,32,-1
 612 1434 l 2,33,0
 866 1434 866 1434 990 1342.5 c 128,-1,1
414 1229 m 1,34,-1
 414 807 l 1,35,-1
 651 807 l 2,36,37
 739 807 739 807 803.5 871.5 c 128,-1,38
 868 936 868 936 868 1026 c 0,39,40
 868 1124 868 1124 805.5 1176.5 c 128,-1,41
 743 1229 743 1229 637 1229 c 2,42,-1
 414 1229 l 1,34,-1
EndSplineSet
Substitution2: "'ss06' Style Set 6 lookup 13 subtable" two.ss03
Substitution2: "'ss01' Style Set 1 lookup 7 subtable" R.ss01
Substitution2: "'salt' Stylistic Alternatives lookup 6 subtable" R.ss01
Substitution2: "'aalt' Access All Alternates lookup 0 subtable" R.ss01
Position2: "'cpsp' Capital Spacing lookup 1 subtable" dx=10 dy=0 dh=20 dv=0
EndChar

StartChar: S
Encoding: 83 83 47
Width: 1024
Flags: W
LayerCount: 2
Back
Fore
SplineSet
718 1429.5 m 128,-1,1
 799 1411 799 1411 851 1380.5 c 128,-1,2
 903 1350 903 1350 903 1315 c 0,3,4
 903 1282 903 1282 871.5 1229 c 128,-1,5
 840 1176 840 1176 817 1176 c 0,6,7
 811 1176 811 1176 778 1190 c 0,8,9
 731 1213 731 1213 684 1227 c 128,-1,10
 637 1241 637 1241 567 1241 c 0,11,12
 454 1241 454 1241 395 1192 c 128,-1,13
 336 1143 336 1143 336 1061 c 0,14,15
 336 1000 336 1000 368.5 960 c 128,-1,16
 401 920 401 920 446.5 896 c 128,-1,17
 492 872 492 872 588 836 c 0,18,19
 709 789 709 789 784.5 744.5 c 128,-1,20
 860 700 860 700 914.5 617.5 c 128,-1,21
 969 535 969 535 969 406 c 0,22,23
 969 201 969 201 840 93.5 c 128,-1,24
 711 -14 711 -14 510 -14 c 0,25,26
 383 -14 383 -14 280.5 12.5 c 128,-1,27
 178 39 178 39 119.5 78 c 128,-1,28
 61 117 61 117 61 150 c 0,29,30
 61 185 61 185 97 238 c 128,-1,31
 133 291 133 291 158 291 c 0,32,33
 168 291 168 291 203 270 c 0,34,35
 271 235 271 235 335 212.5 c 128,-1,36
 399 190 399 190 487 190 c 0,37,38
 587 190 587 190 655 242.5 c 128,-1,39
 723 295 723 295 723 389 c 0,40,41
 723 450 723 450 688 493.5 c 128,-1,42
 653 537 653 537 601 563.5 c 128,-1,43
 549 590 549 590 457 629 c 2,44,-1
 410 647 l 2,45,46
 310 690 310 690 243 733 c 128,-1,47
 176 776 176 776 132 854 c 128,-1,48
 88 932 88 932 88 1053 c 0,49,50
 88 1176 88 1176 150.5 1266 c 128,-1,51
 213 1356 213 1356 319.5 1402 c 128,-1,52
 426 1448 426 1448 557 1448 c 0,53,0
 637 1448 637 1448 718 1429.5 c 128,-1,1
EndSplineSet
Substitution2: "'ss06' Style Set 6 lookup 13 subtable" three.ss03
Substitution2: "'ss01' Style Set 1 lookup 7 subtable" S.ss01
Substitution2: "'salt' Stylistic Alternatives lookup 6 subtable" S.ss01
Substitution2: "'aalt' Access All Alternates lookup 0 subtable" S.ss01
Position2: "'cpsp' Capital Spacing lookup 1 subtable" dx=10 dy=0 dh=20 dv=0
EndChar

StartChar: T
Encoding: 84 84 49
Width: 1124
Flags: W
LayerCount: 2
Back
Fore
SplineSet
1082.5 1414.5 m 128,-1,1
 1094 1395 1094 1395 1094 1354 c 2,2,-1
 1094 1309 l 2,3,4
 1094 1268 1094 1268 1082.5 1248.5 c 128,-1,5
 1071 1229 1071 1229 1044 1229 c 2,6,-1
 684 1229 l 1,7,-1
 684 49 l 2,8,9
 684 -4 684 -4 584 -4 c 2,10,-1
 545 -4 l 2,11,12
 445 -4 445 -4 444 49 c 2,13,-1
 444 1229 l 1,14,-1
 80 1229 l 2,15,16
 53 1229 53 1229 42 1248.5 c 128,-1,17
 31 1268 31 1268 31 1309 c 2,18,-1
 31 1354 l 2,19,20
 31 1395 31 1395 42 1414.5 c 128,-1,21
 53 1434 53 1434 80 1434 c 2,22,-1
 1044 1434 l 2,23,0
 1071 1434 1071 1434 1082.5 1414.5 c 128,-1,1
EndSplineSet
Substitution2: "'ss06' Style Set 6 lookup 13 subtable" four.ss03
Substitution2: "'ss01' Style Set 1 lookup 7 subtable" T.ss01
Substitution2: "'salt' Stylistic Alternatives lookup 6 subtable" T.ss01
Substitution2: "'aalt' Access All Alternates lookup 0 subtable" T.ss01
Position2: "'cpsp' Capital Spacing lookup 1 subtable" dx=10 dy=0 dh=20 dv=0
EndChar

StartChar: U
Encoding: 85 85 50
Width: 1458
Flags: W
LayerCount: 2
Back
Fore
SplineSet
1305 1384 m 2,1,-1
 1305 467 l 2,2,3
 1305 240 1305 240 1154.5 113 c 128,-1,4
 1004 -14 1004 -14 729 -14 c 256,5,6
 455 -14 455 -14 305.5 113 c 128,-1,7
 156 240 156 240 156 467 c 2,8,-1
 156 1384 l 2,9,10
 156 1437 156 1437 256 1438 c 2,11,-1
 295 1438 l 2,12,13
 395 1438 395 1438 395 1384 c 2,14,-1
 395 473 l 2,15,16
 395 348 395 348 489.5 269 c 128,-1,17
 584 190 584 190 729 190 c 0,18,19
 876 190 876 190 970.5 270 c 128,-1,20
 1065 350 1065 350 1065 473 c 2,21,-1
 1065 1384 l 2,22,23
 1065 1437 1065 1437 1165 1438 c 2,24,-1
 1204 1438 l 2,25,0
 1305 1437 1305 1437 1305 1384 c 2,1,-1
EndSplineSet
Substitution2: "'ss06' Style Set 6 lookup 13 subtable" five.ss03
Substitution2: "'ss01' Style Set 1 lookup 7 subtable" U.ss01
Substitution2: "'salt' Stylistic Alternatives lookup 6 subtable" U.ss01
Substitution2: "'aalt' Access All Alternates lookup 0 subtable" U.ss01
Position2: "'cpsp' Capital Spacing lookup 1 subtable" dx=10 dy=0 dh=20 dv=0
EndChar

StartChar: V
Encoding: 86 86 55
Width: 1263
Flags: W
LayerCount: 2
Back
Fore
SplineSet
1231 1399 m 0,1,2
 1231 1389 1231 1389 1225 1366 c 2,3,-1
 768 33 l 2,4,5
 756 -4 756 -4 672 -4 c 2,6,-1
 590 -4 l 2,7,8
 504 -4 504 -4 494 33 c 2,9,-1
 35 1368 l 2,10,11
 29 1386 29 1386 29 1399 c 0,12,13
 29 1438 29 1438 133 1438 c 2,14,-1
 172 1438 l 2,15,16
 256 1438 256 1438 272 1393 c 2,17,-1
 606 389 l 1,18,-1
 627 299 l 1,19,-1
 635 299 l 1,20,-1
 657 391 l 1,21,-1
 995 1393 l 2,22,23
 1009 1438 1009 1438 1094 1438 c 2,24,-1
 1128 1438 l 2,25,0
 1231 1438 1231 1438 1231 1399 c 0,1,2
EndSplineSet
Substitution2: "'ss06' Style Set 6 lookup 13 subtable" six.ss03
Position2: "'cpsp' Capital Spacing lookup 1 subtable" dx=10 dy=0 dh=20 dv=0
EndChar

StartChar: W
Encoding: 87 87 56
Width: 1806
Flags: W
LayerCount: 2
Back
Fore
SplineSet
1794 1395 m 0,1,2
 1794 1387 1794 1387 1792 1379.5 c 128,-1,3
 1790 1372 1790 1372 1788 1366 c 2,4,-1
 1442 33 l 2,5,6
 1434 -4 1434 -4 1348 -4 c 2,7,-1
 1235 -4 l 2,8,9
 1147 -4 1147 -4 1139 33 c 2,10,-1
 940 813 l 1,11,-1
 901 1024 l 1,12,-1
 862 813 l 1,13,-1
 662 33 l 2,14,15
 650 -4 650 -4 565 -4 c 2,16,-1
 453 -4 l 2,17,18
 367 -4 367 -4 358 33 c 2,19,-1
 20 1366 l 2,20,21
 14 1382 14 1382 14 1395 c 0,22,23
 14 1438 14 1438 119 1438 c 2,24,-1
 154 1438 l 2,25,26
 248 1438 248 1438 260 1391 c 2,27,-1
 473 537 l 2,28,29
 485 492 485 492 506 383 c 2,30,-1
 522 299 l 1,31,32
 538 385 538 385 563 473 c 2,33,-1
 580 539 l 1,34,-1
 793 1399 l 2,35,36
 799 1422 799 1422 822.5 1430 c 128,-1,37
 846 1438 846 1438 887 1438 c 2,38,-1
 940 1438 l 2,39,40
 1026 1438 1026 1438 1034 1399 c 2,41,-1
 1247 535 l 1,42,-1
 1280 385 l 2,43,44
 1290 322 1290 322 1298 293 c 1,45,-1
 1356 539 l 1,46,-1
 1565 1391 l 2,47,48
 1577 1438 1577 1438 1671 1438 c 2,49,-1
 1688 1438 l 2,50,0
 1794 1438 1794 1438 1794 1395 c 0,1,2
EndSplineSet
Substitution2: "'ss06' Style Set 6 lookup 13 subtable" seven.ss03
Position2: "'cpsp' Capital Spacing lookup 1 subtable" dx=10 dy=0 dh=20 dv=0
EndChar

StartChar: X
Encoding: 88 88 57
Width: 1251
Flags: W
LayerCount: 2
Back
Fore
SplineSet
1186 1401 m 0,1,2
 1186 1387 1186 1387 1167 1358 c 2,3,-1
 768 752 l 1,4,-1
 1206 76 l 2,5,6
 1222 49 1222 49 1223 33 c 0,7,8
 1223 -4 1223 -4 1114 -4 c 2,9,-1
 1061 -4 l 2,10,11
 1020 -4 1020 -4 994.5 3 c 128,-1,12
 969 10 969 10 956 31 c 2,13,-1
 625 541 l 1,14,-1
 287 29 l 2,15,16
 275 9 275 9 249 2.5 c 128,-1,17
 223 -4 223 -4 184 -4 c 2,18,-1
 139 -4 l 2,19,20
 30 -4 30 -4 31 33 c 0,21,22
 31 49 31 49 49 76 c 2,23,-1
 492 748 l 1,24,-1
 96 1358 l 2,25,26
 80 1385 80 1385 80 1401 c 0,27,28
 80 1438 80 1438 188 1438 c 2,29,-1
 242 1438 l 2,30,31
 283 1438 283 1438 308.5 1430.5 c 128,-1,32
 334 1423 334 1423 346 1403 c 2,33,-1
 633 958 l 1,34,-1
 930 1405 l 2,35,36
 953 1438 953 1438 1034 1438 c 2,37,-1
 1075 1438 l 2,38,0
 1186 1438 1186 1438 1186 1401 c 0,1,2
EndSplineSet
Substitution2: "'ss06' Style Set 6 lookup 13 subtable" eight.ss03
Substitution2: "'ss05' Style Set 5 lookup 11 subtable" X.ss05
Substitution2: "'aalt' Access All Alternates lookup 0 subtable" X.ss05
Position2: "'cpsp' Capital Spacing lookup 1 subtable" dx=10 dy=0 dh=20 dv=0
EndChar

StartChar: Y
Encoding: 89 89 58
Width: 1144
Flags: W
LayerCount: 2
Back
Fore
SplineSet
1028 1438 m 2,0,1
 1130 1436 1130 1436 1130 1401 c 0,2,3
 1130 1391 1130 1391 1114 1358 c 2,4,-1
 692 709 l 1,5,-1
 692 49 l 2,6,7
 692 -4 692 -4 594 -4 c 2,8,-1
 553 -4 l 2,9,10
 455 -4 455 -4 455 49 c 2,11,-1
 455 715 l 1,12,-1
 35 1358 l 2,13,14
 17 1383 17 1383 16 1401 c 0,15,16
 16 1438 16 1438 127 1438 c 2,17,-1
 178 1438 l 2,18,19
 219 1438 219 1438 243.5 1430.5 c 128,-1,20
 268 1423 268 1423 281 1403 c 2,21,-1
 580 928 l 1,22,-1
 883 1405 l 2,23,24
 903 1438 903 1438 989 1438 c 2,25,-1
 1028 1438 l 2,0,1
EndSplineSet
Position2: "'cpsp' Capital Spacing lookup 1 subtable" dx=10 dy=0 dh=20 dv=0
EndChar

StartChar: Z
Encoding: 90 90 61
Width: 1261
Flags: W
LayerCount: 2
Back
Fore
SplineSet
1156.5 1380.5 m 128,-1,1
 1178 1327 1178 1327 1178 1290 c 0,2,3
 1178 1278 1178 1278 1174 1270 c 2,4,-1
 401 205 l 1,5,-1
 1124 205 l 2,6,7
 1151 205 1151 205 1163.5 185.5 c 128,-1,8
 1176 166 1176 166 1176 121 c 2,9,-1
 1176 84 l 2,10,11
 1176 39 1176 39 1163.5 19.5 c 128,-1,12
 1151 0 1151 0 1124 0 c 2,13,-1
 131 0 l 2,14,15
 111 0 111 0 89.5 51 c 128,-1,16
 68 102 68 102 68 141 c 0,17,18
 68 155 68 155 74 164 c 2,19,-1
 846 1229 l 1,20,-1
 182 1229 l 2,21,22
 155 1229 155 1229 143 1248.5 c 128,-1,23
 131 1268 131 1268 131 1313 c 2,24,-1
 131 1350 l 2,25,26
 131 1395 131 1395 143.5 1414.5 c 128,-1,27
 156 1434 156 1434 182 1434 c 2,28,-1
 1118 1434 l 2,29,0
 1135 1434 1135 1434 1156.5 1380.5 c 128,-1,1
EndSplineSet
Position2: "'cpsp' Capital Spacing lookup 1 subtable" dx=10 dy=0 dh=20 dv=0
EndChar

StartChar: E.ss04.alt
Encoding: 65537 -1 63
Width: 1433
Flags: W
LayerCount: 2
Back
Fore
SplineSet
600 1120 m 2,1,-1
 639 1120 l 2,2,3
 649 1120 649 1120 658.5 1126.5 c 128,-1,4
 668 1133 668 1133 668 1143 c 2,5,-1
 668 1151 l 2,6,7
 670 1178 670 1178 681 1199.5 c 128,-1,8
 692 1221 692 1221 735 1255 c 0,9,10
 753 1267 753 1267 768 1282 c 2,11,-1
 778 1290 l 2,12,13
 825 1335 825 1335 825 1403 c 0,14,15
 825 1466 825 1466 780 1505 c 0,16,17
 733 1544 733 1544 653 1544 c 0,18,19
 587 1544 587 1544 549 1526 c 0,20,21
 522 1518 522 1518 497.5 1500.5 c 128,-1,22
 473 1483 473 1483 473 1466 c 256,23,24
 473 1450 473 1450 489 1427 c 0,25,26
 507 1402 507 1402 522 1403 c 0,27,28
 534 1407 534 1407 563 1421 c 2,29,-1
 580 1427 l 2,30,31
 613 1439 613 1439 643 1440 c 0,32,33
 700 1440 700 1440 700 1395 c 0,34,35
 700 1377 700 1377 685 1355 c 128,-1,36
 670 1333 670 1333 652.5 1315.5 c 128,-1,37
 635 1298 635 1298 631 1292 c 2,38,39
 616 1278 l 0,40,41
 563 1221 563 1221 563 1145 c 0,42,0
 563 1120 563 1120 600 1120 c 2,1,-1
602 942 m 2,44,-1
 627 942 l 2,45,46
 674 942 674 942 674 969 c 2,47,-1
 674 1040 l 2,48,49
 674 1067 674 1067 627 1067 c 2,50,-1
 602 1067 l 2,51,52
 551 1067 551 1067 551 1040 c 2,53,-1
 551 969 l 2,54,43
 551 942 551 942 602 942 c 2,44,-1
1118 924 m 2,55,56
 1126 924 1126 924 1132.5 917.5 c 128,-1,57
 1139 911 1139 911 1139 901 c 2,58,-1
 1139 743 l 1,59,-1
 1284 743 l 2,60,61
 1347 743 1347 743 1390.5 702.5 c 128,-1,62
 1434 662 1434 662 1434 602 c 0,63,64
 1434 545 1434 545 1391 504 c 128,-1,65
 1348 463 1348 463 1284 463 c 0,66,67
 1266 463 1266 463 1262 471 c 0,68,69
 1256 483 1256 483 1255 506 c 2,70,-1
 1255 514 l 2,71,72
 1255 530 1255 530 1264 539 c 0,73,74
 1268 543 1268 543 1284 543 c 0,75,76
 1311 543 1311 543 1331.5 560.5 c 128,-1,77
 1352 578 1352 578 1352 602 c 256,78,79
 1352 627 1352 627 1331.5 645.5 c 128,-1,80
 1311 664 1311 664 1284 664 c 2,81,-1
 1139 664 l 1,82,-1
 1139 506 l 2,83,84
 1139 496 1139 496 1132.5 489.5 c 128,-1,85
 1126 483 1126 483 1118 483 c 2,86,-1
 1100 485 l 1,87,-1
 233 659 l 2,88,89
 196 667 196 667 197 688 c 2,90,-1
 197 719 l 2,91,92
 197 737 197 737 233 745 c 2,93,-1
 1100 922 l 1,94,-1
 1118 924 l 2,55,56
166 676 m 1,95,-1
 27 676 l 2,96,97
 17 676 17 676 8.5 683 c 128,-1,98
 0 690 0 690 0 702 c 0,99,100
 0 712 0 712 7 720.5 c 128,-1,101
 14 729 14 729 27 729 c 2,102,-1
 166 729 l 1,103,-1
 166 676 l 1,95,-1
297 522 m 1,104,-1
 297 0 l 1,105,-1
 231 0 l 2,106,107
 217 0 217 0 207 10 c 128,-1,108
 197 20 197 20 197 35 c 2,109,-1
 197 487 l 2,110,111
 197 501 197 501 207 511.5 c 128,-1,112
 217 522 217 522 231 522 c 2,113,-1
 297 522 l 1,104,-1
549 10 m 128,-1,115
 539 0 539 0 524 0 c 2,116,-1
 373 0 l 1,117,-1
 373 522 l 1,118,-1
 524 522 l 2,119,120
 538 522 538 522 548.5 512 c 128,-1,121
 559 502 559 502 559 487 c 2,122,-1
 559 35 l 2,123,114
 559 20 559 20 549 10 c 128,-1,115
485.5 448.5 m 128,-1,125
 492 442 492 442 502 442 c 0,126,127
 510 442 510 442 516 448.5 c 128,-1,128
 522 455 522 455 522 465 c 0,129,130
 522 473 522 473 516 479 c 128,-1,131
 510 485 510 485 502 485 c 0,132,133
 492 485 492 485 485.5 479 c 128,-1,134
 479 473 479 473 479 465 c 0,135,124
 479 455 479 455 485.5 448.5 c 128,-1,125
1142 325 m 128,-1,137
 1141 322 1141 322 1139 319 c 2,138,-1
 1106 291 l 2,139,140
 1104 285 1104 285 1098 291 c 2,141,-1
 1079 317 l 2,142,143
 1075 321 1075 321 1071 317 c 2,144,-1
 1053 291 l 2,145,146
 1049 287 1049 287 1042 291 c 2,147,-1
 1024 317 l 2,148,149
 1020 321 1020 321 1016 317 c 2,150,-1
 999 293 l 2,151,152
 995 289 995 289 993 289 c 0,153,154
 991 287 991 287 988 288 c 128,-1,155
 985 289 985 289 985 291 c 2,156,-1
 967 317 l 2,157,158
 965 323 965 323 958 317 c 2,159,-1
 940 293 l 2,160,161
 936 289 936 289 930 289 c 2,162,-1
 891 289 l 1,163,-1
 891 258 l 2,164,165
 889 256 889 256 885 258 c 2,166,-1
 862 279 l 1,167,168
 850 248 850 248 821.5 228.5 c 128,-1,169
 793 209 793 209 758 209 c 0,170,171
 707 209 707 209 673 244 c 128,-1,172
 639 279 639 279 639 328 c 0,173,174
 641 375 641 375 675 408.5 c 128,-1,175
 709 442 709 442 758 442 c 0,176,177
 793 442 793 442 821.5 422.5 c 128,-1,178
 850 403 850 403 864 373 c 1,179,-1
 885 393 l 2,180,181
 889 397 889 397 891 393 c 2,182,-1
 891 365 l 1,183,-1
 1108 365 l 2,184,185
 1114 365 1114 365 1118 360 c 2,186,-1
 1141 330 l 2,187,136
 1143 328 1143 328 1142 325 c 128,-1,137
502 373 m 0,189,190
 522 373 522 373 522 395 c 0,191,192
 522 403 522 403 516 409.5 c 128,-1,193
 510 416 510 416 502 416 c 0,194,195
 492 416 492 416 485.5 409.5 c 128,-1,196
 479 403 479 403 479 395 c 0,197,188
 479 373 479 373 502 373 c 0,189,190
743.5 302 m 128,-1,199
 754 313 754 313 754 328 c 256,200,201
 754 342 754 342 742.5 352 c 128,-1,202
 731 362 731 362 717 362 c 256,203,204
 703 362 703 362 692.5 352 c 128,-1,205
 682 342 682 342 682 328 c 256,206,207
 682 314 682 314 692 302.5 c 128,-1,208
 702 291 702 291 717 291 c 0,209,198
 733 291 733 291 743.5 302 c 128,-1,199
485.5 309 m 128,-1,211
 492 303 492 303 502 303 c 0,212,213
 510 303 510 303 516 309 c 128,-1,214
 522 315 522 315 522 326 c 0,215,216
 522 334 522 334 516 340 c 128,-1,217
 510 346 510 346 502 346 c 0,218,219
 492 346 492 346 485.5 340 c 128,-1,220
 479 334 479 334 479 326 c 0,221,210
 479 315 479 315 485.5 309 c 128,-1,211
662 123 m 2,222,223
 666 131 666 131 672 131 c 2,224,-1
 897 131 l 1,225,226
 897 147 897 147 909.5 163.5 c 128,-1,227
 922 180 922 180 946 182 c 2,228,-1
 1090 193 l 2,229,230
 1131 193 1131 193 1145 162 c 0,231,232
 1149 152 1149 152 1153 130.5 c 128,-1,233
 1157 109 1157 109 1157 88 c 256,234,235
 1157 68 1157 68 1153 48.5 c 128,-1,236
 1149 29 1149 29 1145 18 c 0,237,238
 1133 -13 1133 -13 1090 -12 c 2,239,-1
 946 -2 l 2,240,241
 921 0 921 0 909 15.5 c 128,-1,242
 897 31 897 31 897 49 c 1,243,-1
 801 49 l 1,244,-1
 788 53 l 1,245,-1
 770 78 l 2,246,247
 764 84 764 84 762 78 c 2,248,-1
 741 51 l 2,249,250
 737 47 737 47 731 51 c 2,251,-1
 713 78 l 2,252,253
 709 84 709 84 702 78 c 2,254,-1
 684 51 l 2,255,256
 680 47 680 47 674 51 c 2,257,-1
 641 82 l 2,258,259
 637 86 637 86 639 92 c 2,260,-1
 662 123 l 2,222,223
1055 57 m 2,261,262
 1055 34 1055 34 1069 35 c 2,263,-1
 1092 35 l 2,264,265
 1104 35 1104 35 1104 57 c 2,266,-1
 1104 119 l 2,267,268
 1104 146 1104 146 1092 145 c 2,269,-1
 1069 145 l 2,270,271
 1055 145 1055 145 1055 119 c 2,272,-1
 1055 57 l 2,261,262
EndSplineSet
EndChar

StartChar: A.ss01
Encoding: 65538 -1 64
Width: 1495
Flags: W
LayerCount: 2
Back
Fore
SplineSet
928 0 m 0,1,2
 940 0 940 0 950.5 8 c 128,-1,3
 961 16 961 16 961 29 c 0,4,5
 961 35 961 35 954 53 c 2,6,-1
 688 848 l 2,7,8
 678 879 678 879 643 879 c 2,9,-1
 637 879 l 1,10,11
 641 990 641 990 641 1061 c 0,12,13
 649 1319 649 1319 649 1370 c 0,14,15
 649 1458 649 1458 565 1489 c 0,16,17
 516 1507 516 1507 471 1538 c 128,-1,18
 426 1569 426 1569 426 1593 c 2,19,-1
 426 1630 l 1,20,21
 453 1646 453 1646 453 1692 c 2,22,-1
 459 1825 l 2,23,24
 459 1860 459 1860 429 1882.5 c 128,-1,25
 399 1905 399 1905 360 1905 c 0,26,27
 319 1905 319 1905 289.5 1882.5 c 128,-1,28
 260 1860 260 1860 260 1825 c 2,29,-1
 266 1692 l 2,30,31
 268 1649 268 1649 293 1630 c 1,32,-1
 293 1593 l 2,33,34
 293 1568 293 1568 248 1537.5 c 128,-1,35
 203 1507 203 1507 154 1489 c 0,36,37
 109 1473 109 1473 90.5 1443 c 128,-1,38
 72 1413 72 1413 72 1370 c 0,39,40
 72 1319 72 1319 80 1065 c 0,41,42
 80 991 80 991 84 885 c 0,43,44
 86 846 86 846 105.5 825.5 c 128,-1,45
 125 805 125 805 156 805 c 1,46,-1
 186 45 l 2,47,48
 186 0 186 0 260 0 c 0,49,50
 297 0 297 0 319.5 12.5 c 128,-1,51
 342 25 342 25 342 45 c 2,52,-1
 342 805 l 1,53,-1
 381 805 l 1,54,-1
 381 45 l 2,55,56
 381 25 381 25 401.5 12.5 c 128,-1,57
 422 0 422 0 459 0 c 0,58,59
 494 0 494 0 513 12.5 c 128,-1,60
 532 25 532 25 535 45 c 2,61,-1
 563 805 l 1,62,-1
 621 805 l 1,63,-1
 891 29 l 2,64,0
 903 0 903 0 928 0 c 0,1,2
1311 805 m 2,66,-1
 1311 748 l 1,67,-1
 1452 674 l 2,68,69
 1470 666 1470 666 1470 655 c 0,70,71
 1470 635 1470 635 1456 610 c 0,72,73
 1444 590 1444 590 1432.5 582.5 c 128,-1,74
 1421 575 1421 575 1405 575 c 2,75,-1
 1317 575 l 1,76,-1
 1268 340 l 1,77,-1
 1270 31 l 2,78,79
 1270 0 1270 0 1221 0 c 0,80,81
 1194 0 1194 0 1175.5 8 c 128,-1,82
 1157 16 1157 16 1157 31 c 2,83,-1
 1135 291 l 1,84,-1
 1018 291 l 2,85,86
 959 291 959 291 909 303 c 1,87,-1
 819 571 l 1,88,-1
 1108 555 l 1,89,-1
 1294 809 l 2,90,91
 1300 815 1300 815 1305 815 c 0,92,65
 1311 815 1311 815 1311 805 c 2,66,-1
791 209 m 1,93,-1
 762 31 l 2,94,95
 760 11 760 11 747.5 5.5 c 128,-1,96
 735 0 735 0 698 0 c 0,97,98
 647 0 647 0 647 31 c 2,99,-1
 676 541 l 1,100,-1
 791 209 l 1,93,-1
EndSplineSet
EndChar

StartChar: B.ss01
Encoding: 65539 -1 65
Width: 1495
Flags: W
LayerCount: 2
Back
Fore
SplineSet
565 805 m 1,1,-1
 535 45 l 2,2,3
 533 0 533 0 461 0 c 0,4,5
 424 0 424 0 401.5 12.5 c 128,-1,6
 379 25 379 25 379 45 c 2,7,-1
 379 797 l 1,8,-1
 340 797 l 1,9,-1
 340 45 l 2,10,11
 340 25 340 25 318.5 12.5 c 128,-1,12
 297 0 297 0 260 0 c 0,13,14
 188 0 188 0 186 45 c 2,15,-1
 154 805 l 1,16,17
 119 805 119 805 101.5 827.5 c 128,-1,18
 84 850 84 850 84 883 c 2,19,-1
 72 1376 l 2,20,21
 72 1466 72 1466 152 1495 c 0,22,23
 203 1513 203 1513 247 1543 c 128,-1,24
 291 1573 291 1573 291 1602 c 2,25,-1
 291 1632 l 1,26,27
 268 1642 268 1642 266 1694 c 2,28,-1
 260 1827 l 2,29,30
 260 1862 260 1862 289.5 1883.5 c 128,-1,31
 319 1905 319 1905 360 1905 c 0,32,33
 399 1905 399 1905 429 1883.5 c 128,-1,34
 459 1862 459 1862 459 1827 c 0,35,36
 459 1764 459 1764 455 1694 c 0,37,38
 453 1645 453 1645 428 1632 c 1,39,-1
 428 1602 l 2,40,41
 428 1573 428 1573 472 1543 c 128,-1,42
 516 1513 516 1513 567 1495 c 0,43,44
 649 1464 649 1464 649 1382 c 2,45,-1
 635 883 l 2,46,47
 635 875 635 875 631 858 c 1,48,49
 795 735 795 735 955.5 653 c 128,-1,50
 1116 571 1116 571 1257 539 c 1,51,-1
 1364 674 l 2,52,53
 1370 680 1370 680 1376 680 c 0,54,55
 1384 680 1384 680 1384 672 c 2,56,-1
 1384 616 l 1,57,-1
 1503 549 l 2,58,59
 1521 539 1521 539 1522 524 c 256,60,61
 1522 510 1522 510 1509 485 c 0,62,63
 1495 454 1495 454 1460 455 c 2,64,-1
 1380 455 l 1,65,-1
 1348 299 l 1,66,-1
 1348 27 l 2,67,68
 1348 0 1348 0 1296 0 c 0,69,70
 1273 0 1273 0 1258 7 c 128,-1,71
 1243 14 1243 14 1241 27 c 2,72,-1
 1223 225 l 1,73,-1
 1126 225 l 2,74,75
 1036 225 1036 225 946 264 c 1,76,-1
 907 27 l 2,77,78
 901 0 901 0 852 0 c 0,79,80
 807 0 807 0 807 27 c 2,81,-1
 831 422 l 1,82,83
 811 430 811 430 794.5 454.5 c 128,-1,84
 778 479 778 479 778 502 c 1,85,-1
 1196 459 l 1,86,-1
 1219 487 l 1,87,88
 1069 524 1069 524 919.5 605 c 128,-1,89
 770 686 770 686 596 811 c 1,90,0
 583 805 583 805 565 805 c 1,1,-1
EndSplineSet
EndChar

StartChar: C.ss01
Encoding: 65540 -1 66
Width: 1105
Flags: W
LayerCount: 2
Back
Fore
SplineSet
866 530.5 m 128,-1,1
 862 549 862 549 854 569 c 2,2,-1
 668 936 l 1,3,-1
 686 1241 l 1,4,-1
 762 1126 l 2,5,6
 776 1108 776 1108 791.5 1099 c 128,-1,7
 807 1090 807 1090 836 1081 c 2,8,-1
 987 1042 l 2,9,10
 1003 1038 1003 1038 1016 1038 c 0,11,12
 1041 1038 1041 1038 1060 1059.5 c 128,-1,13
 1079 1081 1079 1081 1079 1110 c 0,14,15
 1079 1130 1079 1130 1069 1142.5 c 128,-1,16
 1059 1155 1059 1155 1036 1163 c 2,17,-1
 864 1214 l 1,18,-1
 719 1466 l 2,19,20
 680 1532 680 1532 627 1554 c 1,21,-1
 631 1618 l 1,22,23
 668 1630 668 1630 674 1675 c 2,24,-1
 682 1745 l 2,25,26
 690 1802 690 1802 690 1825 c 0,27,28
 690 1858 690 1858 659.5 1881.5 c 128,-1,29
 629 1905 629 1905 588 1905 c 256,30,31
 547 1905 547 1905 523.5 1883.5 c 128,-1,32
 500 1862 500 1862 496 1825 c 2,33,-1
 487 1690 l 2,34,35
 487 1649 487 1649 516 1624 c 1,36,37
 516 1585 516 1585 467 1565 c 0,38,39
 408 1542 408 1542 358 1477 c 2,40,-1
 199 1270 l 2,41,42
 168 1229 168 1229 162 1171 c 0,43,44
 144 1026 144 1026 143 1028 c 2,45,-1
 135 946 l 2,46,47
 135 921 135 921 154.5 901 c 128,-1,48
 174 881 174 881 201 881 c 0,49,50
 256 881 256 881 264 946 c 2,51,-1
 291 1171 l 1,52,-1
 403 1278 l 1,53,-1
 367 924 l 1,54,-1
 268 461 l 1,55,-1
 121 217 l 2,56,57
 90 166 90 166 75.5 140.5 c 128,-1,58
 61 115 61 115 61 104 c 0,59,60
 61 79 61 79 98 51 c 0,61,62
 135 24 135 24 160 25 c 256,63,64
 185 25 185 25 197 43 c 2,65,-1
 365 303 l 2,66,67
 420 395 420 395 440 446 c 2,68,-1
 543 731 l 1,69,-1
 702 473 l 1,70,-1
 768 45 l 2,71,72
 776 18 776 18 796.5 9 c 128,-1,73
 817 0 817 0 858 0 c 0,74,75
 926 0 926 0 926 35 c 2,76,-1
 924 63 l 1,77,-1
 874 483 l 2,78,0
 870 512 870 512 866 530.5 c 128,-1,1
EndSplineSet
EndChar

StartChar: D.ss01
Encoding: 65541 -1 67
Width: 1638
Flags: W
LayerCount: 2
Back
Fore
SplineSet
700 45 m 2,0,1
 698 0 698 0 627 0 c 0,2,3
 590 0 590 0 567.5 12.5 c 128,-1,4
 545 25 545 25 545 45 c 2,5,-1
 545 797 l 1,6,-1
 506 797 l 1,7,-1
 506 45 l 2,8,9
 506 25 506 25 484.5 12.5 c 128,-1,10
 463 0 463 0 426 0 c 0,11,12
 348 0 348 0 346 45 c 2,13,-1
 305 1317 l 1,14,-1
 205 1243 l 2,15,16
 182 1227 182 1227 162.5 1220.5 c 128,-1,17
 143 1214 143 1214 119 1214 c 0,18,19
 60 1214 60 1214 41 1251 c 2,20,-1
 -115 1556 l 2,21,22
 -131 1589 -131 1589 -131 1604 c 0,23,24
 -131 1627 -131 1627 -113.5 1644 c 128,-1,25
 -96 1661 -96 1661 -74 1661 c 0,26,27
 -39 1661 -39 1661 -18 1622 c 2,28,-1
 119 1358 l 1,29,30
 168 1405 168 1405 232.5 1448 c 128,-1,31
 297 1491 297 1491 348 1505 c 0,32,33
 389 1517 389 1517 423 1545 c 128,-1,34
 457 1573 457 1573 457 1602 c 2,35,-1
 457 1632 l 1,36,37
 434 1642 434 1642 432 1694 c 2,38,-1
 426 1827 l 2,39,40
 426 1862 426 1862 455.5 1883.5 c 128,-1,41
 485 1905 485 1905 526 1905 c 0,42,43
 565 1905 565 1905 595 1883.5 c 128,-1,44
 625 1862 625 1862 625 1827 c 0,45,46
 625 1759 625 1759 621 1694 c 0,47,48
 619 1645 619 1645 594 1632 c 1,49,-1
 594 1602 l 2,50,51
 594 1573 594 1573 637 1544.5 c 128,-1,52
 680 1516 680 1516 733 1495 c 0,53,54
 796 1470 796 1470 842 1415 c 2,55,-1
 981 1210 l 1,56,-1
 1198 1210 l 2,57,58
 1278 1210 1278 1210 1278 1135 c 1,59,-1
 1311 1135 l 2,60,61
 1338 1135 1338 1135 1337 1094 c 2,62,-1
 1337 918 l 1,63,-1
 1358 918 l 2,64,65
 1413 918 1413 918 1454 878 c 128,-1,66
 1495 838 1495 838 1497 780 c 2,67,-1
 1516 201 l 2,68,69
 1516 183 1516 183 1499.5 162 c 128,-1,70
 1483 141 1483 141 1456 141 c 2,71,-1
 981 141 l 2,72,73
 954 141 954 141 938 161.5 c 128,-1,74
 922 182 922 182 922 201 c 2,75,-1
 940 780 l 2,76,77
 942 843 942 843 987 880.5 c 128,-1,78
 1032 918 1032 918 1100 918 c 1,79,-1
 1100 1071 l 1,80,-1
 946 1071 l 2,81,82
 928 1071 928 1071 913.5 1079 c 128,-1,83
 899 1087 899 1087 881 1110 c 2,84,-1
 741 1276 l 1,85,-1
 700 45 l 2,0,1
1272 1071 m 1,86,-1
 1165 1071 l 1,87,-1
 1165 918 l 1,88,-1
 1272 918 l 1,89,-1
 1272 1071 l 1,86,-1
1123.5 89 m 128,-1,91
 1139 74 1139 74 1139 51 c 0,92,93
 1139 31 1139 31 1123.5 15.5 c 128,-1,94
 1108 0 1108 0 1085 0 c 256,95,96
 1062 0 1062 0 1047 15.5 c 128,-1,97
 1032 31 1032 31 1032 51 c 0,98,99
 1032 74 1032 74 1047.5 89 c 128,-1,100
 1063 104 1063 104 1085 104 c 256,101,90
 1108 104 1108 104 1123.5 89 c 128,-1,91
1391.5 89 m 128,-1,103
 1407 74 1407 74 1407 51 c 256,104,105
 1407 28 1407 28 1391.5 14 c 128,-1,106
 1376 0 1376 0 1354 0 c 256,107,108
 1331 0 1331 0 1315.5 15.5 c 128,-1,109
 1300 31 1300 31 1300 51 c 0,110,111
 1300 74 1300 74 1315.5 89 c 128,-1,112
 1331 104 1331 104 1354 104 c 256,113,102
 1376 104 1376 104 1391.5 89 c 128,-1,103
EndSplineSet
EndChar

StartChar: E.ss01
Encoding: 65542 -1 68
Width: 1433
Flags: W
LayerCount: 2
Back
Fore
SplineSet
1280 1511 m 1,0,1
 1319 1499 1319 1499 1332.5 1466.5 c 128,-1,2
 1346 1434 1346 1434 1346 1370 c 2,3,-1
 1346 885 l 2,4,5
 1346 805 1346 805 1280 805 c 1,6,-1
 1249 45 l 2,7,8
 1247 0 1247 0 1176 0 c 0,9,10
 1139 0 1139 0 1117.5 12.5 c 128,-1,11
 1096 25 1096 25 1096 45 c 2,12,-1
 1096 797 l 1,13,-1
 1055 797 l 1,14,-1
 1055 45 l 2,15,16
 1055 25 1055 25 1033.5 12.5 c 128,-1,17
 1012 0 1012 0 975 0 c 0,18,19
 905 0 905 0 901 45 c 2,20,-1
 854 1272 l 1,21,-1
 733 1110 l 2,22,23
 715 1087 715 1087 698.5 1079 c 128,-1,24
 682 1071 682 1071 653 1071 c 2,25,-1
 504 1071 l 1,26,-1
 504 918 l 1,27,28
 572 918 572 918 617 881 c 128,-1,29
 662 844 662 844 664 780 c 2,30,-1
 682 201 l 2,31,32
 682 183 682 183 665.5 162 c 128,-1,33
 649 141 649 141 623 141 c 2,34,-1
 147 141 l 2,35,36
 120 141 120 141 104 161.5 c 128,-1,37
 88 182 88 182 88 201 c 2,38,-1
 106 780 l 2,39,40
 108 837 108 837 149 877.5 c 128,-1,41
 190 918 190 918 246 918 c 2,42,-1
 266 918 l 1,43,-1
 266 1094 l 2,44,45
 266 1135 266 1135 293 1135 c 2,46,-1
 328 1135 l 1,47,-1
 328 1139 l 2,48,49
 328 1168 328 1168 346.5 1186 c 128,-1,50
 365 1204 365 1204 393 1204 c 2,51,-1
 608 1204 l 1,52,-1
 754 1425 l 2,53,54
 779 1462 779 1462 804 1481.5 c 128,-1,55
 829 1501 829 1501 870 1511 c 0,56,57
 1009 1546 1009 1546 1010 1593 c 2,58,-1
 1010 1632 l 1,59,60
 985 1644 985 1644 983 1686 c 0,61,62
 983 1715 983 1715 981 1731 c 2,63,-1
 977 1825 l 2,64,65
 977 1860 977 1860 1006.5 1882.5 c 128,-1,66
 1036 1905 1036 1905 1077 1905 c 256,67,68
 1118 1905 1118 1905 1148 1883.5 c 128,-1,69
 1178 1862 1178 1862 1178 1827 c 2,70,-1
 1176 1735 l 1,71,-1
 1171 1686 l 2,72,73
 1171 1645 1171 1645 1147 1632 c 1,74,-1
 1145 1593 l 2,75,76
 1145 1568 1145 1568 1179.5 1551 c 128,-1,77
 1214 1534 1214 1534 1280 1511 c 1,78,-1
 1280 1511 l 1,0,1
438 1071 m 1,79,-1
 332 1071 l 1,80,-1
 332 918 l 1,81,-1
 438 918 l 1,82,-1
 438 1071 l 1,79,-1
287.5 89 m 128,-1,84
 303 74 303 74 303 51 c 0,85,86
 303 31 303 31 287.5 15.5 c 128,-1,87
 272 0 272 0 250 0 c 256,88,89
 227 0 227 0 212 14.5 c 128,-1,90
 197 29 197 29 197 51 c 256,91,92
 197 74 197 74 212 89 c 128,-1,93
 227 104 227 104 250 104 c 256,94,83
 272 104 272 104 287.5 89 c 128,-1,84
556 89 m 128,-1,96
 571 74 571 74 571 51 c 0,97,98
 571 31 571 31 556 15.5 c 128,-1,99
 541 0 541 0 518 0 c 256,100,101
 495 0 495 0 480 15.5 c 128,-1,102
 465 31 465 31 465 51 c 0,103,104
 465 74 465 74 480.5 89 c 128,-1,105
 496 104 496 104 518 104 c 256,106,95
 541 104 541 104 556 89 c 128,-1,96
EndSplineSet
EndChar

StartChar: F.ss01
Encoding: 65543 -1 69
Width: 1429
Flags: W
LayerCount: 2
Back
Fore
SplineSet
862 1511 m 1,0,1
 1001 1546 1001 1546 1001 1593 c 2,2,-1
 1001 1632 l 1,3,4
 976 1644 976 1644 975 1686 c 0,5,6
 975 1715 975 1715 973 1731 c 2,7,-1
 969 1825 l 2,8,9
 969 1860 969 1860 998.5 1882.5 c 128,-1,10
 1028 1905 1028 1905 1069 1905 c 256,11,12
 1110 1905 1110 1905 1139.5 1883.5 c 128,-1,13
 1169 1862 1169 1862 1169 1827 c 2,14,-1
 1167 1735 l 1,15,-1
 1163 1686 l 2,16,17
 1163 1645 1163 1645 1139 1632 c 1,18,-1
 1137 1593 l 2,19,20
 1137 1568 1137 1568 1171.5 1551 c 128,-1,21
 1206 1534 1206 1534 1272 1511 c 0,22,23
 1311 1499 1311 1499 1324 1466.5 c 128,-1,24
 1337 1434 1337 1434 1337 1370 c 2,25,-1
 1337 885 l 2,26,27
 1337 805 1337 805 1276 805 c 1,28,-1
 1245 45 l 2,29,30
 1243 0 1243 0 1171 0 c 0,31,32
 1134 0 1134 0 1112 12.5 c 128,-1,33
 1090 25 1090 25 1090 45 c 2,34,-1
 1090 797 l 1,35,-1
 1051 797 l 1,36,-1
 1051 45 l 2,37,38
 1051 25 1051 25 1029.5 12.5 c 128,-1,39
 1008 0 1008 0 971 0 c 0,40,41
 899 0 899 0 897 45 c 2,42,-1
 846 1253 l 1,43,-1
 741 1102 l 2,44,45
 731 1086 731 1086 719 1078.5 c 128,-1,46
 707 1071 707 1071 678 1071 c 2,47,-1
 416 1071 l 2,48,49
 387 1071 387 1071 366.5 1091.5 c 128,-1,50
 346 1112 346 1112 346 1141 c 0,51,52
 346 1166 346 1166 365.5 1186 c 128,-1,53
 385 1206 385 1206 414 1206 c 2,54,-1
 629 1206 l 1,55,-1
 750 1407 l 2,56,57
 779 1458 779 1458 798 1478.5 c 128,-1,58
 817 1499 817 1499 862 1511 c 1,59,-1
 862 1511 l 1,0,1
393 913 m 2,60,61
 409 876 409 876 410 856 c 0,62,63
 410 840 410 840 404.5 832.5 c 128,-1,64
 399 825 399 825 383 817 c 2,65,-1
 348 801 l 2,66,67
 336 795 336 795 326 795 c 0,68,69
 299 795 299 795 270 854 c 2,70,-1
 260 877 l 2,71,72
 244 912 244 912 244 930 c 0,73,74
 244 959 244 959 266 969 c 2,75,-1
 305 987 l 2,76,77
 315 991 315 991 330 991 c 0,78,79
 357 991 357 991 383 934 c 2,80,-1
 393 913 l 2,60,61
508 688 m 2,81,82
 533 688 533 688 548 675 c 128,-1,83
 563 662 563 662 563 643 c 0,84,85
 563 616 563 616 526 301 c 0,86,87
 506 151 506 151 500 82 c 0,88,89
 488 -2 488 -2 412 -2 c 2,90,-1
 201 -2 l 2,91,92
 160 -2 160 -2 139.5 21.5 c 128,-1,93
 119 45 119 45 115 82 c 2,94,-1
 88 301 l 2,95,96
 49 600 49 600 49 643 c 0,97,98
 49 661 49 661 64.5 674.5 c 128,-1,99
 80 688 80 688 104 688 c 2,100,-1
 508 688 l 2,81,82
EndSplineSet
EndChar

StartChar: G.ss01
Encoding: 65544 -1 70
Width: 1802
Flags: W
LayerCount: 2
Back
Fore
SplineSet
1731 883 m 2,0,1
 1729 850 1729 850 1711.5 827.5 c 128,-1,2
 1694 805 1694 805 1659 805 c 1,3,-1
 1628 45 l 2,4,5
 1626 0 1626 0 1554 0 c 0,6,7
 1517 0 1517 0 1495 12.5 c 128,-1,8
 1473 25 1473 25 1473 45 c 2,9,-1
 1475 797 l 1,10,-1
 1434 797 l 1,11,-1
 1434 45 l 2,12,13
 1434 25 1434 25 1412.5 12.5 c 128,-1,14
 1391 0 1391 0 1354 0 c 0,15,16
 1280 0 1280 0 1280 45 c 2,17,-1
 1247 799 l 1,18,-1
 33 799 l 2,19,20
 2 799 2 799 2 854 c 2,21,-1
 2 895 l 2,22,23
 2 950 2 950 33 950 c 2,24,-1
 549 950 l 1,25,-1
 551 1313 l 2,26,27
 551 1385 551 1385 637 1399 c 0,28,29
 678 1405 678 1405 702.5 1431.5 c 128,-1,30
 727 1458 727 1458 727 1493 c 2,31,-1
 727 1518 l 1,32,33
 715 1526 715 1526 707.5 1535 c 128,-1,34
 700 1544 700 1544 698 1571 c 2,35,-1
 692 1708 l 2,36,37
 692 1745 692 1745 722 1767.5 c 128,-1,38
 752 1790 752 1790 793 1790 c 256,39,40
 834 1790 834 1790 863.5 1767.5 c 128,-1,41
 893 1745 893 1745 893 1708 c 2,42,-1
 887 1571 l 2,43,44
 885 1544 885 1544 877.5 1535 c 128,-1,45
 870 1526 870 1526 858 1518 c 1,46,-1
 858 1493 l 2,47,48
 858 1458 858 1458 882.5 1431.5 c 128,-1,49
 907 1405 907 1405 948 1399 c 0,50,51
 1034 1385 1034 1385 1034 1313 c 2,52,-1
 1036 950 l 1,53,-1
 1176 950 l 1,54,-1
 1165 1368 l 2,55,56
 1165 1458 1165 1458 1245 1487 c 0,57,58
 1296 1505 1296 1505 1341 1536 c 128,-1,59
 1386 1567 1386 1567 1386 1593 c 2,60,-1
 1386 1632 l 1,61,62
 1359 1642 1359 1642 1360 1694 c 2,63,-1
 1354 1823 l 2,64,65
 1352 1860 1352 1860 1381.5 1882.5 c 128,-1,66
 1411 1905 1411 1905 1454 1905 c 0,67,68
 1495 1905 1495 1905 1525.5 1881.5 c 128,-1,69
 1556 1858 1556 1858 1554 1823 c 2,70,-1
 1548 1694 l 2,71,72
 1546 1645 1546 1645 1522 1632 c 1,73,-1
 1522 1593 l 2,74,75
 1522 1566 1522 1566 1566 1535.5 c 128,-1,76
 1610 1505 1610 1505 1661 1487 c 0,77,78
 1743 1456 1743 1456 1743 1368 c 2,79,-1
 1731 883 l 2,0,1
67.5 1501.5 m 128,-1,81
 0 1569 0 1569 0 1669 c 0,82,83
 0 1767 0 1767 67.5 1836 c 128,-1,84
 135 1905 135 1905 233 1905 c 0,85,86
 333 1905 333 1905 402 1836 c 128,-1,87
 471 1767 471 1767 471 1669 c 0,88,89
 471 1569 471 1569 402.5 1501.5 c 128,-1,90
 334 1434 334 1434 233 1434 c 0,91,80
 135 1434 135 1434 67.5 1501.5 c 128,-1,81
358.5 1544 m 128,-1,93
 410 1595 410 1595 410 1669 c 0,94,95
 410 1741 410 1741 358.5 1792 c 128,-1,96
 307 1843 307 1843 233 1843 c 0,97,98
 161 1843 161 1843 110 1792 c 128,-1,99
 59 1741 59 1741 59 1669 c 0,100,101
 59 1595 59 1595 110.5 1544 c 128,-1,102
 162 1493 162 1493 233 1493 c 0,103,92
 307 1493 307 1493 358.5 1544 c 128,-1,93
208 1623 m 128,-1,105
 203 1624 203 1624 203 1630 c 0,106,107
 203 1655 203 1655 225 1681 c 0,108,109
 231 1687 231 1687 243.5 1700.5 c 128,-1,110
 256 1714 256 1714 256 1722 c 0,111,112
 256 1740 256 1740 231 1741 c 0,113,114
 215 1741 215 1741 199 1733 c 0,115,116
 197 1731 197 1731 193 1731 c 0,117,118
 187 1731 187 1731 179.5 1741 c 128,-1,119
 172 1751 172 1751 172 1757 c 0,120,121
 172 1771 172 1771 191.5 1778.5 c 128,-1,122
 211 1786 211 1786 236 1786 c 0,123,124
 271 1786 271 1786 290 1769.5 c 128,-1,125
 309 1753 309 1753 309 1724 c 0,126,127
 309 1704 309 1704 301 1691.5 c 128,-1,128
 293 1679 293 1679 272 1663 c 0,129,130
 249 1645 249 1645 246 1630 c 0,131,132
 244 1624 244 1624 240 1623 c 128,-1,133
 236 1622 236 1622 229 1622 c 2,134,-1
 221 1622 l 2,135,104
 213 1622 213 1622 208 1623 c 128,-1,105
250 1587 m 2,137,-1
 250 1554 l 2,138,139
 250 1544 250 1544 229 1544 c 2,140,-1
 217 1544 l 2,141,142
 197 1544 197 1544 197 1554 c 2,143,-1
 197 1587 l 2,144,145
 197 1599 197 1599 217 1599 c 2,146,-1
 229 1599 l 2,147,136
 250 1599 250 1599 250 1587 c 2,137,-1
EndSplineSet
EndChar

StartChar: H.ss01
Encoding: 65545 -1 71
Width: 634
Flags: W
LayerCount: 2
Back
Fore
SplineSet
27.5 997.5 m 128,-1,1
 12 1022 12 1022 12 1059 c 0,2,3
 12 1082 12 1082 26.5 1174 c 128,-1,4
 41 1266 41 1266 47 1303 c 2,5,-1
 70 1438 l 2,6,7
 80 1514 80 1514 156 1524 c 0,8,9
 199 1532 199 1532 222.5 1557.5 c 128,-1,10
 246 1583 246 1583 246 1620 c 2,11,-1
 246 1632 l 1,12,13
 219 1650 219 1650 217 1694 c 2,14,-1
 215 1741 l 1,15,-1
 211 1823 l 2,16,17
 211 1860 211 1860 240.5 1882.5 c 128,-1,18
 270 1905 270 1905 311 1905 c 256,19,20
 352 1905 352 1905 382 1882.5 c 128,-1,21
 412 1860 412 1860 412 1823 c 2,22,-1
 408 1741 l 1,23,-1
 406 1694 l 2,24,25
 404 1647 404 1647 375 1632 c 1,26,-1
 375 1620 l 2,27,28
 375 1583 375 1583 400.5 1557.5 c 128,-1,29
 426 1532 426 1532 469 1524 c 0,30,31
 547 1514 547 1514 565 1438 c 2,32,-1
 578 1386 l 2,33,34
 601 1300 601 1300 613 1248 c 128,-1,35
 625 1196 625 1196 625 1180 c 0,36,37
 625 1151 625 1151 612 1128 c 0,38,39
 598 1099 598 1099 570.5 1075 c 128,-1,40
 543 1051 543 1051 526 1051 c 1,41,-1
 487 45 l 2,42,43
 485 0 485 0 414 0 c 0,44,45
 377 0 377 0 354.5 12.5 c 128,-1,46
 332 25 332 25 332 45 c 2,47,-1
 332 797 l 1,48,-1
 293 797 l 1,49,-1
 293 45 l 2,50,51
 293 25 293 25 271.5 12.5 c 128,-1,52
 250 0 250 0 213 0 c 0,53,54
 141 0 141 0 139 45 c 2,55,-1
 98 973 l 1,56,-1
 68 973 l 2,57,0
 43 973 43 973 27.5 997.5 c 128,-1,1
418 1255 m 2,58,59
 406 1241 406 1241 406 1231 c 256,60,61
 406 1221 406 1221 412 1210 c 1,62,-1
 227 1210 l 2,63,64
 164 1210 164 1210 135 1180.5 c 128,-1,65
 106 1151 106 1151 106 1092 c 1,66,-1
 389 1092 l 2,67,68
 407 1092 407 1092 422 1106 c 2,69,-1
 524 1210 l 2,70,71
 534 1220 534 1220 535 1243 c 0,72,73
 535 1263 535 1263 518.5 1279.5 c 128,-1,74
 502 1296 502 1296 479 1296 c 256,75,76
 456 1296 456 1296 440 1280 c 2,77,-1
 418 1255 l 2,58,59
EndSplineSet
EndChar

StartChar: I.ss01
Encoding: 65546 -1 72
Width: 1802
Flags: W
LayerCount: 2
Back
Fore
SplineSet
68 217 m 2,0,1
 37 166 37 166 22.5 140.5 c 128,-1,2
 8 115 8 115 8 104 c 0,3,4
 8 79 8 79 45 51 c 0,5,6
 82 24 82 24 106 25 c 256,7,8
 131 25 131 25 143 43 c 2,9,-1
 311 303 l 2,10,11
 366 395 366 395 387 446 c 2,12,-1
 489 731 l 1,13,-1
 649 473 l 1,14,-1
 715 45 l 2,15,16
 723 18 723 18 743.5 9 c 128,-1,17
 764 0 764 0 805 0 c 0,18,19
 871 0 871 0 870 35 c 2,20,-1
 868 63 l 1,21,-1
 821 483 l 2,22,23
 817 512 817 512 813 530.5 c 128,-1,24
 809 549 809 549 801 569 c 2,25,-1
 621 938 l 1,26,-1
 635 1094 l 1,27,-1
 688 1044 l 2,28,29
 711 1024 711 1024 748 1024 c 2,30,-1
 922 1024 l 1,31,-1
 1036 881 l 1,32,-1
 1130 303 l 2,33,34
 1142 227 1142 227 1187.5 193.5 c 128,-1,35
 1233 160 1233 160 1315 160 c 2,36,-1
 1616 160 l 1,37,-1
 1645 131 l 2,38,39
 1659 117 1659 117 1675.5 113 c 128,-1,40
 1692 109 1692 109 1729 109 c 0,41,42
 1795 109 1795 109 1794 129 c 0,43,44
 1794 139 1794 139 1784 150 c 2,45,-1
 1579 381 l 2,46,47
 1544 418 1544 418 1487 418 c 1,48,-1
 1327 625 l 1,49,-1
 1323 653 l 1,50,51
 1354 665 1354 665 1356 707 c 2,52,-1
 1362 799 l 2,53,54
 1362 838 1362 838 1337.5 860.5 c 128,-1,55
 1313 883 1313 883 1266 883 c 0,56,57
 1194 883 1194 883 1174 821 c 1,58,-1
 985 1063 l 2,59,60
 971 1081 971 1081 958 1087 c 1,61,62
 958 1114 958 1114 941 1131.5 c 128,-1,63
 924 1149 924 1149 899 1149 c 2,64,-1
 752 1149 l 1,65,-1
 627 1305 l 1,66,67
 627 1395 627 1395 582 1485 c 0,68,69
 568 1512 568 1512 560.5 1530 c 128,-1,70
 553 1548 553 1548 553 1571 c 2,71,-1
 551 1626 l 1,72,73
 571 1630 571 1630 580.5 1645.5 c 128,-1,74
 590 1661 590 1661 590 1694 c 2,75,-1
 592 1823 l 2,76,77
 592 1860 592 1860 562 1882.5 c 128,-1,78
 532 1905 532 1905 492 1905 c 256,79,80
 451 1905 451 1905 421 1882.5 c 128,-1,81
 391 1860 391 1860 391 1823 c 2,82,-1
 395 1741 l 1,83,-1
 397 1694 l 2,84,85
 399 1651 399 1651 426 1632 c 1,86,-1
 424 1571 l 2,87,88
 424 1555 424 1555 415 1530 c 128,-1,89
 406 1505 406 1505 401 1491 c 0,90,91
 358 1376 358 1376 344 1276 c 2,92,-1
 215 461 l 1,93,-1
 68 217 l 2,0,1
1315.5 89 m 128,-1,95
 1331 74 1331 74 1331 51 c 0,96,97
 1331 31 1331 31 1315.5 15.5 c 128,-1,98
 1300 0 1300 0 1278 0 c 256,99,100
 1255 0 1255 0 1240 15.5 c 128,-1,101
 1225 31 1225 31 1225 51 c 0,102,103
 1225 74 1225 74 1240 89 c 128,-1,104
 1255 104 1255 104 1278 104 c 256,105,94
 1300 104 1300 104 1315.5 89 c 128,-1,95
1584 89 m 128,-1,107
 1599 74 1599 74 1599 51 c 256,108,109
 1599 28 1599 28 1584 14 c 128,-1,110
 1569 0 1569 0 1546 0 c 256,111,112
 1523 0 1523 0 1508 15.5 c 128,-1,113
 1493 31 1493 31 1493 51 c 0,114,115
 1493 74 1493 74 1508.5 89 c 128,-1,116
 1524 104 1524 104 1546 104 c 256,117,106
 1569 104 1569 104 1584 89 c 128,-1,107
EndSplineSet
EndChar

StartChar: J.ss01
Encoding: 65547 -1 73
Width: 1269
Flags: W
LayerCount: 2
Back
Fore
SplineSet
643 1376 m 2,0,1
 643 1464 643 1464 725 1495 c 0,2,3
 776 1513 776 1513 820 1543 c 128,-1,4
 864 1573 864 1573 864 1602 c 2,5,-1
 864 1632 l 1,6,7
 841 1642 841 1642 838 1694 c 0,8,9
 834 1739 834 1739 834 1827 c 0,10,11
 834 1862 834 1862 863.5 1883.5 c 128,-1,12
 893 1905 893 1905 932 1905 c 0,13,14
 973 1905 973 1905 1002.5 1883.5 c 128,-1,15
 1032 1862 1032 1862 1032 1827 c 2,16,-1
 1026 1694 l 2,17,18
 1024 1643 1024 1643 1001 1632 c 1,19,-1
 1001 1602 l 2,20,21
 1001 1573 1001 1573 1045.5 1543 c 128,-1,22
 1090 1513 1090 1513 1141 1495 c 0,23,24
 1221 1466 1221 1466 1221 1376 c 2,25,-1
 1208 883 l 2,26,27
 1204 805 1204 805 1139 805 c 1,28,-1
 1106 45 l 2,29,30
 1104 0 1104 0 1032 0 c 0,31,32
 995 0 995 0 973.5 12.5 c 128,-1,33
 952 25 952 25 952 45 c 2,34,-1
 952 797 l 1,35,-1
 913 797 l 1,36,-1
 913 45 l 2,37,38
 913 25 913 25 890.5 12.5 c 128,-1,39
 868 0 868 0 831 0 c 0,40,41
 759 0 759 0 758 45 c 2,42,-1
 727 774 l 1,43,-1
 637 774 l 2,44,45
 565 774 565 774 541 811 c 2,46,-1
 494 874 l 1,47,-1
 475 45 l 2,48,49
 475 20 475 20 462 10 c 128,-1,50
 449 0 449 0 412 0 c 0,51,52
 344 0 344 0 344 45 c 2,53,-1
 344 539 l 1,54,-1
 309 539 l 1,55,-1
 309 45 l 2,56,57
 309 0 309 0 240 0 c 0,58,59
 205 0 205 0 193.5 10 c 128,-1,60
 182 20 182 20 180 45 c 2,61,-1
 162 586 l 1,62,63
 139 586 139 586 125 596 c 128,-1,64
 111 606 111 606 111 623 c 0,65,66
 111 668 111 668 154 1057 c 0,67,68
 158 1094 158 1094 187.5 1118.5 c 128,-1,69
 217 1143 217 1143 266 1143 c 1,70,-1
 268 1190 l 1,71,72
 237 1204 237 1204 236 1243 c 2,73,-1
 231 1356 l 2,74,75
 231 1387 231 1387 255 1410.5 c 128,-1,76
 279 1434 279 1434 326 1434 c 256,77,78
 373 1434 373 1434 396.5 1411.5 c 128,-1,79
 420 1389 420 1389 420 1358 c 2,80,-1
 416 1243 l 2,81,82
 414 1202 414 1202 383 1190 c 1,83,-1
 385 1143 l 1,84,85
 426 1143 426 1143 449.5 1124.5 c 128,-1,86
 473 1106 473 1106 506 1059 c 2,87,-1
 629 883 l 1,88,-1
 655 883 l 1,89,-1
 643 1376 l 2,0,1
EndSplineSet
EndChar

StartChar: K.ss01
Encoding: 65548 -1 74
Width: 815
Flags: W
LayerCount: 2
Back
Fore
SplineSet
434 1016 m 1,0,-1
 360 879 l 1,1,-1
 358 45 l 2,2,3
 358 25 358 25 336.5 12.5 c 128,-1,4
 315 0 315 0 279 0 c 0,5,6
 207 0 207 0 205 45 c 2,7,-1
 184 489 l 1,8,-1
 113 741 l 2,9,10
 101 780 101 780 91.5 829.5 c 128,-1,11
 82 879 82 879 82 913 c 0,12,13
 82 942 82 942 90 975 c 128,-1,14
 98 1008 98 1008 109 1024 c 2,15,-1
 328 1389 l 2,16,17
 348 1422 348 1422 374.5 1443 c 128,-1,18
 401 1464 401 1464 457 1491 c 0,19,20
 488 1507 488 1507 508 1534 c 2,21,-1
 526 1556 l 1,22,23
 522 1564 522 1564 522 1571 c 0,24,25
 522 1587 522 1587 539 1614 c 2,26,-1
 616 1737 l 2,27,28
 639 1768 639 1768 680 1767 c 0,29,30
 717 1767 717 1767 748 1745 c 0,31,32
 795 1710 795 1710 795 1659 c 0,33,34
 795 1636 795 1636 782 1618 c 2,35,-1
 686 1491 l 2,36,37
 672 1475 672 1475 653 1475 c 0,38,39
 643 1475 643 1475 623 1485 c 1,40,-1
 616 1475 l 2,41,42
 598 1446 598 1446 594 1372 c 0,43,44
 592 1311 592 1311 551 1231 c 1,45,-1
 551 1100 l 1,46,-1
 705 952 l 2,47,48
 725 927 725 927 725 905 c 0,49,50
 725 887 725 887 711.5 867.5 c 128,-1,51
 698 848 698 848 676 842 c 1,52,-1
 676 29 l 2,53,54
 676 17 676 17 666.5 8.5 c 128,-1,55
 657 0 657 0 643 0 c 0,56,57
 627 0 627 0 617.5 8 c 128,-1,58
 608 16 608 16 608 29 c 2,59,-1
 608 860 l 1,60,-1
 434 1016 l 1,0,-1
EndSplineSet
EndChar

StartChar: L.ss01
Encoding: 65549 -1 75
Width: 1085
Flags: W
LayerCount: 2
Back
Fore
SplineSet
784.5 1501.5 m 128,-1,1
 717 1569 717 1569 717 1669 c 0,2,3
 717 1767 717 1767 784.5 1836 c 128,-1,4
 852 1905 852 1905 950 1905 c 0,5,6
 1050 1905 1050 1905 1119 1836 c 128,-1,7
 1188 1767 1188 1767 1188 1669 c 0,8,9
 1188 1569 1188 1569 1119.5 1501.5 c 128,-1,10
 1051 1434 1051 1434 950 1434 c 0,11,0
 852 1434 852 1434 784.5 1501.5 c 128,-1,1
1075 1544 m 128,-1,13
 1126 1595 1126 1595 1126 1669 c 0,14,15
 1126 1741 1126 1741 1075 1792 c 128,-1,16
 1024 1843 1024 1843 950 1843 c 0,17,18
 878 1843 878 1843 827 1792 c 128,-1,19
 776 1741 776 1741 776 1669 c 0,20,21
 776 1595 776 1595 827.5 1544 c 128,-1,22
 879 1493 879 1493 950 1493 c 0,23,12
 1024 1493 1024 1493 1075 1544 c 128,-1,13
1044.5 1647.5 m 128,-1,25
 1036 1640 1036 1640 1024 1640 c 2,26,-1
 950 1640 l 2,27,28
 940 1640 940 1640 932 1647.5 c 128,-1,29
 924 1655 924 1655 924 1667 c 2,30,-1
 924 1774 l 2,31,32
 924 1786 924 1786 931 1794 c 128,-1,33
 938 1802 938 1802 950 1802 c 256,34,35
 962 1802 962 1802 970.5 1794 c 128,-1,36
 979 1786 979 1786 979 1774 c 2,37,-1
 979 1694 l 1,38,-1
 1024 1694 l 2,39,40
 1036 1694 1036 1694 1044.5 1686.5 c 128,-1,41
 1053 1679 1053 1679 1053 1667 c 256,42,24
 1053 1655 1053 1655 1044.5 1647.5 c 128,-1,25
961 53 m 1,43,-1
 969 23 l 2,44,45
 969 11 969 11 952.5 5.5 c 128,-1,46
 936 0 936 0 895 0 c 256,47,48
 854 0 854 0 836.5 6 c 128,-1,49
 819 12 819 12 813 29 c 2,50,-1
 680 449 l 1,51,-1
 231 449 l 2,52,53
 192 449 192 449 172 473.5 c 128,-1,54
 152 498 152 498 145 535 c 2,55,-1
 96 915 l 2,56,57
 82 1015 82 1015 82 1047 c 0,58,59
 82 1082 82 1082 150 1081 c 1,60,61
 170 1116 170 1116 185.5 1159 c 128,-1,62
 201 1202 201 1202 201 1229 c 2,63,-1
 201 1266 l 1,64,65
 168 1282 168 1282 168 1329 c 2,66,-1
 168 1460 l 2,67,68
 168 1495 168 1495 197.5 1519.5 c 128,-1,69
 227 1544 227 1544 266 1544 c 0,70,71
 307 1544 307 1544 339 1519.5 c 128,-1,72
 371 1495 371 1495 371 1460 c 2,73,-1
 371 1327 l 2,74,75
 371 1304 371 1304 354.5 1286 c 128,-1,76
 338 1268 338 1268 328 1266 c 1,77,-1
 328 1247 l 2,78,79
 328 1214 328 1214 339 1194 c 128,-1,80
 350 1174 350 1174 373 1151 c 0,81,82
 402 1128 402 1128 422 1099.5 c 128,-1,83
 442 1071 442 1071 455 1020 c 2,84,-1
 522 735 l 1,85,-1
 614 735 l 2,86,87
 653 735 653 735 675.5 713.5 c 128,-1,88
 698 692 698 692 698 655 c 1,89,-1
 715 655 l 2,90,91
 793 655 793 655 809 594 c 2,92,-1
 961 53 l 1,43,-1
EndSplineSet
EndChar

StartChar: M.ss01
Encoding: 65550 -1 76
Width: 1187
Flags: W
LayerCount: 2
Back
Fore
SplineSet
1174 795 m 1,0,-1
 950 795 l 2,1,2
 913 795 913 795 896 813 c 128,-1,3
 879 831 879 831 864 879 c 2,4,-1
 827 1004 l 1,5,-1
 625 1004 l 2,6,7
 584 1004 584 1004 563 1024 c 2,8,-1
 498 1094 l 1,9,-1
 379 879 l 1,10,-1
 412 502 l 1,11,-1
 412 45 l 2,12,13
 412 25 412 25 390.5 12.5 c 128,-1,14
 369 0 369 0 332 0 c 0,15,16
 260 0 260 0 258 45 c 2,17,-1
 238 489 l 1,18,-1
 143 741 l 2,19,20
 90 876 90 876 90 952 c 0,21,22
 90 993 90 993 109 1024 c 2,23,-1
 340 1389 l 2,24,25
 367 1430 367 1430 393.5 1451.5 c 128,-1,26
 420 1473 420 1473 475 1499 c 0,27,28
 498 1509 498 1509 511 1519.5 c 128,-1,29
 524 1530 524 1530 537 1548 c 2,30,-1
 549 1567 l 2,31,32
 545 1575 545 1575 545 1583 c 0,33,34
 545 1599 545 1599 561 1624 c 2,35,-1
 641 1747 l 2,36,37
 664 1778 664 1778 705 1778 c 0,38,39
 742 1778 742 1778 772 1755 c 0,40,41
 819 1720 819 1720 819 1669 c 0,42,43
 819 1646 819 1646 807 1628 c 2,44,-1
 709 1499 l 2,45,46
 695 1483 695 1483 676 1483 c 0,47,48
 666 1483 666 1483 645 1493 c 1,49,-1
 639 1483 l 2,50,51
 623 1456 623 1456 618 1382 c 0,52,53
 616 1319 616 1319 580 1247 c 1,54,-1
 668 1139 l 1,55,-1
 848 1139 l 2,56,57
 875 1139 875 1139 894 1118.5 c 128,-1,58
 913 1098 913 1098 913 1071 c 1,59,-1
 1174 1071 l 1,60,-1
 1174 795 l 1,0,-1
873.5 1420 m 128,-1,62
 868 1415 868 1415 860 1415 c 256,63,64
 852 1415 852 1415 847 1420 c 128,-1,65
 842 1425 842 1425 842 1434 c 256,66,67
 842 1442 842 1442 847 1447 c 128,-1,68
 852 1452 852 1452 860 1452 c 256,69,70
 868 1452 868 1452 873.5 1447 c 128,-1,71
 879 1442 879 1442 879 1434 c 256,72,61
 879 1425 879 1425 873.5 1420 c 128,-1,62
783 1414 m 128,-1,74
 778 1419 778 1419 778 1425 c 0,75,76
 778 1433 778 1433 783 1438.5 c 128,-1,77
 788 1444 788 1444 797 1444 c 256,78,79
 805 1444 805 1444 810 1439 c 128,-1,80
 815 1434 815 1434 815 1425 c 0,81,82
 815 1419 815 1419 810 1414 c 128,-1,83
 805 1409 805 1409 797 1409 c 256,84,73
 788 1409 788 1409 783 1414 c 128,-1,74
920.5 1377 m 128,-1,86
 915 1372 915 1372 909 1372 c 0,87,88
 901 1372 901 1372 896 1377 c 128,-1,89
 891 1382 891 1382 891 1391 c 256,90,91
 891 1399 891 1399 896 1404 c 128,-1,92
 901 1409 901 1409 909 1409 c 0,93,94
 915 1409 915 1409 920.5 1404 c 128,-1,95
 926 1399 926 1399 926 1391 c 256,96,85
 926 1382 926 1382 920.5 1377 c 128,-1,86
746.5 1363 m 128,-1,98
 741 1368 741 1368 741 1376 c 256,99,100
 741 1384 741 1384 746.5 1389.5 c 128,-1,101
 752 1395 752 1395 760 1395 c 256,102,103
 768 1395 768 1395 773 1389.5 c 128,-1,104
 778 1384 778 1384 778 1376 c 256,105,106
 778 1368 778 1368 773 1363 c 128,-1,107
 768 1358 768 1358 760 1358 c 256,108,97
 752 1358 752 1358 746.5 1363 c 128,-1,98
939 1316 m 128,-1,110
 934 1311 934 1311 926 1311 c 0,111,112
 920 1311 920 1311 914.5 1316 c 128,-1,113
 909 1321 909 1321 909 1327 c 0,114,115
 909 1335 909 1335 914.5 1341.5 c 128,-1,116
 920 1348 920 1348 926 1348 c 0,117,118
 934 1348 934 1348 939 1341.5 c 128,-1,119
 944 1335 944 1335 944 1327 c 0,120,109
 944 1321 944 1321 939 1316 c 128,-1,110
1074 1289 m 128,-1,122
 1069 1284 1069 1284 1063 1284 c 0,123,124
 1055 1284 1055 1284 1049.5 1289 c 128,-1,125
 1044 1294 1044 1294 1044 1303 c 256,126,127
 1044 1311 1044 1311 1049.5 1316 c 128,-1,128
 1055 1321 1055 1321 1063 1321 c 0,129,130
 1069 1321 1069 1321 1074 1316 c 128,-1,131
 1079 1311 1079 1311 1079 1303 c 256,132,121
 1079 1294 1079 1294 1074 1289 c 128,-1,122
1135.5 1275 m 128,-1,134
 1130 1270 1130 1270 1122 1270 c 256,135,136
 1114 1270 1114 1270 1109 1275 c 128,-1,137
 1104 1280 1104 1280 1104 1288 c 256,138,139
 1104 1296 1104 1296 1109 1301.5 c 128,-1,140
 1114 1307 1114 1307 1122 1307 c 256,141,142
 1130 1307 1130 1307 1135.5 1301.5 c 128,-1,143
 1141 1296 1141 1296 1141 1288 c 256,144,133
 1141 1280 1141 1280 1135.5 1275 c 128,-1,134
939 1248 m 128,-1,146
 934 1243 934 1243 926 1243 c 0,147,148
 920 1243 920 1243 914.5 1248 c 128,-1,149
 909 1253 909 1253 909 1262 c 256,150,151
 909 1270 909 1270 914.5 1275 c 128,-1,152
 920 1280 920 1280 926 1280 c 0,153,154
 934 1280 934 1280 939 1275 c 128,-1,155
 944 1270 944 1270 944 1262 c 256,156,145
 944 1253 944 1253 939 1248 c 128,-1,146
1033 1242 m 128,-1,158
 1028 1237 1028 1237 1020 1237 c 256,159,160
 1012 1237 1012 1237 1006.5 1242 c 128,-1,161
 1001 1247 1001 1247 1001 1255 c 256,162,163
 1001 1263 1001 1263 1006.5 1268.5 c 128,-1,164
 1012 1274 1012 1274 1020 1274 c 256,165,166
 1028 1274 1028 1274 1033 1269 c 128,-1,167
 1038 1264 1038 1264 1038 1255 c 256,168,157
 1038 1247 1038 1247 1033 1242 c 128,-1,158
939 1183 m 128,-1,170
 934 1178 934 1178 926 1178 c 0,171,172
 920 1178 920 1178 914.5 1183 c 128,-1,173
 909 1188 909 1188 909 1196 c 256,174,175
 909 1204 909 1204 914.5 1209 c 128,-1,176
 920 1214 920 1214 926 1214 c 0,177,178
 934 1214 934 1214 939 1209 c 128,-1,179
 944 1204 944 1204 944 1196 c 256,180,169
 944 1188 944 1188 939 1183 c 128,-1,170
1015 1209 m 128,-1,182
 1020 1204 1020 1204 1020 1196 c 256,183,184
 1020 1188 1020 1188 1015 1183 c 128,-1,185
 1010 1178 1010 1178 1001 1178 c 256,186,187
 993 1178 993 1178 988 1183 c 128,-1,188
 983 1188 983 1188 983 1196 c 256,189,190
 983 1204 983 1204 988 1209 c 128,-1,191
 993 1214 993 1214 1001 1214 c 256,192,181
 1010 1214 1010 1214 1015 1209 c 128,-1,182
988 1115 m 128,-1,194
 983 1120 983 1120 983 1128 c 0,195,196
 983 1134 983 1134 988 1139.5 c 128,-1,197
 993 1145 993 1145 1001 1145 c 256,198,199
 1009 1145 1009 1145 1014.5 1140 c 128,-1,200
 1020 1135 1020 1135 1020 1128 c 0,201,202
 1020 1120 1020 1120 1015 1115 c 128,-1,203
 1010 1110 1010 1110 1001 1110 c 256,204,193
 993 1110 993 1110 988 1115 c 128,-1,194
EndSplineSet
EndChar

StartChar: N.ss01
Encoding: 65551 -1 77
Width: 757
Flags: W
LayerCount: 2
Back
Fore
SplineSet
634.5 828.5 m 128,-1,1
 618 805 618 805 584 805 c 1,2,-1
 553 45 l 2,3,4
 551 0 551 0 479 0 c 0,5,6
 442 0 442 0 419.5 12.5 c 128,-1,7
 397 25 397 25 397 45 c 2,8,-1
 397 797 l 1,9,-1
 358 797 l 1,10,-1
 358 45 l 2,11,12
 358 25 358 25 336.5 12.5 c 128,-1,13
 315 0 315 0 279 0 c 0,14,15
 207 0 207 0 205 45 c 2,16,-1
 172 805 l 1,17,18
 106 805 106 805 102 883 c 0,19,20
 98 994 98 994 98 1067 c 0,21,22
 90 1329 90 1329 90 1376 c 0,23,24
 90 1466 90 1466 170 1495 c 0,25,26
 221 1513 221 1513 265 1543 c 128,-1,27
 309 1573 309 1573 309 1602 c 2,28,-1
 309 1632 l 1,29,30
 286 1642 286 1642 285 1694 c 2,31,-1
 279 1827 l 2,32,33
 279 1862 279 1862 308.5 1883.5 c 128,-1,34
 338 1905 338 1905 379 1905 c 0,35,36
 418 1905 418 1905 447.5 1883.5 c 128,-1,37
 477 1862 477 1862 477 1827 c 0,38,39
 477 1759 477 1759 473 1694 c 0,40,41
 471 1645 471 1645 446 1632 c 1,42,-1
 446 1602 l 2,43,44
 446 1573 446 1573 490.5 1543 c 128,-1,45
 535 1513 535 1513 586 1495 c 0,46,47
 668 1464 668 1464 668 1376 c 0,48,49
 668 1339 668 1339 659 1067 c 2,50,-1
 653 883 l 2,51,0
 651 852 651 852 634.5 828.5 c 128,-1,1
EndSplineSet
EndChar

StartChar: O.ss01
Encoding: 65552 -1 78
Width: 610
Flags: W
LayerCount: 2
Back
Fore
SplineSet
98.5 596 m 128,-1,1
 84 606 84 606 84 623 c 2,2,-1
 127 1057 l 2,3,4
 131 1096 131 1096 159.5 1119.5 c 128,-1,5
 188 1143 188 1143 240 1143 c 1,6,-1
 242 1190 l 1,7,8
 211 1202 211 1202 209 1243 c 2,9,-1
 205 1356 l 2,10,11
 205 1387 205 1387 228.5 1410.5 c 128,-1,12
 252 1434 252 1434 299 1434 c 256,13,14
 346 1434 346 1434 369.5 1410 c 128,-1,15
 393 1386 393 1386 393 1356 c 2,16,-1
 389 1243 l 2,17,18
 387 1204 387 1204 356 1190 c 1,19,-1
 358 1143 l 1,20,21
 409 1143 409 1143 438 1119.5 c 128,-1,22
 467 1096 467 1096 471 1057 c 2,23,-1
 514 623 l 2,24,25
 514 607 514 607 499.5 596.5 c 128,-1,26
 485 586 485 586 463 586 c 1,27,-1
 444 45 l 2,28,29
 442 20 442 20 431 10 c 128,-1,30
 420 0 420 0 385 0 c 0,31,32
 315 0 315 0 315 45 c 2,33,-1
 315 539 l 1,34,-1
 281 539 l 1,35,-1
 281 45 l 2,36,37
 281 0 281 0 213 0 c 0,38,39
 176 0 176 0 164 10 c 128,-1,40
 152 20 152 20 150 45 c 2,41,-1
 135 586 l 1,42,0
 113 586 113 586 98.5 596 c 128,-1,1
EndSplineSet
EndChar

StartChar: P.ss01
Encoding: 65553 -1 79
Width: 1269
Flags: W
LayerCount: 2
Back
Fore
SplineSet
422 899 m 2,0,1
 420 973 420 973 423 1011 c 128,-1,2
 426 1049 426 1049 442 1087 c 0,3,4
 452 1116 452 1116 463.5 1152 c 128,-1,5
 475 1188 475 1188 475 1212 c 2,6,-1
 475 1249 l 1,7,8
 442 1265 442 1265 442 1313 c 2,9,-1
 442 1444 l 2,10,11
 442 1479 442 1479 472 1503.5 c 128,-1,12
 502 1528 502 1528 541 1528 c 0,13,14
 582 1528 582 1528 613.5 1503.5 c 128,-1,15
 645 1479 645 1479 645 1444 c 2,16,-1
 645 1311 l 2,17,18
 645 1288 645 1288 628.5 1269.5 c 128,-1,19
 612 1251 612 1251 602 1249 c 1,20,-1
 602 1231 l 2,21,22
 602 1198 602 1198 613.5 1177.5 c 128,-1,23
 625 1157 625 1157 647 1135 c 0,24,25
 672 1115 672 1115 688.5 1086 c 128,-1,26
 705 1057 705 1057 717 1004 c 2,27,-1
 797 670 l 1,28,-1
 977 670 l 2,29,30
 1014 670 1014 670 1035.5 656.5 c 128,-1,31
 1057 643 1057 643 1071 608 c 2,32,-1
 1245 207 l 2,33,34
 1270 150 1270 150 1270 139 c 0,35,36
 1270 127 1270 127 1260 117 c 256,37,38
 1250 107 1250 107 1220 94.5 c 128,-1,39
 1190 82 1190 82 1176 82 c 0,40,41
 1158 82 1158 82 1151 94 c 2,42,-1
 961 463 l 1,43,-1
 854 463 l 1,44,45
 860 426 860 426 860 393 c 0,46,47
 860 280 860 280 805 187 c 128,-1,48
 750 94 750 94 655.5 39 c 128,-1,49
 561 -16 561 -16 451 -16 c 256,50,51
 340 -16 340 -16 246 39 c 128,-1,52
 152 94 152 94 96.5 187.5 c 128,-1,53
 41 281 41 281 41 393 c 0,54,55
 41 495 41 495 89 585.5 c 128,-1,56
 137 676 137 676 224 734.5 c 128,-1,57
 311 793 311 793 424 803 c 1,58,-1
 422 899 l 2,0,1
198 618.5 m 128,-1,60
 113 524 113 524 113 393 c 0,61,62
 113 301 113 301 158 223 c 128,-1,63
 203 145 203 145 280.5 100 c 128,-1,64
 358 55 358 55 451 55 c 256,65,66
 543 55 543 55 619.5 100 c 128,-1,67
 696 145 696 145 741 223 c 128,-1,68
 786 301 786 301 786 393 c 0,69,70
 786 430 786 430 778 463 c 1,71,-1
 512 463 l 2,72,73
 473 463 473 463 449.5 488.5 c 128,-1,74
 426 514 426 514 426 549 c 2,75,-1
 424 729 l 1,76,59
 283 713 283 713 198 618.5 c 128,-1,60
EndSplineSet
EndChar

StartChar: Q.ss01
Encoding: 65554 -1 80
Width: 593
Flags: W
LayerCount: 2
Back
Fore
SplineSet
399 1350 m 2,0,1
 411 1336 411 1336 412 1317 c 0,2,3
 412 1292 412 1292 395 1276 c 1,4,5
 450 1221 450 1221 478 1184 c 128,-1,6
 506 1147 506 1147 520.5 1102 c 128,-1,7
 535 1057 535 1057 535 987 c 0,8,9
 535 942 535 942 530 872 c 0,10,11
 524 811 524 811 524 653 c 0,12,13
 524 624 524 624 511 613 c 128,-1,14
 498 602 498 602 459 602 c 2,15,-1
 354 600 l 1,16,-1
 350 45 l 2,17,18
 350 0 350 0 283 0 c 0,19,20
 205 0 205 0 203 45 c 2,21,-1
 180 598 l 1,22,-1
 123 598 l 2,23,24
 70 598 70 598 70 655 c 2,25,-1
 70 856 l 2,26,27
 70 950 70 950 152 1069 c 1,28,-1
 94 1337 l 2,29,30
 88 1366 88 1366 88 1391 c 0,31,32
 88 1434 88 1434 111 1501 c 0,33,34
 129 1556 129 1556 129 1606 c 2,35,-1
 129 1628 l 1,36,37
 100 1642 100 1642 98 1690 c 2,38,-1
 94 1823 l 2,39,40
 94 1860 94 1860 124 1882.5 c 128,-1,41
 154 1905 154 1905 195 1905 c 256,42,43
 236 1905 236 1905 265.5 1882.5 c 128,-1,44
 295 1860 295 1860 295 1823 c 2,45,-1
 291 1681 l 2,46,47
 291 1661 291 1661 281.5 1647.5 c 128,-1,48
 272 1634 272 1634 254 1624 c 1,49,-1
 254 1591 l 2,50,51
 254 1577 254 1577 263 1552.5 c 128,-1,52
 272 1528 272 1528 289 1503 c 2,53,-1
 399 1350 l 2,0,1
EndSplineSet
EndChar

StartChar: R.ss01
Encoding: 65555 -1 81
Width: 1828
Flags: W
LayerCount: 2
Back
Fore
SplineSet
989.5 1605.5 m 128,-1,1
 1018 1583 1018 1583 1018 1546 c 2,2,-1
 1014 1415 l 2,3,4
 1012 1370 1012 1370 987 1354 c 1,5,-1
 987 1315 l 2,6,7
 987 1286 987 1286 1027 1259.5 c 128,-1,8
 1067 1233 1067 1233 1116 1219 c 0,9,10
 1155 1209 1155 1209 1176.5 1176 c 128,-1,11
 1198 1143 1198 1143 1198 1100 c 2,12,-1
 1194 924 l 2,13,14
 1190 850 1190 850 1190 817 c 1,15,16
 1067 835 1067 835 915 836 c 256,17,18
 763 836 763 836 645 817 c 1,19,-1
 639 1100 l 2,20,21
 639 1141 639 1141 660.5 1173.5 c 128,-1,22
 682 1206 682 1206 721 1219 c 0,23,24
 770 1233 770 1233 810 1259.5 c 128,-1,25
 850 1286 850 1286 850 1315 c 2,26,-1
 850 1354 l 1,27,28
 823 1366 823 1366 821 1415 c 2,29,-1
 817 1546 l 2,30,31
 817 1583 817 1583 845.5 1605.5 c 128,-1,32
 874 1628 874 1628 918 1628 c 256,33,0
 961 1628 961 1628 989.5 1605.5 c 128,-1,1
1049 537 m 1,34,35
 1225 547 1225 547 1344.5 585 c 128,-1,36
 1464 623 1464 623 1479 672 c 1,37,-1
 1206 672 l 1,38,39
 1206 711 1206 711 1230.5 741.5 c 128,-1,40
 1255 772 1255 772 1290 772 c 2,41,-1
 1380 772 l 1,42,-1
 1450 1040 l 2,43,44
 1460 1085 1460 1085 1477.5 1113 c 128,-1,45
 1495 1141 1495 1141 1530 1171 c 0,46,47
 1555 1196 1555 1196 1566 1216.5 c 128,-1,48
 1577 1237 1577 1237 1577 1268 c 2,49,-1
 1577 1280 l 1,50,51
 1536 1298 1536 1298 1536 1341 c 2,52,-1
 1536 1481 l 2,53,54
 1536 1516 1536 1516 1566.5 1539.5 c 128,-1,55
 1597 1563 1597 1563 1638 1563 c 256,56,57
 1679 1563 1679 1563 1709 1539.5 c 128,-1,58
 1739 1516 1739 1516 1739 1481 c 2,59,-1
 1739 1346 l 2,60,61
 1739 1297 1739 1297 1706 1280 c 1,62,-1
 1706 1251 l 2,63,64
 1706 1222 1706 1222 1721.5 1180.5 c 128,-1,65
 1737 1139 1737 1139 1757 1102 c 1,66,67
 1786 1102 1786 1102 1797 1093.5 c 128,-1,68
 1808 1085 1808 1085 1808 1067 c 2,69,70
 1782 725 l 0,71,72
 1782 721 1782 721 1767 545 c 0,73,74
 1763 508 1763 508 1738.5 484.5 c 128,-1,75
 1714 461 1714 461 1675 461 c 2,76,-1
 1219 461 l 1,77,-1
 1200 29 l 2,78,79
 1200 15 1200 15 1183.5 7.5 c 128,-1,80
 1167 0 1167 0 1128 0 c 0,81,82
 1083 0 1083 0 1066 7 c 128,-1,83
 1049 14 1049 14 1049 33 c 2,84,-1
 1049 537 l 1,34,35
780 537 m 1,85,86
 604 547 604 547 484.5 585 c 128,-1,87
 365 623 365 623 350 672 c 1,88,-1
 623 672 l 1,89,90
 623 709 623 709 597 740.5 c 128,-1,91
 571 772 571 772 539 772 c 2,92,-1
 449 772 l 1,93,-1
 381 1040 l 2,94,95
 369 1085 369 1085 351.5 1113 c 128,-1,96
 334 1141 334 1141 299 1171 c 0,97,98
 274 1196 274 1196 263 1216.5 c 128,-1,99
 252 1237 252 1237 252 1268 c 2,100,-1
 252 1280 l 1,101,102
 295 1298 295 1298 295 1341 c 2,103,-1
 293 1481 l 2,104,105
 293 1516 293 1516 262 1539.5 c 128,-1,106
 231 1563 231 1563 190 1563 c 256,107,108
 149 1563 149 1563 119.5 1539.5 c 128,-1,109
 90 1516 90 1516 90 1481 c 2,110,-1
 90 1346 l 2,111,112
 90 1297 90 1297 123 1280 c 1,113,-1
 123 1251 l 2,114,115
 123 1222 123 1222 107.5 1180.5 c 128,-1,116
 92 1139 92 1139 72 1102 c 1,117,118
 43 1102 43 1102 31.5 1093.5 c 128,-1,119
 20 1085 20 1085 20 1067 c 2,120,121
 47 725 l 0,122,123
 47 721 47 721 61 545 c 0,124,125
 65 508 65 508 90 484.5 c 128,-1,126
 115 461 115 461 154 461 c 2,127,-1
 610 461 l 1,128,-1
 631 33 l 2,129,130
 633 0 633 0 709 0 c 0,131,132
 781 0 781 0 780 33 c 2,133,-1
 780 537 l 1,85,86
EndSplineSet
EndChar

StartChar: S.ss01
Encoding: 65556 -1 82
Width: 1746
Flags: W
LayerCount: 2
Back
Fore
SplineSet
1282 625 m 1,0,1
 1188 580 1188 580 1139 502 c 128,-1,2
 1090 424 1090 424 1090 319 c 0,3,4
 1090 223 1090 223 1136 146.5 c 128,-1,5
 1182 70 1182 70 1258.5 27 c 128,-1,6
 1335 -16 1335 -16 1423 -16 c 0,7,8
 1513 -16 1513 -16 1590 27 c 128,-1,9
 1667 70 1667 70 1713 146.5 c 128,-1,10
 1759 223 1759 223 1759 319 c 0,11,12
 1759 407 1759 407 1716 485 c 128,-1,13
 1673 563 1673 563 1596.5 609 c 128,-1,14
 1520 655 1520 655 1423 655 c 0,15,16
 1382 655 1382 655 1341 645 c 1,17,-1
 1214 1030 l 2,18,19
 1208 1053 1208 1053 1200 1062 c 128,-1,20
 1192 1071 1192 1071 1174 1071 c 2,21,-1
 1139 1071 l 1,22,23
 1139 1091 1139 1091 1121.5 1106.5 c 128,-1,24
 1104 1122 1104 1122 1075 1122 c 2,25,-1
 883 1122 l 1,26,-1
 784 1417 l 2,27,28
 776 1442 776 1442 776 1456 c 0,29,30
 776 1474 776 1474 784 1495 c 1,31,32
 809 1501 809 1501 826.5 1519.5 c 128,-1,33
 844 1538 844 1538 848 1561 c 0,34,35
 864 1696 864 1696 864 1710 c 0,36,37
 864 1743 864 1743 833.5 1766.5 c 128,-1,38
 803 1790 803 1790 762 1790 c 256,39,40
 721 1790 721 1790 697.5 1768.5 c 128,-1,41
 674 1747 674 1747 670 1710 c 2,42,-1
 662 1575 l 2,43,44
 662 1550 662 1550 670 1534 c 1,45,-1
 670 1516 l 2,46,47
 670 1506 670 1506 658.5 1492.5 c 128,-1,48
 647 1479 647 1479 633 1466 c 0,49,50
 604 1443 604 1443 583.5 1419 c 128,-1,51
 563 1395 563 1395 549 1358 c 2,52,-1
 391 946 l 2,53,54
 381 917 381 917 381 887 c 0,55,56
 383 793 383 793 500 750 c 1,57,-1
 442 631 l 1,58,59
 393 649 393 649 332 649 c 0,60,61
 244 649 244 649 167 605 c 128,-1,62
 90 561 90 561 45 484.5 c 128,-1,63
 0 408 0 408 0 317 c 0,64,65
 0 225 0 225 45 148.5 c 128,-1,66
 90 72 90 72 167 28 c 128,-1,67
 244 -16 244 -16 332 -16 c 0,68,69
 424 -16 424 -16 497.5 28 c 128,-1,70
 571 72 571 72 614 140.5 c 128,-1,71
 657 209 657 209 664 279 c 1,72,-1
 743 279 l 1,73,-1
 735 240 l 2,74,75
 733 232 733 232 733 219 c 0,76,77
 733 203 733 203 741.5 194.5 c 128,-1,78
 750 186 750 186 772 180 c 0,79,80
 817 168 817 168 834 168 c 0,81,82
 859 168 859 168 868 178 c 128,-1,83
 877 188 877 188 883 219 c 2,84,-1
 911 369 l 1,85,-1
 1243 741 l 1,86,-1
 1282 625 l 1,0,1
934 492 m 1,87,-1
 975 690 l 2,88,89
 977 698 977 698 980 716.5 c 128,-1,90
 983 735 983 735 983 748 c 0,91,92
 983 779 983 779 952 795 c 2,93,-1
 686 946 l 1,94,-1
 725 1143 l 1,95,-1
 805 1006 l 2,96,97
 813 994 813 994 826.5 989.5 c 128,-1,98
 840 985 840 985 883 985 c 2,99,-1
 1161 985 l 1,100,-1
 1219 813 l 1,101,-1
 934 492 l 1,87,-1
756 346 m 1,102,-1
 664 346 l 1,103,104
 658 424 658 424 612.5 496.5 c 128,-1,105
 567 569 567 569 500 602 c 1,106,-1
 559 727 l 1,107,-1
 815 649 l 1,108,-1
 756 346 l 1,102,-1
1645.5 192.5 m 128,-1,110
 1610 133 1610 133 1550.5 97 c 128,-1,111
 1491 61 1491 61 1423 61 c 256,112,113
 1355 61 1355 61 1296 97 c 128,-1,114
 1237 133 1237 133 1201 192.5 c 128,-1,115
 1165 252 1165 252 1165 319 c 0,116,117
 1165 393 1165 393 1204 456.5 c 128,-1,118
 1243 520 1243 520 1307 551 c 1,119,-1
 1384 319 l 2,120,121
 1392 296 1392 296 1400.5 288.5 c 128,-1,122
 1409 281 1409 281 1421 281 c 256,123,124
 1433 281 1433 281 1442.5 289 c 128,-1,125
 1452 297 1452 297 1452 311 c 0,126,127
 1452 319 1452 319 1444 342 c 2,128,-1
 1366 571 l 1,129,130
 1401 577 1401 577 1423 578 c 0,131,132
 1493 578 1493 578 1552.5 543 c 128,-1,133
 1612 508 1612 508 1646.5 448.5 c 128,-1,134
 1681 389 1681 389 1681 319 c 0,135,109
 1681 252 1681 252 1645.5 192.5 c 128,-1,110
412 561 m 1,137,-1
 311 338 l 2,138,139
 303 322 303 322 303 307 c 0,140,141
 303 278 303 278 332 279 c 2,142,-1
 586 279 l 1,143,144
 580 226 580 226 546 175.5 c 128,-1,145
 512 125 512 125 455.5 93 c 128,-1,146
 399 61 399 61 332 61 c 256,147,148
 264 61 264 61 204.5 96 c 128,-1,149
 145 131 145 131 110.5 190.5 c 128,-1,150
 76 250 76 250 76 317 c 0,151,152
 76 387 76 387 110.5 445.5 c 128,-1,153
 145 504 145 504 204.5 538.5 c 128,-1,154
 264 573 264 573 332 573 c 0,155,136
 379 573 379 573 412 561 c 1,137,-1
550 453.5 m 128,-1,157
 584 401 584 401 588 346 c 1,158,-1
 385 346 l 1,159,-1
 469 532 l 1,160,156
 516 506 516 506 550 453.5 c 128,-1,157
EndSplineSet
EndChar

StartChar: T.ss01
Encoding: 65557 -1 83
Width: 1249
Flags: W
LayerCount: 2
Back
Fore
SplineSet
852 649 m 128,-1,1
 913 612 913 612 999 612 c 1,2,-1
 1042 725 l 1,3,-1
 1171 725 l 2,4,5
 1224 725 1224 725 1249 774 c 0,6,7
 1269 819 1269 819 1270 838 c 0,8,9
 1270 858 1270 858 1239 877 c 2,10,-1
 1051 985 l 1,11,-1
 1051 1073 l 2,12,13
 1051 1077 1051 1077 1046.5 1081 c 128,-1,14
 1042 1085 1042 1085 1036 1085 c 0,15,16
 1026 1085 1026 1085 1018 1075 c 2,17,-1
 768 758 l 1,18,0
 791 686 791 686 852 649 c 128,-1,1
829.5 610 m 128,-1,20
 768 649 768 649 735 733 c 1,21,-1
 82 801 l 1,22,23
 82 766 82 766 107.5 727 c 128,-1,24
 133 688 133 688 168 674 c 1,25,-1
 152 430 l 2,26,27
 127 78 127 78 127 43 c 0,28,29
 127 0 127 0 201 0 c 0,30,31
 283 0 283 0 289 43 c 2,32,-1
 350 422 l 1,33,34
 420 391 420 391 496.5 375.5 c 128,-1,35
 573 360 573 360 639 360 c 2,36,-1
 793 360 l 1,37,-1
 821 43 l 2,38,39
 823 20 823 20 847.5 10 c 128,-1,40
 872 0 872 0 909 0 c 0,41,42
 991 0 991 0 991 43 c 2,43,-1
 993 571 l 1,44,19
 891 571 891 571 829.5 610 c 128,-1,20
EndSplineSet
EndChar

StartChar: U.ss01
Encoding: 65558 -1 84
Width: 796
Flags: W
LayerCount: 2
Back
Fore
SplineSet
395 1096 m 1,0,1
 348 1096 348 1096 324.5 1073.5 c 128,-1,2
 301 1051 301 1051 301 1018 c 2,3,-1
 305 920 l 2,4,5
 307 895 307 895 316.5 881.5 c 128,-1,6
 326 868 326 868 338 864 c 1,7,-1
 334 827 l 1,8,9
 309 827 309 827 283.5 813 c 128,-1,10
 258 799 258 799 242 780 c 2,11,-1
 78 616 l 2,12,13
 55 593 55 593 55 569 c 0,14,15
 55 546 55 546 74 524 c 0,16,17
 97 501 97 501 121 502 c 0,18,19
 144 502 144 502 166 524 c 2,20,-1
 281 629 l 1,21,-1
 262 459 l 1,22,-1
 530 459 l 1,23,-1
 512 629 l 1,24,-1
 631 520 l 2,25,26
 654 497 654 497 674 498 c 0,27,28
 699 498 699 498 723 522 c 0,29,30
 741 540 741 540 741 565 c 256,31,32
 741 590 741 590 717 614 c 2,33,-1
 551 780 l 2,34,35
 535 798 535 798 509 812.5 c 128,-1,36
 483 827 483 827 459 827 c 1,37,-1
 453 864 l 1,38,39
 465 868 465 868 474 881.5 c 128,-1,40
 483 895 483 895 485 920 c 0,41,42
 489 977 489 977 489 1012 c 0,43,44
 489 1051 489 1051 464.5 1073.5 c 128,-1,45
 440 1096 440 1096 395 1096 c 1,46,-1
 395 1096 l 1,0,1
100 215 m 256,48,49
 100 192 100 192 113 178 c 2,50,-1
 231 25 l 2,51,52
 251 0 251 0 270 0 c 0,53,54
 286 0 286 0 299 10 c 0,55,56
 328 33 328 33 339 44 c 128,-1,57
 350 55 350 55 350 68 c 0,58,59
 350 76 350 76 340 90 c 2,60,-1
 268 190 l 1,61,-1
 371 287 l 1,62,-1
 254 403 l 1,63,-1
 117 258 l 2,64,47
 100 238 100 238 100 215 c 256,48,49
694 217 m 256,66,67
 694 199 694 199 680 178 c 2,68,-1
 559 25 l 2,69,70
 541 0 541 0 522 0 c 0,71,72
 510 0 510 0 494 10 c 0,73,74
 443 47 443 47 442 68 c 0,75,76
 442 76 442 76 449 84 c 2,77,-1
 524 190 l 1,78,-1
 422 287 l 1,79,-1
 539 403 l 1,80,-1
 676 258 l 2,81,65
 694 235 694 235 694 217 c 256,66,67
EndSplineSet
EndChar

StartChar: A.ss02
Encoding: 65559 -1 85
Width: 1474
Flags: W
LayerCount: 2
Back
Fore
SplineSet
739 1307 m 1,0,-1
 379 1118 l 1,1,-1
 379 1212 l 2,2,3
 379 1230 379 1230 390 1235.5 c 128,-1,4
 401 1241 401 1241 436 1241 c 1,5,-1
 436 1376 l 2,6,7
 436 1399 436 1399 454.5 1406 c 128,-1,8
 473 1413 473 1413 518 1413 c 2,9,-1
 639 1413 l 1,10,-1
 639 1503 l 2,11,12
 639 1538 639 1538 665.5 1550.5 c 128,-1,13
 692 1563 692 1563 739 1563 c 0,14,15
 837 1563 837 1563 838 1503 c 2,16,-1
 838 1413 l 1,17,-1
 958 1413 l 2,18,19
 1003 1413 1003 1413 1022.5 1406 c 128,-1,20
 1042 1399 1042 1399 1042 1376 c 2,21,-1
 1042 1241 l 1,22,23
 1075 1241 1075 1241 1086.5 1236 c 128,-1,24
 1098 1231 1098 1231 1098 1212 c 2,25,-1
 1098 1118 l 1,26,-1
 739 1307 l 1,0,-1
711 233 m 1,27,28
 670 237 670 237 616 266 c 0,29,30
 579 282 579 282 557 289.5 c 128,-1,31
 535 297 535 297 504 297 c 0,32,33
 488 297 488 297 459 293 c 1,34,-1
 367 678 l 2,35,36
 342 770 342 770 323.5 813 c 128,-1,37
 305 856 305 856 276 901 c 0,38,39
 251 946 251 946 252 965 c 0,40,41
 252 992 252 992 295 1014 c 2,42,-1
 711 1233 l 1,43,-1
 711 233 l 1,27,28
1182 1014 m 2,45,-1
 766 1233 l 1,46,-1
 766 233 l 1,47,48
 809 237 809 237 862 266 c 0,49,50
 923 297 923 297 973 297 c 0,51,52
 993 297 993 297 1018 293 c 1,53,-1
 1112 678 l 2,54,55
 1143 803 1143 803 1186 879 c 0,56,57
 1190 887 1190 887 1207.5 917.5 c 128,-1,58
 1225 948 1225 948 1225 965 c 0,59,44
 1225 991 1225 991 1182 1014 c 2,45,-1
0 133 m 2,61,-1
 0 160 l 2,62,63
 0 195 0 195 8 213 c 128,-1,64
 16 231 16 231 39 231 c 0,65,66
 76 231 76 231 100.5 223 c 128,-1,67
 125 215 125 215 156 199 c 256,68,69
 187 183 187 183 211.5 174.5 c 128,-1,70
 236 166 236 166 270 166 c 0,71,72
 307 166 307 166 334.5 175 c 128,-1,73
 362 184 362 184 395 201 c 0,74,75
 426 217 426 217 449.5 224 c 128,-1,76
 473 231 473 231 504 231 c 0,77,78
 533 231 533 231 555.5 224 c 128,-1,79
 578 217 578 217 614 201 c 0,80,81
 649 183 649 183 675.5 174.5 c 128,-1,82
 702 166 702 166 739 166 c 0,83,84
 774 166 774 166 799.5 174 c 128,-1,85
 825 182 825 182 860 199 c 0,86,87
 897 215 897 215 920.5 223 c 128,-1,88
 944 231 944 231 975 231 c 256,89,90
 1006 231 1006 231 1029.5 224 c 128,-1,91
 1053 217 1053 217 1083 201 c 0,92,93
 1116 185 1116 185 1143.5 175.5 c 128,-1,94
 1171 166 1171 166 1208 166 c 256,95,96
 1245 166 1245 166 1269.5 174 c 128,-1,97
 1294 182 1294 182 1325 199 c 0,98,99
 1354 215 1354 215 1377.5 223 c 128,-1,100
 1401 231 1401 231 1436 231 c 0,101,102
 1459 231 1459 231 1467 213 c 128,-1,103
 1475 195 1475 195 1475 160 c 2,104,-1
 1475 133 l 2,105,106
 1475 63 1475 63 1436 63 c 0,107,108
 1403 63 1403 63 1379.5 56 c 128,-1,109
 1356 49 1356 49 1325 33 c 256,110,111
 1294 17 1294 17 1269.5 8.5 c 128,-1,112
 1245 0 1245 0 1208 0 c 0,113,114
 1149 0 1149 0 1083 33 c 0,115,116
 1052 49 1052 49 1029 56 c 128,-1,117
 1006 63 1006 63 975 63 c 0,118,119
 946 63 946 63 924.5 57 c 128,-1,120
 903 51 903 51 884.5 43 c 128,-1,121
 866 35 866 35 860 33 c 0,122,123
 825 17 825 17 799.5 8.5 c 128,-1,124
 774 0 774 0 739 0 c 256,125,126
 704 0 704 0 678.5 8 c 128,-1,127
 653 16 653 16 614 33 c 0,128,129
 553 64 553 64 504 63 c 0,130,131
 473 63 473 63 449.5 56 c 128,-1,132
 426 49 426 49 395 33 c 0,133,134
 329 0 329 0 270 0 c 0,135,136
 235 0 235 0 210.5 8 c 128,-1,137
 186 16 186 16 156 33 c 0,138,139
 121 49 121 49 98.5 56 c 128,-1,140
 76 63 76 63 39 63 c 0,141,60
 0 63 0 63 0 133 c 2,61,-1
EndSplineSet
EndChar

StartChar: B.ss02
Encoding: 65560 -1 86
Width: 1806
Flags: W
LayerCount: 2
Back
Fore
SplineSet
971.5 785.5 m 128,-1,1
 956 778 956 778 938 752 c 2,2,-1
 915 715 l 1,3,-1
 178 715 l 1,4,-1
 125 842 l 2,5,6
 111 873 111 873 57 872 c 0,7,8
 37 872 37 872 28.5 867 c 128,-1,9
 20 862 20 862 20 852 c 2,10,-1
 20 655 l 2,11,12
 20 628 20 628 36.5 607 c 128,-1,13
 53 586 53 586 82 575 c 2,14,-1
 756 356 l 1,15,-1
 813 238 l 2,16,17
 823 218 823 218 840.5 208.5 c 128,-1,18
 858 199 858 199 897 199 c 2,19,-1
 1489 199 l 2,20,21
 1557 199 1557 199 1626.5 227.5 c 128,-1,22
 1696 256 1696 256 1741 302 c 128,-1,23
 1786 348 1786 348 1786 397 c 1,24,-1
 1589 674 l 2,25,26
 1571 701 1571 701 1553.5 708 c 128,-1,27
 1536 715 1536 715 1495 715 c 2,28,-1
 1372 715 l 1,29,-1
 1350 752 l 2,30,31
 1332 779 1332 779 1316 786 c 128,-1,32
 1300 793 1300 793 1260 793 c 2,33,-1
 1171 793 l 1,34,-1
 1171 913 l 1,35,-1
 1708 913 l 2,36,37
 1726 913 1726 913 1726 938 c 2,38,-1
 1726 967 l 2,39,40
 1726 992 1726 992 1708 991 c 2,41,-1
 555 991 l 2,42,43
 537 991 537 991 537 967 c 2,44,-1
 537 938 l 2,45,46
 537 913 537 913 555 913 c 2,47,-1
 1092 913 l 1,48,-1
 1092 793 l 1,49,-1
 1028 793 l 2,50,0
 987 793 987 793 971.5 785.5 c 128,-1,1
934 418 m 1,51,-1
 934 557 l 1,52,-1
 1092 557 l 1,53,-1
 1092 418 l 1,54,-1
 934 418 l 1,51,-1
1171 557 m 1,55,-1
 1311 557 l 1,56,-1
 1311 418 l 1,57,-1
 1171 418 l 1,58,-1
 1171 557 l 1,55,-1
1509 557 m 1,59,-1
 1589 418 l 1,60,-1
 1391 418 l 1,61,-1
 1391 557 l 1,62,-1
 1509 557 l 1,59,-1
795 0 m 2,63,64
 762 0 762 0 762 43 c 2,65,-1
 762 96 l 2,66,67
 762 139 762 139 795 139 c 2,68,-1
 1694 139 l 2,69,70
 1727 139 1727 139 1726 96 c 2,71,-1
 1726 43 l 2,72,73
 1726 0 1726 0 1694 0 c 2,74,-1
 795 0 l 2,63,64
EndSplineSet
EndChar

StartChar: C.ss02
Encoding: 65561 -1 87
Width: 1636
Flags: W
LayerCount: 2
Back
Fore
SplineSet
1421.5 1527.5 m 128,-1,1
 1368 1501 1368 1501 1288 1425 c 2,2,-1
 1004 1145 l 1,3,-1
 139 1503 l 2,4,5
 131 1507 131 1507 121 1507 c 0,6,7
 109 1507 109 1507 94.5 1498 c 128,-1,8
 80 1489 80 1489 72 1475 c 2,9,-1
 51 1442 l 2,10,11
 41 1426 41 1426 41 1413 c 0,12,13
 41 1399 41 1399 59 1380 c 2,14,-1
 662 850 l 1,15,-1
 281 336 l 1,16,-1
 88 336 l 2,17,18
 78 336 78 336 69.5 331 c 128,-1,19
 61 326 61 326 51 311 c 0,20,21
 41 295 41 295 41 283 c 0,22,23
 41 269 41 269 55 256 c 2,24,-1
 203 164 l 1,25,-1
 297 16 l 2,26,27
 307 0 307 0 317 0 c 0,28,29
 331 0 331 0 358 16 c 0,30,31
 374 28 374 28 375 53 c 2,32,-1
 375 238 l 1,33,-1
 891 621 l 1,34,-1
 1425 14 l 2,35,36
 1439 0 1439 0 1454 0 c 256,37,38
 1468 0 1468 0 1489 14 c 0,39,40
 1548 51 1548 51 1548 80 c 0,41,42
 1548 90 1548 90 1542 104 c 2,43,-1
 1186 963 l 1,44,-1
 1464 1247 l 2,45,46
 1595 1378 1595 1378 1595 1491 c 0,47,48
 1595 1528 1595 1528 1583 1541 c 128,-1,49
 1571 1554 1571 1554 1534 1554 c 0,50,0
 1475 1554 1475 1554 1421.5 1527.5 c 128,-1,1
EndSplineSet
EndChar

StartChar: D.ss02
Encoding: 65562 -1 88
Width: 1769
Flags: W
LayerCount: 2
Back
Fore
SplineSet
1730.5 397.5 m 128,-1,1
 1663 332 1663 332 1579 299 c 2,2,-1
 784 18 l 2,3,4
 731 0 731 0 684 0 c 0,5,6
 657 0 657 0 395 10 c 2,7,-1
 213 16 l 2,8,9
 178 16 178 16 150 53 c 2,10,-1
 49 176 l 2,11,12
 41 186 41 186 41 195 c 256,13,14
 41 203 41 203 50 215 c 128,-1,15
 59 227 59 227 74 238 c 0,16,17
 94 252 94 252 109 252 c 0,18,19
 121 252 121 252 150 238 c 2,20,-1
 289 160 l 1,21,-1
 680 303 l 1,22,-1
 150 809 l 2,23,24
 121 834 121 834 121 852 c 0,25,26
 121 862 121 862 131 872 c 0,27,28
 158 899 158 899 184.5 914.5 c 128,-1,29
 211 930 211 930 225 930 c 0,30,31
 231 930 231 930 258 920 c 2,32,-1
 1241 496 l 1,33,-1
 1479 575 l 2,34,35
 1540 593 1540 593 1583 594 c 0,36,37
 1679 594 1679 594 1738.5 568.5 c 128,-1,38
 1798 543 1798 543 1798 512 c 0,39,0
 1798 463 1798 463 1730.5 397.5 c 128,-1,1
EndSplineSet
EndChar

StartChar: E.ss02
Encoding: 65563 -1 89
Width: 1415
Flags: W
LayerCount: 2
Back
Fore
SplineSet
1320 239 m 128,-1,1
 1368 193 1368 193 1391.5 149.5 c 128,-1,2
 1415 106 1415 106 1415 80 c 0,3,4
 1415 72 1415 72 1413 68 c 0,5,6
 1405 52 1405 52 1364 36 c 128,-1,7
 1323 20 1323 20 1268 20 c 0,8,9
 1190 20 1190 20 1102 57 c 2,10,-1
 444 330 l 2,11,12
 397 350 397 350 358 389 c 2,13,-1
 29 731 l 2,14,15
 11 751 11 751 5.5 761.5 c 128,-1,16
 0 772 0 772 0 791 c 0,17,18
 2 824 2 824 9 874 c 128,-1,19
 16 924 16 924 20 950 c 0,20,21
 22 962 22 962 30.5 969.5 c 128,-1,22
 39 977 39 977 51 977 c 0,23,24
 61 977 61 977 86 967 c 0,25,26
 106 959 106 959 112.5 951.5 c 128,-1,27
 119 944 119 944 127 922 c 2,28,-1
 182 764 l 1,29,-1
 485 631 l 1,30,-1
 537 610 l 1,31,-1
 481 1286 l 1,32,-1
 481 1292 l 2,33,34
 481 1308 481 1308 490.5 1319.5 c 128,-1,35
 500 1331 500 1331 518 1331 c 2,36,-1
 571 1331 l 2,37,38
 596 1331 596 1331 608.5 1327 c 128,-1,39
 621 1323 621 1323 627 1309 c 2,40,-1
 1038 395 l 1,41,-1
 1202 317 l 2,42,0
 1272 285 1272 285 1320 239 c 128,-1,1
496.5 202.5 m 128,-1,44
 512 217 512 217 532 217 c 256,45,46
 552 217 552 217 567 201.5 c 128,-1,47
 582 186 582 186 582 166 c 256,48,49
 582 146 582 146 567.5 131.5 c 128,-1,50
 553 117 553 117 532 117 c 256,51,52
 512 117 512 117 496.5 131 c 128,-1,53
 481 145 481 145 481 166 c 0,54,43
 481 188 481 188 496.5 202.5 c 128,-1,44
658.5 145.5 m 128,-1,56
 674 160 674 160 694 160 c 256,57,58
 714 160 714 160 728.5 145.5 c 128,-1,59
 743 131 743 131 743 111 c 256,60,61
 743 91 743 91 729 76 c 128,-1,62
 715 61 715 61 694 61 c 256,63,64
 674 61 674 61 658.5 75.5 c 128,-1,65
 643 90 643 90 643 111 c 256,66,55
 643 131 643 131 658.5 145.5 c 128,-1,56
823.5 83 m 128,-1,68
 838 98 838 98 858 98 c 256,69,70
 878 98 878 98 892.5 83 c 128,-1,71
 907 68 907 68 907 47 c 256,72,73
 907 27 907 27 893 12.5 c 128,-1,74
 879 -2 879 -2 858 -2 c 256,75,76
 838 -2 838 -2 823.5 12.5 c 128,-1,77
 809 27 809 27 809 47 c 256,78,67
 809 68 809 68 823.5 83 c 128,-1,68
EndSplineSet
EndChar

StartChar: F.ss02
Encoding: 65564 -1 90
Width: 1849
Flags: W
LayerCount: 2
Back
Fore
SplineSet
893.5 266.5 m 128,-1,1
 874 246 874 246 846 246 c 0,2,3
 823 246 823 246 803.5 257 c 128,-1,4
 784 268 784 268 778 285 c 1,5,-1
 715 285 l 1,6,7
 709 215 709 215 666 144.5 c 128,-1,8
 623 74 623 74 548 29 c 128,-1,9
 473 -16 473 -16 381 -16 c 0,10,11
 293 -16 293 -16 216 28 c 128,-1,12
 139 72 139 72 93 148.5 c 128,-1,13
 47 225 47 225 47 319 c 0,14,15
 47 411 47 411 93 488 c 128,-1,16
 139 565 139 565 216 609 c 128,-1,17
 293 653 293 653 381 653 c 0,18,19
 436 653 436 653 475 642 c 128,-1,20
 514 631 514 631 555 606 c 1,21,-1
 670 754 l 1,22,-1
 649 754 l 2,23,24
 635 754 635 754 625.5 764 c 128,-1,25
 616 774 616 774 616 786 c 256,26,27
 616 798 616 798 625.5 807.5 c 128,-1,28
 635 817 635 817 649 817 c 2,29,-1
 883 817 l 2,30,31
 897 817 897 817 906 808 c 128,-1,32
 915 799 915 799 915 786 c 256,33,34
 915 774 915 774 906 764 c 128,-1,35
 897 754 897 754 883 754 c 2,36,-1
 862 754 l 1,37,-1
 862 387 l 1,38,39
 872 385 872 385 881 379 c 1,40,-1
 1266 815 l 1,41,-1
 1202 1008 l 1,42,-1
 1040 1008 l 2,43,44
 1026 1008 1026 1008 1017 1018 c 128,-1,45
 1008 1028 1008 1028 1008 1040 c 256,46,47
 1008 1052 1008 1052 1017 1061.5 c 128,-1,48
 1026 1071 1026 1071 1040 1071 c 2,49,-1
 1225 1071 l 2,50,51
 1239 1071 1239 1071 1247 1062 c 128,-1,52
 1255 1053 1255 1053 1262 1030 c 2,53,-1
 1389 645 l 1,54,55
 1430 655 1430 655 1470 655 c 0,56,57
 1566 655 1566 655 1643 609 c 128,-1,58
 1720 563 1720 563 1763 485.5 c 128,-1,59
 1806 408 1806 408 1806 319 c 0,60,61
 1806 223 1806 223 1760 146.5 c 128,-1,62
 1714 70 1714 70 1637.5 27 c 128,-1,63
 1561 -16 1561 -16 1470 -16 c 0,64,65
 1382 -16 1382 -16 1305.5 27 c 128,-1,66
 1229 70 1229 70 1183 146.5 c 128,-1,67
 1137 223 1137 223 1137 319 c 0,68,69
 1137 423 1137 423 1186 501.5 c 128,-1,70
 1235 580 1235 580 1329 625 c 1,71,-1
 1290 743 l 1,72,-1
 913 319 l 1,73,0
 913 287 913 287 893.5 266.5 c 128,-1,1
752 754 m 1,74,-1
 604 567 l 1,75,76
 649 528 649 528 680 468 c 128,-1,77
 711 408 711 408 715 348 c 1,78,-1
 776 348 l 1,79,80
 786 364 786 364 797 373 c 1,81,-1
 797 754 l 1,82,-1
 752 754 l 1,74,-1
254 543 m 128,-1,84
 195 508 195 508 159 448.5 c 128,-1,85
 123 389 123 389 123 319 c 0,86,87
 123 251 123 251 159 192 c 128,-1,88
 195 133 195 133 254 97 c 128,-1,89
 313 61 313 61 381 61 c 256,90,91
 449 61 449 61 506 95 c 128,-1,92
 563 129 563 129 597 180 c 128,-1,93
 631 231 631 231 637 285 c 1,94,-1
 381 285 l 2,95,96
 363 285 363 285 351.5 292 c 128,-1,97
 340 299 340 299 340 313 c 0,98,99
 340 331 340 331 348 342 c 2,100,-1
 508 547 l 1,101,102
 453 578 453 578 381 578 c 0,103,83
 313 578 313 578 254 543 c 128,-1,84
1694 448.5 m 128,-1,105
 1659 508 1659 508 1599.5 543 c 128,-1,106
 1540 578 1540 578 1470 578 c 0,107,108
 1445 578 1445 578 1413 571 c 1,109,-1
 1491 342 l 2,110,111
 1499 319 1499 319 1499 311 c 0,112,113
 1499 297 1499 297 1490 289 c 128,-1,114
 1481 281 1481 281 1468 281 c 256,115,116
 1456 281 1456 281 1448 289 c 128,-1,117
 1440 297 1440 297 1432 319 c 2,118,-1
 1354 551 l 1,119,120
 1291 520 1291 520 1251.5 456.5 c 128,-1,121
 1212 393 1212 393 1212 319 c 0,122,123
 1212 251 1212 251 1248 192 c 128,-1,124
 1284 133 1284 133 1343.5 97 c 128,-1,125
 1403 61 1403 61 1470 61 c 256,126,127
 1538 61 1538 61 1597.5 97 c 128,-1,128
 1657 133 1657 133 1693 192.5 c 128,-1,129
 1729 252 1729 252 1729 319 c 0,130,104
 1729 389 1729 389 1694 448.5 c 128,-1,105
434 348 m 1,131,-1
 639 348 l 1,132,133
 637 391 637 391 615.5 434 c 128,-1,134
 594 477 594 477 559 508 c 1,135,-1
 434 348 l 1,131,-1
EndSplineSet
EndChar

StartChar: G.ss02
Encoding: 65565 -1 91
Width: 1540
Flags: W
LayerCount: 2
Back
Fore
SplineSet
1479 426 m 2,0,1
 1479 471 1479 471 1436 508 c 2,2,-1
 1403 537 l 1,3,-1
 1251 1036 l 2,4,5
 1241 1069 1241 1069 1169 1069 c 2,6,-1
 371 1069 l 2,7,8
 299 1069 299 1069 289 1036 c 2,9,-1
 137 537 l 1,10,-1
 104 508 l 2,11,12
 61 471 61 471 61 426 c 0,13,14
 61 410 61 410 70 346 c 0,15,16
 82 260 82 260 86 211 c 2,17,-1
 86 61 l 2,18,19
 86 28 86 28 111.5 13 c 128,-1,20
 137 -2 137 -2 197 -2 c 2,21,-1
 299 -2 l 2,22,23
 358 -2 358 -2 379.5 16.5 c 128,-1,24
 401 35 401 35 401 86 c 1,25,-1
 1141 88 l 1,26,27
 1141 37 1141 37 1163.5 18.5 c 128,-1,28
 1186 0 1186 0 1245 0 c 2,29,-1
 1352 0 l 2,30,31
 1407 0 1407 0 1431.5 15.5 c 128,-1,32
 1456 31 1456 31 1456 63 c 2,33,-1
 1456 215 l 1,34,-1
 1479 426 l 2,0,1
309 508 m 1,35,-1
 428 920 l 1,36,-1
 1124 920 l 1,37,-1
 1235 508 l 1,38,-1
 309 508 l 1,35,-1
349.5 271.5 m 128,-1,40
 328 250 328 250 297 250 c 0,41,42
 264 250 264 250 241.5 271.5 c 128,-1,43
 219 293 219 293 219 324 c 256,44,45
 219 355 219 355 241.5 377 c 128,-1,46
 264 399 264 399 297 399 c 0,47,48
 328 399 328 399 349.5 376.5 c 128,-1,49
 371 354 371 354 371 324 c 256,50,39
 371 293 371 293 349.5 271.5 c 128,-1,40
1297.5 271.5 m 128,-1,52
 1276 250 1276 250 1243 250 c 0,53,54
 1212 250 1212 250 1190.5 271.5 c 128,-1,55
 1169 293 1169 293 1169 324 c 256,56,57
 1169 355 1169 355 1190.5 377 c 128,-1,58
 1212 399 1212 399 1243 399 c 0,59,60
 1276 399 1276 399 1297.5 376.5 c 128,-1,61
 1319 354 1319 354 1319 324 c 256,62,51
 1319 293 1319 293 1297.5 271.5 c 128,-1,52
EndSplineSet
EndChar

StartChar: H.ss02
Encoding: 65566 -1 92
Width: 1540
Flags: W
LayerCount: 2
Back
Fore
SplineSet
111.5 13.5 m 128,-1,1
 86 29 86 29 86 61 c 2,2,-1
 86 211 l 2,3,4
 82 260 82 260 70 346 c 0,5,6
 62 409 62 409 61 426 c 0,7,8
 61 471 61 471 104 508 c 2,9,-1
 137 537 l 1,10,-1
 289 1036 l 2,11,12
 299 1069 299 1069 371 1069 c 2,13,-1
 559 1069 l 1,14,-1
 573 1118 l 2,15,16
 579 1143 579 1143 627 1143 c 2,17,-1
 924 1143 l 2,18,19
 973 1143 973 1143 979 1118 c 2,20,-1
 991 1069 l 1,21,-1
 1169 1069 l 2,22,23
 1241 1069 1241 1069 1251 1036 c 2,24,-1
 1403 537 l 1,25,-1
 1436 508 l 2,26,27
 1479 471 1479 471 1479 426 c 2,28,-1
 1456 215 l 1,29,-1
 1456 63 l 2,30,31
 1456 30 1456 30 1431.5 15 c 128,-1,32
 1407 0 1407 0 1352 0 c 2,33,-1
 1245 0 l 2,34,35
 1186 0 1186 0 1163.5 18.5 c 128,-1,36
 1141 37 1141 37 1141 88 c 1,37,-1
 401 86 l 1,38,39
 401 35 401 35 379.5 16.5 c 128,-1,40
 358 -2 358 -2 299 -2 c 2,41,-1
 197 -2 l 2,42,0
 137 -2 137 -2 111.5 13.5 c 128,-1,1
1235 508 m 1,43,-1
 1124 920 l 1,44,-1
 428 920 l 1,45,-1
 309 508 l 1,46,-1
 1235 508 l 1,43,-1
349.5 271.5 m 128,-1,48
 371 293 371 293 371 324 c 256,49,50
 371 355 371 355 349.5 377 c 128,-1,51
 328 399 328 399 297 399 c 0,52,53
 264 399 264 399 241.5 376.5 c 128,-1,54
 219 354 219 354 219 324 c 256,55,56
 219 293 219 293 241.5 271.5 c 128,-1,57
 264 250 264 250 297 250 c 0,58,47
 328 250 328 250 349.5 271.5 c 128,-1,48
1297.5 271.5 m 128,-1,60
 1319 293 1319 293 1319 324 c 256,61,62
 1319 355 1319 355 1297.5 377 c 128,-1,63
 1276 399 1276 399 1243 399 c 0,64,65
 1212 399 1212 399 1190.5 376.5 c 128,-1,66
 1169 354 1169 354 1169 324 c 256,67,68
 1169 293 1169 293 1190.5 271.5 c 128,-1,69
 1212 250 1212 250 1243 250 c 0,70,59
 1276 250 1276 250 1297.5 271.5 c 128,-1,60
EndSplineSet
EndChar

StartChar: I.ss02
Encoding: 65567 -1 93
Width: 1540
Flags: W
LayerCount: 2
Back
Fore
SplineSet
1202 1362 m 256,1,2
 1202 1356 1202 1356 1198 1352 c 2,3,-1
 1139 1298 l 1,4,-1
 1130 1294 l 2,5,6
 1126 1294 1126 1294 1122 1300 c 2,7,-1
 1090 1343 l 2,8,9
 1088 1347 1088 1347 1081 1348 c 0,10,11
 1077 1348 1077 1348 1075 1343 c 2,12,-1
 1042 1298 l 2,13,14
 1040 1294 1040 1294 1036 1294 c 0,15,16
 1030 1294 1030 1294 1028 1298 c 2,17,-1
 993 1343 l 2,18,19
 991 1347 991 1347 987 1348 c 256,20,21
 983 1348 983 1348 979 1343 c 2,22,-1
 946 1303 l 2,23,24
 940 1295 940 1295 928 1294 c 2,25,-1
 727 1294 l 1,26,27
 727 1257 727 1257 702.5 1233.5 c 128,-1,28
 678 1210 678 1210 635 1208 c 0,29,30
 572 1204 572 1204 545 1200 c 2,31,-1
 403 1190 l 2,32,33
 331 1190 331 1190 307 1241 c 0,34,35
 301 1257 301 1257 295 1293 c 128,-1,36
 289 1329 289 1329 289 1364 c 0,37,38
 289 1401 289 1401 295 1435.5 c 128,-1,39
 301 1470 301 1470 307 1485 c 0,40,41
 332 1538 332 1538 403 1538 c 2,42,-1
 545 1528 l 2,43,44
 572 1524 572 1524 635 1520 c 0,45,46
 678 1518 678 1518 702.5 1493 c 128,-1,47
 727 1468 727 1468 727 1432 c 1,48,-1
 1141 1432 l 2,49,50
 1155 1432 1155 1432 1159 1423 c 2,51,-1
 1200 1370 l 2,52,0
 1202 1368 1202 1368 1202 1362 c 256,1,2
463 1415 m 2,53,54
 463 1456 463 1456 440 1456 c 2,55,-1
 401 1456 l 2,56,57
 378 1456 378 1456 379 1415 c 2,58,-1
 379 1311 l 2,59,60
 379 1270 379 1270 401 1270 c 2,61,-1
 440 1270 l 2,62,63
 463 1270 463 1270 463 1311 c 2,64,-1
 463 1415 l 2,53,54
1479 426 m 2,65,66
 1479 471 1479 471 1436 508 c 2,67,-1
 1403 537 l 1,68,-1
 1251 1036 l 2,69,70
 1241 1069 1241 1069 1169 1069 c 2,71,-1
 371 1069 l 2,72,73
 299 1069 299 1069 289 1036 c 2,74,-1
 137 537 l 1,75,-1
 104 508 l 2,76,77
 61 471 61 471 61 426 c 0,78,79
 61 410 61 410 70 346 c 0,80,81
 82 260 82 260 86 211 c 2,82,-1
 86 61 l 2,83,84
 86 28 86 28 111.5 13 c 128,-1,85
 137 -2 137 -2 197 -2 c 2,86,-1
 299 -2 l 2,87,88
 358 -2 358 -2 379.5 16.5 c 128,-1,89
 401 35 401 35 401 86 c 1,90,-1
 1141 88 l 1,91,92
 1141 37 1141 37 1163.5 18.5 c 128,-1,93
 1186 0 1186 0 1245 0 c 2,94,-1
 1352 0 l 2,95,96
 1407 0 1407 0 1431.5 15.5 c 128,-1,97
 1456 31 1456 31 1456 63 c 2,98,-1
 1456 215 l 1,99,-1
 1479 426 l 2,65,66
309 508 m 1,100,-1
 428 920 l 1,101,-1
 1124 920 l 1,102,-1
 1235 508 l 1,103,-1
 309 508 l 1,100,-1
349.5 271.5 m 128,-1,105
 328 250 328 250 297 250 c 0,106,107
 264 250 264 250 241.5 271.5 c 128,-1,108
 219 293 219 293 219 324 c 256,109,110
 219 355 219 355 241.5 377 c 128,-1,111
 264 399 264 399 297 399 c 0,112,113
 328 399 328 399 349.5 376.5 c 128,-1,114
 371 354 371 354 371 324 c 256,115,104
 371 293 371 293 349.5 271.5 c 128,-1,105
1297.5 271.5 m 128,-1,117
 1276 250 1276 250 1243 250 c 0,118,119
 1212 250 1212 250 1190.5 271.5 c 128,-1,120
 1169 293 1169 293 1169 324 c 256,121,122
 1169 355 1169 355 1190.5 377 c 128,-1,123
 1212 399 1212 399 1243 399 c 0,124,125
 1276 399 1276 399 1297.5 376.5 c 128,-1,126
 1319 354 1319 354 1319 324 c 256,127,116
 1319 293 1319 293 1297.5 271.5 c 128,-1,117
EndSplineSet
EndChar

StartChar: J.ss02
Encoding: 65568 -1 94
Width: 1597
Flags: W
LayerCount: 2
Back
Fore
SplineSet
1509 322 m 2,1,-1
 1479 193 l 1,2,-1
 1479 63 l 2,3,4
 1479 30 1479 30 1454.5 15 c 128,-1,5
 1430 0 1430 0 1374 0 c 2,6,-1
 1268 0 l 2,7,8
 1209 0 1209 0 1186 18.5 c 128,-1,9
 1163 37 1163 37 1163 88 c 1,10,-1
 434 88 l 1,11,12
 434 37 434 37 412.5 18.5 c 128,-1,13
 391 0 391 0 332 0 c 2,14,-1
 229 0 l 2,15,16
 170 0 170 0 144.5 15.5 c 128,-1,17
 119 31 119 31 119 63 c 2,18,-1
 119 193 l 1,19,-1
 88 319 l 2,20,21
 82 344 82 344 82 362 c 2,22,-1
 82 508 l 2,23,24
 82 537 82 537 86 573 c 2,25,-1
 164 1470 l 2,26,27
 168 1509 168 1509 180.5 1518.5 c 128,-1,28
 193 1528 193 1528 244 1528 c 2,29,-1
 1366 1528 l 2,30,31
 1407 1528 1407 1528 1417 1517.5 c 128,-1,32
 1427 1507 1427 1507 1432 1470 c 2,33,-1
 1511 573 l 2,34,35
 1515 536 1515 536 1516 508 c 2,36,-1
 1516 362 l 2,37,0
 1515 345 1515 345 1509 322 c 2,1,-1
956 1405 m 2,38,39
 956 1428 956 1428 915 1427 c 2,40,-1
 680 1427 l 2,41,42
 641 1427 641 1427 641 1405 c 2,43,-1
 641 1368 l 2,44,45
 641 1345 641 1345 680 1346 c 2,46,-1
 915 1346 l 2,47,48
 956 1346 956 1346 956 1368 c 2,49,-1
 956 1405 l 2,38,39
1290 1239 m 1,50,-1
 297 1239 l 1,51,-1
 248 508 l 1,52,-1
 1341 508 l 1,53,-1
 1290 1239 l 1,50,-1
273.5 269.5 m 128,-1,55
 295 248 295 248 326 248 c 0,56,57
 359 248 359 248 380 269.5 c 128,-1,58
 401 291 401 291 401 322 c 0,59,60
 401 355 401 355 379.5 376 c 128,-1,61
 358 397 358 397 326 397 c 0,62,63
 295 397 295 397 273.5 375.5 c 128,-1,64
 252 354 252 354 252 322 c 0,65,54
 252 291 252 291 273.5 269.5 c 128,-1,55
1329.5 375.5 m 128,-1,67
 1307 397 1307 397 1276 397 c 256,68,69
 1245 397 1245 397 1223.5 375.5 c 128,-1,70
 1202 354 1202 354 1202 322 c 0,71,72
 1202 291 1202 291 1223.5 269.5 c 128,-1,73
 1245 248 1245 248 1276 248 c 256,74,75
 1307 248 1307 248 1329.5 269.5 c 128,-1,76
 1352 291 1352 291 1352 322 c 0,77,66
 1352 354 1352 354 1329.5 375.5 c 128,-1,67
EndSplineSet
EndChar

StartChar: K.ss02
Encoding: 65569 -1 95
Width: 1441
Flags: W
LayerCount: 2
Back
Fore
SplineSet
1442 12 m 256,1,2
 1442 4 1442 4 1432.5 2 c 128,-1,3
 1423 0 1423 0 1403 0 c 2,4,-1
 1257 0 l 2,5,6
 1230 0 1230 0 1217 6 c 128,-1,7
 1204 12 1204 12 1184 33 c 2,8,-1
 840 362 l 1,9,-1
 604 362 l 1,10,-1
 258 33 l 2,11,12
 238 13 238 13 225.5 6.5 c 128,-1,13
 213 0 213 0 186 0 c 2,14,-1
 41 0 l 2,15,16
 18 0 18 0 9 2 c 128,-1,17
 0 4 0 4 0 12 c 256,18,19
 0 20 0 20 14 33 c 2,20,-1
 408 362 l 1,21,-1
 371 362 l 2,22,23
 287 362 287 362 272 434 c 2,24,-1
 217 731 l 2,25,26
 215 739 215 739 215 756 c 0,27,28
 215 789 215 789 217 809 c 2,29,-1
 274 1473 l 2,30,31
 278 1506 278 1506 291.5 1516 c 128,-1,32
 305 1526 305 1526 346 1526 c 2,33,-1
 1085 1526 l 2,34,35
 1134 1526 1134 1526 1148.5 1515.5 c 128,-1,36
 1163 1505 1163 1505 1167 1475 c 2,37,-1
 1227 809 l 2,38,39
 1229 795 1229 795 1229 768 c 0,40,41
 1229 743 1229 743 1227 731 c 2,42,-1
 1169 434 l 2,43,44
 1161 399 1161 399 1136.5 380.5 c 128,-1,45
 1112 362 1112 362 1073 362 c 2,46,-1
 1030 362 l 1,47,-1
 1430 33 l 2,48,0
 1442 20 1442 20 1442 12 c 256,1,2
840 1403 m 2,49,50
 840 1426 840 1426 799 1425 c 2,51,-1
 645 1425 l 2,52,53
 606 1425 606 1425 606 1403 c 2,54,-1
 606 1364 l 2,55,56
 606 1341 606 1341 645 1341 c 2,57,-1
 799 1341 l 2,58,59
 840 1341 840 1341 840 1364 c 2,60,-1
 840 1403 l 2,49,50
1032 1235 m 1,61,-1
 408 1235 l 1,62,-1
 373 788 l 1,63,-1
 1071 788 l 1,64,-1
 1032 1235 l 1,61,-1
390.5 548.5 m 128,-1,66
 412 526 412 526 442 526 c 0,67,68
 475 526 475 526 497.5 548.5 c 128,-1,69
 520 571 520 571 520 602 c 256,70,71
 520 633 520 633 497.5 654.5 c 128,-1,72
 475 676 475 676 442 676 c 0,73,74
 411 676 411 676 390 654.5 c 128,-1,75
 369 633 369 633 369 602 c 256,76,65
 369 571 369 571 390.5 548.5 c 128,-1,66
1047.5 548.5 m 128,-1,78
 1071 571 1071 571 1071 602 c 256,79,80
 1071 633 1071 633 1047.5 654.5 c 128,-1,81
 1024 676 1024 676 993 676 c 256,82,83
 962 676 962 676 941 654.5 c 128,-1,84
 920 633 920 633 920 602 c 256,85,86
 920 571 920 571 941.5 548.5 c 128,-1,87
 963 526 963 526 993 526 c 256,88,77
 1024 526 1024 526 1047.5 548.5 c 128,-1,78
EndSplineSet
EndChar

StartChar: A.ss03
Encoding: 65570 -1 96
Width: 1611
Flags: W
LayerCount: 2
Back
Fore
SplineSet
799 1626 m 2,0,1
 807 1612 807 1612 807 1606 c 0,2,3
 807 1598 807 1598 799 1591.5 c 128,-1,4
 791 1585 791 1585 776 1585 c 2,5,-1
 477 1585 l 2,6,7
 448 1585 448 1585 449 1604 c 0,8,9
 449 1618 449 1618 455 1626 c 2,10,-1
 602 1884 l 2,11,12
 612 1902 612 1902 627 1903 c 256,13,14
 641 1903 641 1903 651 1884 c 2,15,-1
 799 1626 l 2,0,1
987 1585 m 256,17,18
 973 1585 973 1585 963 1604 c 2,19,-1
 815 1862 l 2,20,21
 809 1874 809 1874 809 1884 c 0,22,23
 809 1902 809 1902 838 1903 c 2,24,-1
 1137 1903 l 2,25,26
 1151 1903 1151 1903 1159 1897.5 c 128,-1,27
 1167 1892 1167 1892 1167 1882 c 0,28,29
 1167 1876 1167 1876 1159 1862 c 2,30,-1
 1012 1604 l 2,31,16
 1001 1585 1001 1585 987 1585 c 256,17,18
1502.5 1414.5 m 128,-1,33
 1522 1395 1522 1395 1522 1352 c 2,34,-1
 1522 82 l 2,35,36
 1522 39 1522 39 1502.5 19.5 c 128,-1,37
 1483 0 1483 0 1440 0 c 2,38,-1
 172 0 l 2,39,40
 129 0 129 0 109.5 19.5 c 128,-1,41
 90 39 90 39 90 82 c 2,42,-1
 90 1352 l 2,43,44
 90 1395 90 1395 109.5 1414.5 c 128,-1,45
 129 1434 129 1434 172 1434 c 2,46,-1
 1440 1434 l 2,47,32
 1483 1434 1483 1434 1502.5 1414.5 c 128,-1,33
1364 1280 m 1,48,-1
 248 1280 l 1,49,-1
 248 139 l 1,50,-1
 1364 139 l 1,51,-1
 1364 1280 l 1,48,-1
606 644 m 128,-1,53
 598 633 598 633 580 633 c 1,54,-1
 565 248 l 2,55,56
 565 225 565 225 526 225 c 0,57,58
 485 225 485 225 485 248 c 2,59,-1
 485 629 l 1,60,-1
 467 629 l 1,61,-1
 467 248 l 2,62,63
 467 225 467 225 426 225 c 0,64,65
 389 225 389 225 389 248 c 2,66,-1
 373 633 l 1,67,68
 338 633 338 633 338 672 c 0,69,70
 338 699 338 699 334 766 c 2,71,-1
 330 922 l 2,72,73
 330 967 330 967 371 981 c 0,74,75
 398 989 398 989 420 1004.5 c 128,-1,76
 442 1020 442 1020 442 1034 c 2,77,-1
 442 1051 l 1,78,79
 430 1057 430 1057 428 1081 c 2,80,-1
 426 1149 l 2,81,82
 426 1167 426 1167 441.5 1177.5 c 128,-1,83
 457 1188 457 1188 477 1188 c 256,84,85
 497 1188 497 1188 511.5 1176.5 c 128,-1,86
 526 1165 526 1165 526 1147 c 0,87,88
 526 1100 526 1100 524 1081 c 0,89,90
 522 1056 522 1056 510 1051 c 1,91,-1
 510 1034 l 2,92,93
 510 1020 510 1020 532.5 1004.5 c 128,-1,94
 555 989 555 989 582 981 c 0,95,96
 623 967 623 967 623 922 c 2,97,-1
 618 766 l 2,98,99
 614 698 614 698 614 672 c 0,100,52
 614 655 614 655 606 644 c 128,-1,53
870 688 m 2,101,102
 870 717 870 717 872 740.5 c 128,-1,103
 874 764 874 764 881 782 c 0,104,105
 899 823 899 823 899 846 c 2,106,-1
 899 864 l 1,107,108
 881 874 881 874 881 897 c 2,109,-1
 881 963 l 2,110,111
 881 981 881 981 897 993.5 c 128,-1,112
 913 1006 913 1006 932 1006 c 256,113,114
 950 1006 950 1006 966.5 993.5 c 128,-1,115
 983 981 983 981 983 963 c 2,116,-1
 983 895 l 2,117,118
 983 885 983 885 976 875.5 c 128,-1,119
 969 866 969 866 963 864 c 2,120,-1
 963 856 l 2,121,122
 963 825 963 825 985 807 c 0,123,124
 999 795 999 795 1006.5 781.5 c 128,-1,125
 1014 768 1014 768 1020 741 c 2,126,-1
 1061 571 l 1,127,-1
 1151 571 l 2,128,129
 1169 571 1169 571 1180.5 565 c 128,-1,130
 1192 559 1192 559 1200 541 c 2,131,-1
 1288 338 l 2,132,133
 1300 307 1300 307 1300 303 c 0,134,135
 1300 297 1300 297 1294 293 c 0,136,137
 1288 287 1288 287 1274 280.5 c 128,-1,138
 1260 274 1260 274 1251 274 c 256,139,140
 1243 274 1243 274 1239 281 c 2,141,-1
 1143 467 l 1,142,-1
 1090 467 l 1,143,-1
 1094 432 l 1,144,145
 1094 346 1094 346 1032.5 285.5 c 128,-1,146
 971 225 971 225 885 225 c 0,147,148
 801 225 801 225 739.5 285.5 c 128,-1,149
 678 346 678 346 678 432 c 0,150,151
 678 514 678 514 733 572.5 c 128,-1,152
 788 631 788 631 872 639 c 1,153,-1
 870 688 l 2,101,102
758 546 m 128,-1,155
 715 498 715 498 715 432 c 0,156,157
 715 362 715 362 765 312 c 128,-1,158
 815 262 815 262 885 262 c 0,159,160
 957 262 957 262 1006 312 c 128,-1,161
 1055 362 1055 362 1055 432 c 0,162,163
 1055 455 1055 455 1051 467 c 1,164,-1
 918 467 l 2,165,166
 898 467 898 467 885 479.5 c 128,-1,167
 872 492 872 492 872 510 c 2,168,-1
 872 602 l 1,169,154
 801 594 801 594 758 546 c 128,-1,155
EndSplineSet
EndChar

StartChar: B.ss03
Encoding: 65571 -1 97
Width: 1470
Flags: W
LayerCount: 2
Back
Fore
SplineSet
1409 578 m 1,0,-1
 399 0 l 1,1,-1
 123 0 l 1,2,-1
 123 137 l 2,3,4
 123 153 123 153 135 165.5 c 128,-1,5
 147 178 147 178 164 178 c 2,6,-1
 377 178 l 1,7,-1
 377 270 l 2,8,9
 377 286 377 286 389 298.5 c 128,-1,10
 401 311 401 311 418 311 c 2,11,-1
 631 311 l 1,12,-1
 631 418 l 2,13,14
 631 434 631 434 643 446.5 c 128,-1,15
 655 459 655 459 672 459 c 2,16,-1
 885 459 l 1,17,-1
 885 561 l 2,18,19
 885 577 885 577 897 589.5 c 128,-1,20
 909 602 909 602 926 602 c 2,21,-1
 1139 602 l 1,22,-1
 1139 707 l 2,23,24
 1139 723 1139 723 1151 735.5 c 128,-1,25
 1163 748 1163 748 1180 748 c 2,26,-1
 1409 748 l 1,27,-1
 1409 578 l 1,0,-1
EndSplineSet
EndChar

StartChar: C.ss03
Encoding: 65572 -1 98
Width: 1470
Flags: W
LayerCount: 2
Back
Fore
SplineSet
231 1026 m 2,1,-1
 233 1038 l 1,2,-1
 301 1294 l 2,3,4
 307 1321 307 1321 330 1333 c 2,5,-1
 395 1368 l 2,6,7
 401 1372 401 1372 408 1372 c 0,8,9
 412 1372 412 1372 412 1368 c 0,10,11
 412 1366 412 1366 401 1331 c 2,12,-1
 348 1139 l 1,13,-1
 879 1446 l 2,14,15
 887 1450 887 1450 893 1450 c 0,16,17
 907 1450 907 1450 918 1432 c 2,18,-1
 928 1413 l 2,19,20
 938 1395 938 1395 938 1386 c 0,21,22
 938 1376 938 1376 924 1368 c 2,23,-1
 393 1061 l 1,24,-1
 616 1006 l 2,25,26
 626 1004 626 1004 627 997 c 256,27,28
 627 991 627 991 616 985 c 2,29,-1
 553 948 l 2,30,31
 541 942 541 942 528 942 c 0,32,33
 514 942 514 942 508 944 c 2,34,-1
 248 1014 l 2,35,0
 231 1018 231 1018 231 1026 c 2,1,-1
1409 578 m 1,36,-1
 399 0 l 1,37,-1
 123 0 l 1,38,-1
 123 137 l 2,39,40
 123 153 123 153 135 165.5 c 128,-1,41
 147 178 147 178 164 178 c 2,42,-1
 377 178 l 1,43,-1
 377 270 l 2,44,45
 377 286 377 286 389 298.5 c 128,-1,46
 401 311 401 311 418 311 c 2,47,-1
 631 311 l 1,48,-1
 631 418 l 2,49,50
 631 434 631 434 643 446.5 c 128,-1,51
 655 459 655 459 672 459 c 2,52,-1
 885 459 l 1,53,-1
 885 561 l 2,54,55
 885 577 885 577 897 589.5 c 128,-1,56
 909 602 909 602 926 602 c 2,57,-1
 1139 602 l 1,58,-1
 1139 707 l 2,59,60
 1139 723 1139 723 1151 735.5 c 128,-1,61
 1163 748 1163 748 1180 748 c 2,62,-1
 1409 748 l 1,63,-1
 1409 578 l 1,36,-1
EndSplineSet
EndChar

StartChar: D.ss03
Encoding: 65573 -1 99
Width: 1470
Flags: W
LayerCount: 2
Back
Fore
SplineSet
920 1411 m 256,1,2
 920 1403 920 1403 918 1399 c 2,3,-1
 850 1143 l 2,4,5
 840 1114 840 1114 821 1104 c 2,6,-1
 756 1069 l 2,7,8
 750 1065 750 1065 743 1065 c 0,9,10
 739 1065 739 1065 739 1069 c 0,11,12
 739 1077 739 1077 748 1102 c 2,13,-1
 803 1298 l 1,14,-1
 272 991 l 2,15,16
 264 987 264 987 258 987 c 0,17,18
 242 987 242 987 229 1012 c 2,19,-1
 221 1028 l 2,20,21
 213 1044 213 1044 213 1051 c 0,22,23
 213 1061 213 1061 227 1069 c 2,24,-1
 758 1376 l 1,25,-1
 535 1432 l 2,26,27
 525 1434 525 1434 524 1440 c 0,28,29
 524 1448 524 1448 535 1452 c 2,30,-1
 598 1489 l 2,31,32
 610 1495 610 1495 623 1495 c 0,33,34
 639 1495 639 1495 643 1493 c 2,35,-1
 903 1423 l 2,36,0
 920 1419 920 1419 920 1411 c 256,1,2
1409 578 m 1,37,-1
 399 0 l 1,38,-1
 123 0 l 1,39,-1
 123 137 l 2,40,41
 123 153 123 153 135 165.5 c 128,-1,42
 147 178 147 178 164 178 c 2,43,-1
 377 178 l 1,44,-1
 377 270 l 2,45,46
 377 286 377 286 389 298.5 c 128,-1,47
 401 311 401 311 418 311 c 2,48,-1
 631 311 l 1,49,-1
 631 418 l 2,50,51
 631 434 631 434 643 446.5 c 128,-1,52
 655 459 655 459 672 459 c 2,53,-1
 885 459 l 1,54,-1
 885 561 l 2,55,56
 885 577 885 577 897 589.5 c 128,-1,57
 909 602 909 602 926 602 c 2,58,-1
 1139 602 l 1,59,-1
 1139 707 l 2,60,61
 1139 723 1139 723 1151 735.5 c 128,-1,62
 1163 748 1163 748 1180 748 c 2,63,-1
 1409 748 l 1,64,-1
 1409 578 l 1,37,-1
EndSplineSet
EndChar

StartChar: E.ss03
Encoding: 65574 -1 100
Width: 1753
Flags: W
LayerCount: 2
Back
Fore
SplineSet
1705 815 m 128,-1,1
 1657 762 1657 762 1583 754 c 1,2,-1
 1583 614 l 1,3,-1
 508 0 l 1,4,-1
 160 0 l 1,5,-1
 160 141 l 1,6,7
 90 151 90 151 45 203.5 c 128,-1,8
 0 256 0 256 0 324 c 0,9,10
 0 402 0 402 53 458 c 128,-1,11
 106 514 106 514 188 514 c 2,12,-1
 340 514 l 1,13,-1
 1362 1110 l 2,14,15
 1393 1128 1393 1128 1415 1128 c 2,16,-1
 1565 1128 l 2,17,18
 1645 1128 1645 1128 1699 1074 c 128,-1,19
 1753 1020 1753 1020 1753 944 c 256,20,0
 1753 868 1753 868 1705 815 c 128,-1,1
235.5 247 m 128,-1,22
 248 258 248 258 264 258 c 2,23,-1
 477 258 l 1,24,-1
 477 350 l 2,25,26
 477 366 477 366 489.5 378.5 c 128,-1,27
 502 391 502 391 518 391 c 2,28,-1
 731 391 l 1,29,-1
 731 498 l 2,30,31
 731 514 731 514 743.5 526.5 c 128,-1,32
 756 539 756 539 772 539 c 2,33,-1
 985 539 l 1,34,-1
 985 641 l 2,35,36
 985 657 985 657 997.5 669.5 c 128,-1,37
 1010 682 1010 682 1026 682 c 2,38,-1
 1239 682 l 1,39,-1
 1239 786 l 2,40,41
 1239 802 1239 802 1251.5 814.5 c 128,-1,42
 1264 827 1264 827 1280 827 c 2,43,-1
 1567 827 l 2,44,45
 1612 827 1612 827 1646.5 861 c 128,-1,46
 1681 895 1681 895 1681 942 c 0,47,48
 1681 987 1681 987 1646.5 1022 c 128,-1,49
 1612 1057 1612 1057 1567 1057 c 2,50,-1
 1444 1057 l 2,51,52
 1419 1057 1419 1057 1397 1044 c 2,53,-1
 360 442 l 1,54,-1
 188 442 l 2,55,56
 139 442 139 442 106.5 407.5 c 128,-1,57
 74 373 74 373 74 324 c 0,58,59
 74 279 74 279 108.5 246 c 128,-1,60
 143 213 143 213 188 213 c 2,61,-1
 223 213 l 1,62,21
 223 236 223 236 235.5 247 c 128,-1,22
EndSplineSet
EndChar

StartChar: F.ss03
Encoding: 65575 -1 101
Width: 1753
Flags: W
LayerCount: 2
Back
Fore
SplineSet
334 1026 m 2,1,-1
 336 1038 l 1,2,-1
 403 1294 l 2,3,4
 409 1321 409 1321 432 1333 c 2,5,-1
 498 1368 l 2,6,7
 504 1372 504 1372 510 1372 c 0,8,9
 514 1372 514 1372 514 1368 c 0,10,11
 514 1366 514 1366 504 1331 c 2,12,-1
 451 1139 l 1,13,-1
 981 1446 l 2,14,15
 989 1450 989 1450 995 1450 c 0,16,17
 1009 1450 1009 1450 1020 1432 c 2,18,-1
 1030 1413 l 2,19,20
 1040 1395 1040 1395 1040 1386 c 0,21,22
 1040 1376 1040 1376 1026 1368 c 2,23,-1
 496 1061 l 1,24,-1
 719 1006 l 2,25,26
 729 1004 729 1004 729 997 c 256,27,28
 729 991 729 991 719 985 c 2,29,-1
 655 948 l 2,30,31
 643 942 643 942 631 942 c 0,32,33
 617 942 617 942 610 944 c 2,34,-1
 350 1014 l 2,35,0
 334 1018 334 1018 334 1026 c 2,1,-1
1705 815 m 128,-1,37
 1657 762 1657 762 1583 754 c 1,38,-1
 1583 614 l 1,39,-1
 508 0 l 1,40,-1
 160 0 l 1,41,-1
 160 141 l 1,42,43
 90 151 90 151 45 203.5 c 128,-1,44
 0 256 0 256 0 324 c 0,45,46
 0 402 0 402 53 458 c 128,-1,47
 106 514 106 514 188 514 c 2,48,-1
 340 514 l 1,49,-1
 1362 1110 l 2,50,51
 1393 1128 1393 1128 1415 1128 c 2,52,-1
 1565 1128 l 2,53,54
 1645 1128 1645 1128 1699 1074 c 128,-1,55
 1753 1020 1753 1020 1753 944 c 256,56,36
 1753 868 1753 868 1705 815 c 128,-1,37
235.5 247 m 128,-1,58
 248 258 248 258 264 258 c 2,59,-1
 477 258 l 1,60,-1
 477 350 l 2,61,62
 477 366 477 366 489.5 378.5 c 128,-1,63
 502 391 502 391 518 391 c 2,64,-1
 731 391 l 1,65,-1
 731 498 l 2,66,67
 731 514 731 514 743.5 526.5 c 128,-1,68
 756 539 756 539 772 539 c 2,69,-1
 985 539 l 1,70,-1
 985 641 l 2,71,72
 985 657 985 657 997.5 669.5 c 128,-1,73
 1010 682 1010 682 1026 682 c 2,74,-1
 1239 682 l 1,75,-1
 1239 786 l 2,76,77
 1239 802 1239 802 1251.5 814.5 c 128,-1,78
 1264 827 1264 827 1280 827 c 2,79,-1
 1567 827 l 2,80,81
 1612 827 1612 827 1646.5 861 c 128,-1,82
 1681 895 1681 895 1681 942 c 0,83,84
 1681 987 1681 987 1646.5 1022 c 128,-1,85
 1612 1057 1612 1057 1567 1057 c 2,86,-1
 1444 1057 l 2,87,88
 1419 1057 1419 1057 1397 1044 c 2,89,-1
 360 442 l 1,90,-1
 188 442 l 2,91,92
 139 442 139 442 106.5 407.5 c 128,-1,93
 74 373 74 373 74 324 c 0,94,95
 74 279 74 279 108.5 246 c 128,-1,96
 143 213 143 213 188 213 c 2,97,-1
 223 213 l 1,98,57
 223 236 223 236 235.5 247 c 128,-1,58
EndSplineSet
EndChar

StartChar: G.ss03
Encoding: 65576 -1 102
Width: 1753
Flags: W
LayerCount: 2
Back
Fore
SplineSet
1022 1411 m 256,1,2
 1022 1403 1022 1403 1020 1399 c 2,3,-1
 952 1143 l 2,4,5
 942 1114 942 1114 924 1104 c 2,6,-1
 858 1069 l 2,7,8
 852 1065 852 1065 846 1065 c 0,9,10
 842 1065 842 1065 842 1069 c 0,11,12
 842 1077 842 1077 850 1102 c 2,13,-1
 905 1298 l 1,14,-1
 375 991 l 2,15,16
 367 987 367 987 360 987 c 0,17,18
 344 987 344 987 332 1012 c 2,19,-1
 324 1028 l 2,20,21
 316 1044 316 1044 315 1051 c 0,22,23
 315 1061 315 1061 330 1069 c 2,24,-1
 860 1376 l 1,25,-1
 637 1432 l 2,26,27
 627 1434 627 1434 627 1440 c 0,28,29
 627 1448 627 1448 637 1452 c 2,30,-1
 700 1489 l 2,31,32
 712 1495 712 1495 725 1495 c 0,33,34
 741 1495 741 1495 745 1493 c 2,35,-1
 1006 1423 l 2,36,0
 1022 1419 1022 1419 1022 1411 c 256,1,2
1705 815 m 128,-1,38
 1657 762 1657 762 1583 754 c 1,39,-1
 1583 614 l 1,40,-1
 508 0 l 1,41,-1
 160 0 l 1,42,-1
 160 141 l 1,43,44
 90 151 90 151 45 203.5 c 128,-1,45
 0 256 0 256 0 324 c 0,46,47
 0 402 0 402 53 458 c 128,-1,48
 106 514 106 514 188 514 c 2,49,-1
 340 514 l 1,50,-1
 1362 1110 l 2,51,52
 1393 1128 1393 1128 1415 1128 c 2,53,-1
 1565 1128 l 2,54,55
 1645 1128 1645 1128 1699 1074 c 128,-1,56
 1753 1020 1753 1020 1753 944 c 256,57,37
 1753 868 1753 868 1705 815 c 128,-1,38
235.5 247 m 128,-1,59
 248 258 248 258 264 258 c 2,60,-1
 477 258 l 1,61,-1
 477 350 l 2,62,63
 477 366 477 366 489.5 378.5 c 128,-1,64
 502 391 502 391 518 391 c 2,65,-1
 731 391 l 1,66,-1
 731 498 l 2,67,68
 731 514 731 514 743.5 526.5 c 128,-1,69
 756 539 756 539 772 539 c 2,70,-1
 985 539 l 1,71,-1
 985 641 l 2,72,73
 985 657 985 657 997.5 669.5 c 128,-1,74
 1010 682 1010 682 1026 682 c 2,75,-1
 1239 682 l 1,76,-1
 1239 786 l 2,77,78
 1239 802 1239 802 1251.5 814.5 c 128,-1,79
 1264 827 1264 827 1280 827 c 2,80,-1
 1567 827 l 2,81,82
 1612 827 1612 827 1646.5 861 c 128,-1,83
 1681 895 1681 895 1681 942 c 0,84,85
 1681 987 1681 987 1646.5 1022 c 128,-1,86
 1612 1057 1612 1057 1567 1057 c 2,87,-1
 1444 1057 l 2,88,89
 1419 1057 1419 1057 1397 1044 c 2,90,-1
 360 442 l 1,91,-1
 188 442 l 2,92,93
 139 442 139 442 106.5 407.5 c 128,-1,94
 74 373 74 373 74 324 c 0,95,96
 74 279 74 279 108.5 246 c 128,-1,97
 143 213 143 213 188 213 c 2,98,-1
 223 213 l 1,99,58
 223 236 223 236 235.5 247 c 128,-1,59
EndSplineSet
EndChar

StartChar: A.ss04
Encoding: 65577 -1 103
Width: 1673
Flags: W
LayerCount: 2
Back
Fore
SplineSet
1192 1071 m 2,0,1
 1071 1071 1071 1071 990 1028 c 128,-1,2
 909 985 909 985 836 911 c 1,3,4
 744 1003 744 1003 671 1037 c 128,-1,5
 598 1071 598 1071 479 1071 c 2,6,-1
 184 1071 l 2,7,8
 149 1071 149 1071 136 1064 c 128,-1,9
 123 1057 123 1057 123 1036 c 2,10,-1
 123 94 l 2,11,12
 123 76 123 76 136.5 68.5 c 128,-1,13
 150 61 150 61 184 61 c 2,14,-1
 559 61 l 2,15,16
 723 61 723 61 778 -18 c 1,17,-1
 897 -18 l 1,18,19
 946 62 946 62 1114 61 c 2,20,-1
 1489 61 l 2,21,22
 1524 61 1524 61 1537 68.5 c 128,-1,23
 1550 76 1550 76 1550 94 c 2,24,-1
 1550 1036 l 2,25,26
 1550 1056 1550 1056 1537 1063.5 c 128,-1,27
 1524 1071 1524 1071 1489 1071 c 2,28,-1
 1192 1071 l 2,0,1
681 186.5 m 128,-1,30
 629 199 629 199 559 199 c 2,31,-1
 281 199 l 1,32,-1
 281 911 l 1,33,-1
 500 911 l 2,34,35
 621 911 621 911 688.5 843.5 c 128,-1,36
 756 776 756 776 756 653 c 2,37,-1
 756 160 l 1,38,29
 733 174 733 174 681 186.5 c 128,-1,30
1391 199 m 1,39,-1
 1114 199 l 2,40,41
 1044 199 1044 199 991 186.5 c 128,-1,42
 938 174 938 174 915 160 c 1,43,-1
 915 653 l 2,44,45
 915 778 915 778 986 844.5 c 128,-1,46
 1057 911 1057 911 1174 911 c 2,47,-1
 1391 911 l 1,48,-1
 1391 199 l 1,39,-1
EndSplineSet
EndChar

StartChar: B.ss04
Encoding: 65578 -1 104
Width: 1632
Flags: W
LayerCount: 2
Back
Fore
SplineSet
115.5 1064 m 128,-1,1
 129 1071 129 1071 164 1071 c 2,2,-1
 1468 1071 l 2,3,4
 1503 1071 1503 1071 1516.5 1064 c 128,-1,5
 1530 1057 1530 1057 1530 1038 c 2,6,-1
 1530 33 l 2,7,8
 1530 15 1530 15 1516.5 7.5 c 128,-1,9
 1503 0 1503 0 1468 0 c 2,10,-1
 164 0 l 2,11,12
 129 0 129 0 115.5 7 c 128,-1,13
 102 14 102 14 102 33 c 2,14,-1
 102 1038 l 2,15,0
 102 1057 102 1057 115.5 1064 c 128,-1,1
301 928 m 1,16,-1
 330 915 l 1,17,-1
 815 535 l 1,18,-1
 1303 915 l 1,19,-1
 1331 928 l 1,20,-1
 301 928 l 1,16,-1
1378 791 m 1,21,-1
 1352 766 l 1,22,-1
 913 432 l 2,23,24
 893 416 893 416 875.5 409.5 c 128,-1,25
 858 403 858 403 834 403 c 2,26,-1
 801 403 l 2,27,28
 778 403 778 403 761.5 409.5 c 128,-1,29
 745 416 745 416 723 432 c 2,30,-1
 281 766 l 1,31,-1
 254 791 l 1,32,-1
 254 137 l 1,33,-1
 1378 137 l 1,34,-1
 1378 791 l 1,21,-1
EndSplineSet
EndChar

StartChar: C.ss04
Encoding: 65579 -1 105
Width: 1333
Flags: W
LayerCount: 2
Back
Fore
SplineSet
1217.5 7 m 128,-1,1
 1204 0 1204 0 1169 0 c 2,2,-1
 182 0 l 2,3,4
 147 0 147 0 134 7 c 128,-1,5
 121 14 121 14 121 33 c 2,6,-1
 121 674 l 2,7,8
 121 690 121 690 137.5 702.5 c 128,-1,9
 154 715 154 715 182 715 c 2,10,-1
 201 715 l 1,11,12
 166 740 166 740 146.5 783.5 c 128,-1,13
 127 827 127 827 127 877 c 0,14,15
 127 961 127 961 183.5 1020 c 128,-1,16
 240 1079 240 1079 332 1079 c 0,17,18
 441 1079 441 1079 498 991 c 2,19,-1
 676 733 l 1,20,-1
 854 991 l 2,21,22
 911 1079 911 1079 1018 1079 c 0,23,24
 1108 1079 1108 1079 1167.5 1021 c 128,-1,25
 1227 963 1227 963 1227 881 c 0,26,27
 1227 832 1227 832 1207.5 786.5 c 128,-1,28
 1188 741 1188 741 1153 715 c 1,29,-1
 1171 715 l 2,30,31
 1200 715 1200 715 1215.5 702.5 c 128,-1,32
 1231 690 1231 690 1231 674 c 2,33,-1
 1231 33 l 2,34,0
 1231 14 1231 14 1217.5 7 c 128,-1,1
438 952 m 2,35,36
 399 1011 399 1011 330 1012 c 0,37,38
 279 1012 279 1012 242 976 c 128,-1,39
 205 940 205 940 205 887 c 0,40,41
 205 821 205 821 257 768 c 128,-1,42
 309 715 309 715 418 715 c 2,43,-1
 596 715 l 1,44,-1
 438 952 l 2,35,36
1096.5 769 m 128,-1,46
 1149 823 1149 823 1149 891 c 0,47,48
 1149 944 1149 944 1110 978 c 128,-1,49
 1071 1012 1071 1012 1022 1012 c 0,50,51
 993 1012 993 1012 963.5 997.5 c 128,-1,52
 934 983 934 983 913 952 c 2,53,-1
 756 715 l 1,54,-1
 934 715 l 2,55,45
 1044 715 1044 715 1096.5 769 c 128,-1,46
279 397 m 1,56,-1
 637 397 l 1,57,-1
 637 575 l 1,58,-1
 279 575 l 1,59,-1
 279 397 l 1,56,-1
715 397 m 1,60,-1
 1073 397 l 1,61,-1
 1073 575 l 1,62,-1
 715 575 l 1,63,-1
 715 397 l 1,60,-1
279 139 m 1,64,-1
 637 139 l 1,65,-1
 637 319 l 1,66,-1
 279 319 l 1,67,-1
 279 139 l 1,64,-1
1073 319 m 1,68,-1
 715 319 l 1,69,-1
 715 139 l 1,70,-1
 1073 139 l 1,71,-1
 1073 319 l 1,68,-1
EndSplineSet
EndChar

StartChar: D.ss04
Encoding: 65580 -1 106
Width: 1640
Flags: W
LayerCount: 2
Back
Fore
SplineSet
1300 1731 m 1,0,-1
 1241 1671 l 1,1,-1
 1221 1671 l 1,2,-1
 1184 1710 l 1,3,-1
 1184 1710 l 1,4,-1
 1145 1671 l 1,5,-1
 1124 1671 l 1,6,-1
 1085 1710 l 1,7,-1
 1085 1710 l 1,8,-1
 1044 1671 l 1,9,-1
 829 1671 l 1,10,11
 829 1628 829 1628 808.5 1601.5 c 128,-1,12
 788 1575 788 1575 752 1573 c 2,13,-1
 496 1554 l 2,14,15
 451 1554 451 1554 428.5 1568.5 c 128,-1,16
 406 1583 406 1583 395 1612 c 0,17,18
 377 1661 377 1661 377 1731 c 0,19,20
 377 1799 377 1799 395 1847 c 0,21,22
 405 1876 405 1876 429 1891.5 c 128,-1,23
 453 1907 453 1907 496 1907 c 2,24,-1
 752 1886 l 2,25,26
 830 1880 830 1880 829 1808 c 1,27,-1
 1221 1808 l 2,28,29
 1246 1808 1246 1808 1262 1790 c 2,30,-1
 1300 1749 l 1,31,-1
 1300 1731 l 1,0,-1
551 1815.5 m 128,-1,33
 549 1821 549 1821 535 1821 c 2,34,-1
 496 1821 l 2,35,36
 482 1821 482 1821 478.5 1815.5 c 128,-1,37
 475 1810 475 1810 475 1782 c 2,38,-1
 475 1681 l 2,39,40
 475 1652 475 1652 478 1647 c 128,-1,41
 481 1642 481 1642 496 1642 c 2,42,-1
 535 1642 l 2,43,44
 549 1642 549 1642 551 1647.5 c 128,-1,45
 553 1653 553 1653 553 1681 c 2,46,-1
 553 1782 l 2,47,32
 553 1810 553 1810 551 1815.5 c 128,-1,33
115.5 1426.5 m 128,-1,49
 129 1434 129 1434 164 1434 c 2,50,-1
 1477 1434 l 2,51,52
 1512 1434 1512 1434 1525 1426.5 c 128,-1,53
 1538 1419 1538 1419 1538 1401 c 2,54,-1
 1538 33 l 2,55,56
 1538 15 1538 15 1524.5 7.5 c 128,-1,57
 1511 0 1511 0 1477 0 c 2,58,-1
 164 0 l 2,59,60
 129 0 129 0 115.5 7 c 128,-1,61
 102 14 102 14 102 33 c 2,62,-1
 102 1401 l 2,63,48
 102 1419 102 1419 115.5 1426.5 c 128,-1,49
1380 1278 m 1,64,-1
 260 1278 l 1,65,-1
 260 137 l 1,66,-1
 1380 137 l 1,67,-1
 1380 1278 l 1,64,-1
1221 236 m 2,69,-1
 416 236 l 2,70,71
 357 236 357 236 356 295 c 0,72,73
 356 334 356 334 369 592 c 0,74,75
 371 631 371 631 377 758 c 0,76,77
 379 813 379 813 424 854 c 128,-1,78
 469 895 469 895 516 895 c 2,79,-1
 672 895 l 1,80,-1
 672 1032 l 2,81,82
 672 1052 672 1052 675 1061.5 c 128,-1,83
 678 1071 678 1071 692 1071 c 2,84,-1
 948 1071 l 2,85,86
 962 1071 962 1071 965.5 1062 c 128,-1,87
 969 1053 969 1053 969 1032 c 2,88,-1
 969 895 l 1,89,-1
 1124 895 l 2,90,91
 1171 895 1171 895 1215.5 854 c 128,-1,92
 1260 813 1260 813 1262 758 c 0,93,94
 1268 631 1268 631 1270 592 c 0,95,96
 1282 334 1282 334 1282 295 c 0,97,68
 1282 236 1282 236 1221 236 c 2,69,-1
889 999 m 1,98,-1
 752 999 l 1,99,-1
 752 895 l 1,100,-1
 889 895 l 1,101,-1
 889 999 l 1,98,-1
EndSplineSet
EndChar

StartChar: E.ss04
Encoding: 65581 -1 107
Width: 1130
Flags: W
LayerCount: 2
Back
Fore
SplineSet
276 1163 m 1,0,-1
 383 1163 l 2,1,2
 416 1163 416 1163 431 1155 c 128,-1,3
 446 1147 446 1147 446 1128 c 0,4,5
 421 954 421 954 365 581.5 c 128,-1,6
 309 209 309 209 283 29 c 0,7,8
 279 13 279 13 273.5 6.5 c 128,-1,9
 268 0 268 0 254 0 c 2,10,-1
 231 0 l 2,11,12
 217 0 217 0 211 6 c 128,-1,13
 205 12 205 12 201 29 c 0,14,15
 174 209 174 209 120 581.5 c 128,-1,16
 66 954 66 954 41 1128 c 0,17,18
 41 1146 41 1146 54.5 1154.5 c 128,-1,19
 68 1163 68 1163 104 1163 c 2,20,-1
 205 1163 l 1,21,-1
 205 1432 l 2,22,23
 205 1483 205 1483 242 1519.5 c 128,-1,24
 279 1556 279 1556 330 1556 c 0,25,26
 383 1556 383 1556 419 1520.5 c 128,-1,27
 455 1485 455 1485 455 1432 c 0,28,29
 455 1418 455 1418 445.5 1411.5 c 128,-1,30
 436 1405 436 1405 418 1405 c 0,31,32
 398 1405 398 1405 390.5 1411 c 128,-1,33
 383 1417 383 1417 383 1432 c 0,34,35
 383 1455 383 1455 367.5 1471 c 128,-1,36
 352 1487 352 1487 330 1487 c 0,37,38
 310 1487 310 1487 293 1470.5 c 128,-1,39
 276 1454 276 1454 276 1432 c 2,40,-1
 276 1163 l 1,0,-1
768 1006.5 m 128,-1,42
 778 999 778 999 803 999 c 2,43,-1
 854 999 l 2,44,45
 895 999 895 999 895 1040 c 0,46,47
 895 1079 895 1079 911.5 1104.5 c 128,-1,48
 928 1130 928 1130 983 1176 c 0,49,50
 1044 1227 1044 1227 1073 1268 c 128,-1,51
 1102 1309 1102 1309 1102 1370 c 0,52,53
 1102 1460 1102 1460 1039.5 1508 c 128,-1,54
 977 1556 977 1556 872 1556 c 0,55,56
 796 1556 796 1556 737 1536 c 0,57,58
 702 1524 702 1524 668.5 1500.5 c 128,-1,59
 635 1477 635 1477 635 1456 c 0,60,61
 635 1438 635 1438 657 1403 c 0,62,63
 682 1370 682 1370 700 1370 c 0,64,65
 704 1370 704 1370 737 1386 c 0,66,67
 745 1390 745 1390 755.5 1395.5 c 128,-1,68
 766 1401 766 1401 778 1405 c 0,69,70
 821 1421 821 1421 860 1421 c 0,71,72
 938 1421 938 1421 938 1360 c 0,73,74
 938 1321 938 1321 854 1237 c 0,75,76
 805 1186 805 1186 781.5 1139 c 128,-1,77
 758 1092 758 1092 758 1030 c 0,78,41
 758 1014 758 1014 768 1006.5 c 128,-1,42
805 764 m 2,80,-1
 838 764 l 2,81,82
 901 764 901 764 901 799 c 2,83,-1
 901 895 l 2,84,85
 901 930 901 930 838 930 c 2,86,-1
 805 930 l 2,87,88
 742 930 742 930 741 895 c 2,89,-1
 741 799 l 2,90,79
 742 764 742 764 805 764 c 2,80,-1
596 647 m 2,91,92
 596 659 596 659 603 669.5 c 128,-1,93
 610 680 610 680 625 680 c 2,94,-1
 870 680 l 2,95,96
 884 680 884 680 892.5 668.5 c 128,-1,97
 901 657 901 657 901 647 c 2,98,-1
 901 506 l 1,99,-1
 940 506 l 2,100,101
 991 506 991 506 1033 469 c 128,-1,102
 1075 432 1075 432 1083 373 c 0,103,104
 1087 353 1087 353 1092 315 c 0,105,106
 1131 57 1131 57 1130 51 c 0,107,108
 1130 31 1130 31 1118 15.5 c 128,-1,109
 1106 0 1106 0 1071 0 c 2,110,-1
 424 0 l 2,111,112
 389 0 389 0 377 15.5 c 128,-1,113
 365 31 365 31 365 51 c 0,114,115
 365 57 365 57 403 315 c 0,116,117
 407 352 407 352 412 373 c 0,118,119
 420 432 420 432 462 469 c 128,-1,120
 504 506 504 506 555 506 c 2,121,-1
 596 506 l 1,122,-1
 596 647 l 2,91,92
821 610 m 1,123,-1
 674 610 l 1,124,-1
 674 506 l 1,125,-1
 821 506 l 1,126,-1
 821 610 l 1,123,-1
EndSplineSet
EndChar

StartChar: F.ss04
Encoding: 65582 -1 108
Width: 1171
Flags: W
LayerCount: 2
Back
Fore
SplineSet
1090 39 m 2,0,1
 1090 25 1090 25 1074.5 12.5 c 128,-1,2
 1059 0 1059 0 1032 0 c 2,3,-1
 70 0 l 2,4,5
 31 0 31 0 15.5 5 c 128,-1,6
 0 10 0 10 0 27 c 2,7,-1
 0 80 l 2,8,9
 0 121 0 121 47 146.5 c 128,-1,10
 94 172 94 172 156 172 c 2,11,-1
 682 172 l 1,12,-1
 682 350 l 1,13,-1
 221 350 l 2,14,15
 205 350 205 350 192.5 367.5 c 128,-1,16
 180 385 180 385 180 416 c 2,17,-1
 180 459 l 2,18,19
 180 492 180 492 192.5 508 c 128,-1,20
 205 524 205 524 221 524 c 2,21,-1
 811 524 l 1,22,-1
 811 844 l 1,23,-1
 584 967 l 1,24,-1
 526 799 l 2,25,26
 512 758 512 758 453 758 c 1,27,-1
 399 680 l 2,28,29
 385 660 385 660 360 659 c 0,30,31
 340 659 340 659 328.5 672.5 c 128,-1,32
 317 686 317 686 317 700 c 0,33,34
 317 712 317 712 330 799 c 1,35,36
 318 809 318 809 310.5 822.5 c 128,-1,37
 303 836 303 836 303 846 c 0,38,39
 303 854 303 854 309 870 c 2,40,-1
 487 1391 l 2,41,42
 491 1403 491 1403 501.5 1411 c 128,-1,43
 512 1419 512 1419 524 1419 c 0,44,45
 544 1419 544 1419 563 1411 c 1,46,-1
 592 1487 l 2,47,48
 604 1516 604 1516 637 1516 c 0,49,50
 657 1516 657 1516 674.5 1501.5 c 128,-1,51
 692 1487 692 1487 692 1468 c 0,52,53
 692 1466 692 1466 688 1450 c 2,54,-1
 659 1372 l 1,55,56
 702 1354 702 1354 702 1331 c 0,57,58
 702 1315 702 1315 696 1298 c 2,59,-1
 639 1124 l 1,60,-1
 934 954 l 2,61,62
 1090 858 1090 858 1090 662 c 2,63,-1
 1090 39 l 2,0,1
932.5 204.5 m 128,-1,65
 954 225 954 225 954 254 c 0,66,67
 954 285 954 285 932.5 306.5 c 128,-1,68
 911 328 911 328 883 328 c 0,69,70
 852 328 852 328 831.5 306.5 c 128,-1,71
 811 285 811 285 811 254 c 0,72,73
 811 225 811 225 831.5 204.5 c 128,-1,74
 852 184 852 184 883 184 c 0,75,64
 911 184 911 184 932.5 204.5 c 128,-1,65
EndSplineSet
EndChar

StartChar: G.ss04
Encoding: 65583 -1 109
Width: 1165
Flags: W
LayerCount: 2
Back
Fore
SplineSet
420 356 m 1,0,-1
 420 59 l 2,1,2
 420 26 420 26 440.5 13 c 128,-1,3
 461 0 461 0 520 0 c 2,4,-1
 672 0 l 2,5,6
 731 0 731 0 750.5 13.5 c 128,-1,7
 770 27 770 27 770 59 c 2,8,-1
 770 356 l 1,9,-1
 1083 356 l 2,10,11
 1114 356 1114 356 1129.5 384 c 128,-1,12
 1145 412 1145 412 1145 471 c 2,13,-1
 1145 588 l 2,14,15
 1145 709 1145 709 1083 709 c 2,16,-1
 770 709 l 1,17,-1
 770 1012 l 2,18,19
 770 1043 770 1043 749.5 1057 c 128,-1,20
 729 1071 729 1071 672 1071 c 2,21,-1
 520 1071 l 2,22,23
 459 1071 459 1071 439.5 1057.5 c 128,-1,24
 420 1044 420 1044 420 1012 c 2,25,-1
 420 709 l 1,26,-1
 106 709 l 2,27,28
 75 709 75 709 62 680 c 128,-1,29
 49 651 49 651 49 588 c 2,30,-1
 49 471 l 2,31,32
 49 410 49 410 62.5 383 c 128,-1,33
 76 356 76 356 106 356 c 2,34,-1
 420 356 l 1,0,-1
EndSplineSet
EndChar

StartChar: H.ss04
Encoding: 65584 -1 110
Width: 720
Flags: W
LayerCount: 2
Back
Fore
SplineSet
469 1454 m 2,0,1
 438 1452 438 1452 422 1431.5 c 128,-1,2
 406 1411 406 1411 406 1393 c 2,3,-1
 406 518 l 2,4,5
 406 500 406 500 422 479.5 c 128,-1,6
 438 459 438 459 469 457 c 2,7,-1
 528 455 l 2,8,9
 559 453 559 453 571.5 441.5 c 128,-1,10
 584 430 584 430 588 406 c 0,11,12
 619 142 619 142 618 37 c 0,13,14
 618 17 618 17 605 8.5 c 128,-1,15
 592 0 592 0 559 0 c 2,16,-1
 481 0 l 2,17,18
 405 0 405 0 343 24.5 c 128,-1,19
 281 49 281 49 248 96 c 0,20,21
 191 178 191 178 146.5 435 c 128,-1,22
 102 692 102 692 102 877 c 2,23,-1
 102 1036 l 2,24,25
 102 1220 102 1220 145 1475.5 c 128,-1,26
 188 1731 188 1731 248 1815 c 0,27,28
 281 1862 281 1862 343.5 1886.5 c 128,-1,29
 406 1911 406 1911 481 1911 c 2,30,-1
 559 1911 l 2,31,32
 592 1911 592 1911 605 1902.5 c 128,-1,33
 618 1894 618 1894 618 1874 c 0,34,35
 618 1770 618 1770 588 1505 c 0,36,37
 584 1480 584 1480 571.5 1469 c 128,-1,38
 559 1458 559 1458 528 1456 c 2,39,-1
 469 1454 l 2,0,1
EndSplineSet
EndChar

StartChar: I.ss04
Encoding: 65585 -1 111
Width: 1185
Flags: W
LayerCount: 2
Back
Fore
SplineSet
927 1621 m 128,-1,1
 918 1632 918 1632 901 1632 c 2,2,-1
 793 1632 l 2,3,4
 777 1632 777 1632 767.5 1621 c 128,-1,5
 758 1610 758 1610 758 1595 c 2,6,-1
 758 1554 l 1,7,-1
 180 1554 l 2,8,9
 102 1554 102 1554 102 1505 c 2,10,-1
 102 68 l 2,11,12
 102 37 102 37 119.5 22.5 c 128,-1,13
 137 8 137 8 180 8 c 2,14,-1
 1034 8 l 2,15,16
 1093 8 1093 8 1094 68 c 2,17,-1
 1094 1505 l 2,18,19
 1094 1528 1094 1528 1074.5 1541 c 128,-1,20
 1055 1554 1055 1554 1014 1554 c 2,21,-1
 936 1554 l 1,22,-1
 936 1595 l 2,23,0
 936 1610 936 1610 927 1621 c 128,-1,1
262 662 m 1,24,-1
 262 1395 l 1,25,-1
 936 1395 l 1,26,-1
 936 662 l 1,27,-1
 262 662 l 1,24,-1
432 536.5 m 128,-1,29
 440 532 440 532 440 520 c 2,30,-1
 440 481 l 2,31,32
 440 469 440 469 432 465 c 128,-1,33
 424 461 424 461 406 461 c 2,34,-1
 297 461 l 2,35,36
 279 461 279 461 270.5 465 c 128,-1,37
 262 469 262 469 262 481 c 2,38,-1
 262 520 l 2,39,40
 262 532 262 532 270.5 536.5 c 128,-1,41
 279 541 279 541 297 541 c 2,42,-1
 406 541 l 2,43,28
 424 541 424 541 432 536.5 c 128,-1,29
680 536.5 m 128,-1,45
 688 532 688 532 688 520 c 2,46,-1
 688 481 l 2,47,48
 688 469 688 469 680 465 c 128,-1,49
 672 461 672 461 653 461 c 2,50,-1
 545 461 l 2,51,52
 527 461 527 461 518.5 465 c 128,-1,53
 510 469 510 469 510 481 c 2,54,-1
 510 520 l 2,55,56
 510 532 510 532 518 536.5 c 128,-1,57
 526 541 526 541 545 541 c 2,58,-1
 653 541 l 2,59,44
 672 541 672 541 680 536.5 c 128,-1,45
928 536.5 m 128,-1,61
 936 532 936 532 936 520 c 2,62,-1
 936 481 l 2,63,64
 936 469 936 469 928 465 c 128,-1,65
 920 461 920 461 901 461 c 2,66,-1
 793 461 l 2,67,68
 775 461 775 461 766.5 465 c 128,-1,69
 758 469 758 469 758 481 c 2,70,-1
 758 520 l 2,71,72
 758 532 758 532 766 536.5 c 128,-1,73
 774 541 774 541 793 541 c 2,74,-1
 901 541 l 2,75,60
 920 541 920 541 928 536.5 c 128,-1,61
432 379 m 128,-1,77
 440 375 440 375 440 362 c 2,78,-1
 440 324 l 2,79,80
 440 312 440 312 432 307.5 c 128,-1,81
 424 303 424 303 406 303 c 2,82,-1
 297 303 l 2,83,84
 279 303 279 303 270.5 307 c 128,-1,85
 262 311 262 311 262 324 c 2,86,-1
 262 362 l 2,87,88
 262 374 262 374 270.5 378.5 c 128,-1,89
 279 383 279 383 297 383 c 2,90,-1
 406 383 l 2,91,76
 424 383 424 383 432 379 c 128,-1,77
680 379 m 128,-1,93
 688 375 688 375 688 362 c 2,94,-1
 688 324 l 2,95,96
 688 312 688 312 680 307.5 c 128,-1,97
 672 303 672 303 653 303 c 2,98,-1
 545 303 l 2,99,100
 527 303 527 303 518.5 307 c 128,-1,101
 510 311 510 311 510 324 c 2,102,-1
 510 362 l 2,103,104
 510 374 510 374 518 378.5 c 128,-1,105
 526 383 526 383 545 383 c 2,106,-1
 653 383 l 2,107,92
 672 383 672 383 680 379 c 128,-1,93
928 379 m 128,-1,109
 936 375 936 375 936 362 c 2,110,-1
 936 324 l 2,111,112
 936 312 936 312 928 307.5 c 128,-1,113
 920 303 920 303 901 303 c 2,114,-1
 793 303 l 2,115,116
 775 303 775 303 766.5 307 c 128,-1,117
 758 311 758 311 758 324 c 2,118,-1
 758 362 l 2,119,120
 758 374 758 374 766 378.5 c 128,-1,121
 774 383 774 383 793 383 c 2,122,-1
 901 383 l 2,123,108
 920 383 920 383 928 379 c 128,-1,109
432 221 m 128,-1,125
 440 217 440 217 440 205 c 2,126,-1
 440 166 l 2,127,128
 440 154 440 154 432 149.5 c 128,-1,129
 424 145 424 145 406 145 c 2,130,-1
 297 145 l 2,131,132
 279 145 279 145 270.5 149.5 c 128,-1,133
 262 154 262 154 262 166 c 2,134,-1
 262 205 l 2,135,136
 262 217 262 217 270.5 221 c 128,-1,137
 279 225 279 225 297 225 c 2,138,-1
 406 225 l 2,139,124
 424 225 424 225 432 221 c 128,-1,125
680 221 m 128,-1,141
 688 217 688 217 688 205 c 2,142,-1
 688 166 l 2,143,144
 688 154 688 154 680 149.5 c 128,-1,145
 672 145 672 145 653 145 c 2,146,-1
 545 145 l 2,147,148
 527 145 527 145 518.5 149.5 c 128,-1,149
 510 154 510 154 510 166 c 2,150,-1
 510 205 l 2,151,152
 510 217 510 217 518 221 c 128,-1,153
 526 225 526 225 545 225 c 2,154,-1
 653 225 l 2,155,140
 672 225 672 225 680 221 c 128,-1,141
928 221 m 128,-1,157
 936 217 936 217 936 205 c 2,158,-1
 936 166 l 2,159,160
 936 154 936 154 928 149.5 c 128,-1,161
 920 145 920 145 901 145 c 2,162,-1
 793 145 l 2,163,164
 775 145 775 145 766.5 149.5 c 128,-1,165
 758 154 758 154 758 166 c 2,166,-1
 758 205 l 2,167,168
 758 217 758 217 766 221 c 128,-1,169
 774 225 774 225 793 225 c 2,170,-1
 901 225 l 2,171,156
 920 225 920 225 928 221 c 128,-1,157
EndSplineSet
EndChar

StartChar: J.ss04
Encoding: 65586 -1 112
Width: 1196
Flags: W
LayerCount: 2
Back
Fore
SplineSet
102 1505 m 2,1,-1
 102 68 l 2,2,3
 102 37 102 37 119.5 22.5 c 128,-1,4
 137 8 137 8 180 8 c 2,5,-1
 1034 8 l 2,6,7
 1093 8 1093 8 1094 68 c 2,8,-1
 1094 1505 l 2,9,10
 1094 1528 1094 1528 1074.5 1541 c 128,-1,11
 1055 1554 1055 1554 1014 1554 c 2,12,-1
 180 1554 l 2,13,0
 102 1554 102 1554 102 1505 c 2,1,-1
262 383 m 1,14,-1
 262 1393 l 1,15,-1
 936 1393 l 1,16,-1
 936 383 l 1,17,-1
 262 383 l 1,14,-1
554 144.5 m 128,-1,19
 537 162 537 162 537 186 c 256,20,21
 537 211 537 211 554 228.5 c 128,-1,22
 571 246 571 246 596 246 c 256,23,24
 621 246 621 246 638 228.5 c 128,-1,25
 655 211 655 211 655 186 c 256,26,27
 655 161 655 161 638 144 c 128,-1,28
 621 127 621 127 596 127 c 256,29,18
 571 127 571 127 554 144.5 c 128,-1,19
EndSplineSet
EndChar

StartChar: K.ss04
Encoding: 65587 -1 113
Width: 1507
Flags: W
LayerCount: 2
Back
Fore
SplineSet
1053 201 m 128,-1,1
 1057 205 1057 205 1057 217 c 2,2,-1
 1057 238 l 2,3,4
 1057 250 1057 250 1053 254 c 128,-1,5
 1049 258 1049 258 1038 258 c 2,6,-1
 891 258 l 1,7,-1
 891 397 l 1,8,-1
 1409 397 l 2,9,10
 1448 397 1448 397 1457 406.5 c 128,-1,11
 1466 416 1466 416 1466 436 c 2,12,-1
 1466 1489 l 2,13,14
 1466 1548 1466 1548 1409 1548 c 2,15,-1
 98 1548 l 2,16,17
 41 1548 41 1548 41 1489 c 2,18,-1
 41 436 l 2,19,20
 41 420 41 420 55.5 408.5 c 128,-1,21
 70 397 70 397 98 397 c 2,22,-1
 633 397 l 1,23,-1
 633 258 l 1,24,-1
 485 258 l 2,25,26
 475 258 475 258 471 254 c 128,-1,27
 467 250 467 250 467 238 c 2,28,-1
 467 217 l 2,29,30
 467 205 467 205 471 201 c 128,-1,31
 475 197 475 197 485 197 c 2,32,-1
 1038 197 l 2,33,0
 1049 197 1049 197 1053 201 c 128,-1,1
199 537 m 1,34,-1
 199 1389 l 1,35,-1
 1309 1389 l 1,36,-1
 1309 537 l 1,37,-1
 199 537 l 1,34,-1
1225 0 m 2,38,39
 1188 0 1188 0 1171.5 5 c 128,-1,40
 1155 10 1155 10 1155 27 c 2,41,-1
 1155 66 l 2,42,43
 1155 107 1155 107 1202 132.5 c 128,-1,44
 1249 158 1249 158 1311 158 c 0,45,46
 1374 158 1374 158 1420 131 c 128,-1,47
 1466 104 1466 104 1466 66 c 2,48,-1
 1466 27 l 2,49,50
 1466 11 1466 11 1451 5.5 c 128,-1,51
 1436 0 1436 0 1397 0 c 2,52,-1
 1225 0 l 2,38,39
1072 123 m 128,-1,54
 1081 111 1081 111 1081 86 c 2,55,-1
 1081 51 l 2,56,57
 1081 26 1081 26 1072 13 c 128,-1,58
 1063 0 1063 0 1051 0 c 2,59,-1
 72 0 l 2,60,61
 60 0 60 0 50.5 12.5 c 128,-1,62
 41 25 41 25 41 49 c 2,63,-1
 41 86 l 2,64,65
 41 111 41 111 50 123 c 128,-1,66
 59 135 59 135 72 135 c 2,67,-1
 1051 135 l 2,68,53
 1063 135 1063 135 1072 123 c 128,-1,54
EndSplineSet
EndChar

StartChar: L.ss04
Encoding: 65588 -1 114
Width: 937
Flags: W
LayerCount: 2
Back
Fore
SplineSet
317 1430 m 1,0,-1
 317 1905 l 2,1,2
 317 1925 317 1925 285 1925 c 0,3,4
 250 1925 250 1925 250 1905 c 2,5,-1
 250 1430 l 1,6,-1
 203 1430 l 1,7,-1
 203 1905 l 2,8,9
 203 1925 203 1925 170 1925 c 0,10,11
 156 1925 156 1925 146.5 1919 c 128,-1,12
 137 1913 137 1913 137 1905 c 2,13,-1
 137 1430 l 1,14,-1
 94 1430 l 1,15,-1
 94 1905 l 2,16,17
 94 1925 94 1925 61 1925 c 256,18,19
 28 1925 28 1925 29 1905 c 2,20,-1
 14 1341 l 2,21,22
 14 1298 14 1298 40 1252 c 128,-1,23
 66 1206 66 1206 100 1171 c 0,24,25
 161 1110 161 1110 162 1071 c 2,26,-1
 141 41 l 2,27,28
 141 21 141 21 160.5 10.5 c 128,-1,29
 180 0 180 0 211 0 c 2,30,-1
 246 0 l 2,31,32
 279 0 279 0 299 11.5 c 128,-1,33
 319 23 319 23 319 41 c 2,34,-1
 299 1071 l 2,35,36
 299 1116 299 1116 358 1171 c 0,37,38
 393 1204 393 1204 418.5 1250 c 128,-1,39
 444 1296 444 1296 444 1341 c 2,40,-1
 428 1905 l 2,41,42
 428 1925 428 1925 395 1925 c 256,43,44
 362 1925 362 1925 362 1905 c 2,45,-1
 362 1430 l 1,46,-1
 317 1430 l 1,0,-1
656.5 10 m 128,-1,48
 676 0 676 0 707 0 c 2,49,-1
 741 0 l 2,50,51
 774 0 774 0 794.5 11.5 c 128,-1,52
 815 23 815 23 815 41 c 2,53,-1
 815 1866 l 2,54,55
 815 1901 815 1901 804 1913 c 128,-1,56
 793 1925 793 1925 758 1925 c 0,57,58
 711 1925 711 1925 666 1882 c 128,-1,59
 621 1839 621 1839 592 1762.5 c 128,-1,60
 563 1686 563 1686 563 1589 c 2,61,-1
 563 879 l 2,62,63
 563 813 563 813 637 813 c 2,64,-1
 657 813 l 1,65,-1
 637 41 l 2,66,47
 637 20 637 20 656.5 10 c 128,-1,48
EndSplineSet
EndChar

StartChar: M.ss04
Encoding: 65589 -1 115
Width: 1474
Flags: W
LayerCount: 2
Back
Fore
SplineSet
73.5 25.5 m 128,-1,1
 0 51 0 51 0 76 c 2,2,-1
 0 106 l 2,3,4
 0 120 0 120 17.5 127.5 c 128,-1,5
 35 135 35 135 78 135 c 2,6,-1
 428 135 l 1,7,8
 371 149 371 149 335 202.5 c 128,-1,9
 299 256 299 256 289 332 c 2,10,-1
 213 985 l 1,11,-1
 211 1026 l 2,12,13
 211 1042 211 1042 227.5 1056.5 c 128,-1,14
 244 1071 244 1071 270 1071 c 2,15,-1
 1325 1071 l 2,16,17
 1370 1071 1370 1071 1386.5 1051.5 c 128,-1,18
 1403 1032 1403 1032 1403 975 c 0,19,20
 1403 957 1403 957 1395 842 c 0,21,22
 1395 809 1395 809 1391 760 c 0,23,24
 1387 719 1387 719 1374.5 693.5 c 128,-1,25
 1362 668 1362 668 1331 643 c 2,26,-1
 1071 428 l 1,27,-1
 1059 332 l 2,28,29
 1049 258 1049 258 1013 205 c 128,-1,30
 977 152 977 152 932 135 c 1,31,-1
 1335 135 l 2,32,33
 1378 135 1378 135 1395.5 128 c 128,-1,34
 1413 121 1413 121 1413 106 c 2,35,-1
 1413 76 l 2,36,37
 1413 47 1413 47 1351.5 23.5 c 128,-1,38
 1290 0 1290 0 1219 0 c 2,39,-1
 195 0 l 2,40,0
 147 0 147 0 73.5 25.5 c 128,-1,1
1268 735 m 1,41,-1
 1280 956 l 1,42,-1
 1128 956 l 1,43,-1
 1090 598 l 1,44,-1
 1268 735 l 1,41,-1
EndSplineSet
EndChar

StartChar: O.ss04
Encoding: 65590 -1 116
Width: 1480
Flags: W
LayerCount: 2
Back
Fore
SplineSet
707 696 m 1,0,-1
 707 762 l 1,1,2
 654 774 654 774 620 815 c 128,-1,3
 586 856 586 856 586 922 c 256,4,5
 586 988 586 988 635 1034.5 c 128,-1,6
 684 1081 684 1081 750 1081 c 0,7,8
 818 1081 818 1081 863.5 1035 c 128,-1,9
 909 989 909 989 909 922 c 1,10,-1
 827 922 l 1,11,12
 827 955 827 955 805.5 977 c 128,-1,13
 784 999 784 999 750 999 c 0,14,15
 717 999 717 999 692.5 976.5 c 128,-1,16
 668 954 668 954 668 922 c 256,17,18
 668 889 668 889 688.5 864.5 c 128,-1,19
 709 840 709 840 745 829 c 0,20,21
 786 817 786 817 786 770 c 2,22,-1
 786 696 l 1,23,-1
 1460 137 l 2,24,25
 1472 127 1472 127 1476.5 118 c 128,-1,26
 1481 109 1481 109 1481 92 c 0,27,28
 1481 63 1481 63 1458.5 31.5 c 128,-1,29
 1436 0 1436 0 1409 0 c 2,30,-1
 72 0 l 2,31,32
 45 0 45 0 22.5 31.5 c 128,-1,33
 0 63 0 63 0 92 c 0,34,35
 0 108 0 108 4 117.5 c 128,-1,36
 8 127 8 127 20 137 c 2,37,-1
 707 696 l 1,0,-1
745 616 m 1,38,-1
 154 137 l 1,39,-1
 1323 137 l 1,40,-1
 745 616 l 1,38,-1
EndSplineSet
EndChar

StartChar: P.ss04
Encoding: 65591 -1 117
Width: 1531
Flags: W
LayerCount: 2
Back
Fore
SplineSet
1329 225 m 2,1,-1
 1309 225 l 2,2,3
 1284 225 1284 225 1284 240 c 2,4,-1
 1284 457 l 2,5,6
 1284 496 1284 496 1254.5 525.5 c 128,-1,7
 1225 555 1225 555 1186 555 c 2,8,-1
 840 555 l 2,9,10
 762 555 762 555 696.5 594 c 128,-1,11
 631 633 631 633 593 699.5 c 128,-1,12
 555 766 555 766 555 844 c 0,13,14
 555 920 555 920 593 985.5 c 128,-1,15
 631 1051 631 1051 696.5 1088.5 c 128,-1,16
 762 1126 762 1126 840 1126 c 0,17,18
 920 1126 920 1126 985.5 1088.5 c 128,-1,19
 1051 1051 1051 1051 1088.5 986.5 c 128,-1,20
 1126 922 1126 922 1126 844 c 2,21,-1
 1126 836 l 2,22,23
 1126 824 1126 824 1100 823 c 2,24,-1
 1087 823 l 2,25,26
 1054 823 1054 823 1055 836 c 2,27,-1
 1055 844 l 2,28,29
 1055 932 1055 932 992.5 992.5 c 128,-1,30
 930 1053 930 1053 840 1053 c 0,31,32
 752 1053 752 1053 687.5 991.5 c 128,-1,33
 623 930 623 930 623 844 c 0,34,35
 623 754 623 754 687.5 691.5 c 128,-1,36
 752 629 752 629 840 629 c 2,37,-1
 1186 629 l 2,38,39
 1258 629 1258 629 1307 578.5 c 128,-1,40
 1356 528 1356 528 1356 457 c 2,41,-1
 1356 240 l 2,42,0
 1356 225 1356 225 1329 225 c 2,1,-1
1442 225 m 2,44,-1
 1427 225 l 2,45,46
 1396 225 1396 225 1397 238 c 2,47,-1
 1397 457 l 2,48,49
 1397 547 1397 547 1335.5 610.5 c 128,-1,50
 1274 674 1274 674 1186 674 c 2,51,-1
 840 674 l 2,52,53
 770 674 770 674 720 723 c 128,-1,54
 670 772 670 772 670 846 c 2,55,-1
 670 848 l 2,56,57
 670 854 670 854 676 859 c 128,-1,58
 682 864 682 864 694 864 c 2,59,-1
 713 864 l 2,60,61
 729 864 729 864 736 861 c 128,-1,62
 743 858 743 858 743 848 c 2,63,-1
 743 846 l 2,64,65
 743 805 743 805 772 776.5 c 128,-1,66
 801 748 801 748 840 748 c 2,67,-1
 1186 748 l 2,68,69
 1264 748 1264 748 1329.5 709 c 128,-1,70
 1395 670 1395 670 1434 602.5 c 128,-1,71
 1473 535 1473 535 1473 457 c 2,72,-1
 1473 240 l 2,73,43
 1473 225 1473 225 1442 225 c 2,44,-1
1235 -2 m 1,74,-1
 49 -2 l 2,75,76
 20 -2 20 -2 20 57 c 2,77,-1
 20 104 l 2,78,79
 20 157 20 157 49 158 c 2,80,-1
 1235 158 l 1,81,-1
 1235 -2 l 1,74,-1
1284 158 m 1,82,-1
 1356 158 l 1,83,-1
 1356 -2 l 1,84,-1
 1284 -2 l 1,85,-1
 1284 158 l 1,82,-1
1482 14.5 m 128,-1,87
 1475 -2 1475 -2 1462 -2 c 2,88,-1
 1397 -2 l 1,89,-1
 1397 158 l 1,90,-1
 1462 158 l 2,91,92
 1489 158 1489 158 1489 104 c 2,93,-1
 1489 57 l 2,94,86
 1489 31 1489 31 1482 14.5 c 128,-1,87
EndSplineSet
EndChar

StartChar: A.ss05
Encoding: 65592 -1 118
Width: 1548
Flags: W
LayerCount: 2
Back
Fore
SplineSet
1141 1351.5 m 128,-1,1
 1309 1253 1309 1253 1408 1084 c 128,-1,2
 1507 915 1507 915 1507 717 c 256,3,4
 1507 518 1507 518 1408 349 c 128,-1,5
 1309 180 1309 180 1141 82 c 128,-1,6
 973 -16 973 -16 774 -16 c 256,7,8
 575 -16 575 -16 406.5 82 c 128,-1,9
 238 180 238 180 139.5 349 c 128,-1,10
 41 518 41 518 41 717 c 256,11,12
 41 916 41 916 139.5 1084.5 c 128,-1,13
 238 1253 238 1253 406.5 1351.5 c 128,-1,14
 575 1450 575 1450 774 1450 c 256,15,0
 973 1450 973 1450 1141 1351.5 c 128,-1,1
487 1212.5 m 128,-1,17
 356 1135 356 1135 278.5 1003.5 c 128,-1,18
 201 872 201 872 201 717 c 256,19,20
 201 561 201 561 278.5 430 c 128,-1,21
 356 299 356 299 487 221 c 128,-1,22
 618 143 618 143 774 143 c 256,23,24
 930 143 930 143 1061 221 c 128,-1,25
 1192 299 1192 299 1270 430 c 128,-1,26
 1348 561 1348 561 1348 717 c 256,27,28
 1348 873 1348 873 1270 1004 c 128,-1,29
 1192 1135 1192 1135 1061 1212.5 c 128,-1,30
 930 1290 930 1290 774 1290 c 256,31,16
 618 1290 618 1290 487 1212.5 c 128,-1,17
860 1071 m 2,33,-1
 860 979 l 2,34,35
 860 944 860 944 793 944 c 2,36,-1
 760 944 l 2,37,38
 692 944 692 944 692 979 c 2,39,-1
 692 1071 l 2,40,41
 692 1108 692 1108 760 1108 c 2,42,-1
 793 1108 l 2,43,32
 860 1108 860 1108 860 1071 c 2,33,-1
860 831 m 2,45,-1
 860 354 l 2,46,47
 860 317 860 317 793 317 c 2,48,-1
 760 317 l 2,49,50
 692 317 692 317 692 354 c 2,51,-1
 692 831 l 2,52,53
 692 868 692 868 760 868 c 2,54,-1
 793 868 l 2,55,44
 860 868 860 868 860 831 c 2,45,-1
EndSplineSet
EndChar

StartChar: B.ss05
Encoding: 65593 -1 119
Width: 1548
Flags: W
LayerCount: 2
Back
Fore
SplineSet
406.5 1351.5 m 128,-1,1
 238 1253 238 1253 139.5 1084 c 128,-1,2
 41 915 41 915 41 717 c 256,3,4
 41 518 41 518 139.5 349 c 128,-1,5
 238 180 238 180 406.5 82 c 128,-1,6
 575 -16 575 -16 774 -16 c 256,7,8
 973 -16 973 -16 1142 82 c 128,-1,9
 1311 180 1311 180 1409 349 c 128,-1,10
 1507 518 1507 518 1507 717 c 256,11,12
 1507 916 1507 916 1409 1084.5 c 128,-1,13
 1311 1253 1311 1253 1142 1351.5 c 128,-1,14
 973 1450 973 1450 774 1450 c 256,15,0
 575 1450 575 1450 406.5 1351.5 c 128,-1,1
1061 1211.5 m 128,-1,17
 1192 1135 1192 1135 1269 1003.5 c 128,-1,18
 1346 872 1346 872 1346 717 c 256,19,20
 1346 561 1346 561 1269 430 c 128,-1,21
 1192 299 1192 299 1061 222 c 128,-1,22
 930 145 930 145 774 145 c 256,23,24
 618 145 618 145 487 222 c 128,-1,25
 356 299 356 299 279.5 430 c 128,-1,26
 203 561 203 561 203 717 c 256,27,28
 203 873 203 873 279.5 1004 c 128,-1,29
 356 1135 356 1135 487 1211.5 c 128,-1,30
 618 1288 618 1288 774 1288 c 256,31,16
 930 1288 930 1288 1061 1211.5 c 128,-1,17
1090 1071 m 2,33,-1
 1090 354 l 2,34,35
 1090 317 1090 317 1018 317 c 2,36,-1
 977 317 l 2,37,38
 907 317 907 317 907 354 c 2,39,-1
 907 645 l 1,40,-1
 641 645 l 1,41,-1
 641 354 l 2,42,43
 641 317 641 317 571 317 c 2,44,-1
 530 317 l 2,45,46
 458 317 458 317 459 354 c 2,47,-1
 459 1071 l 2,48,49
 459 1108 459 1108 530 1108 c 2,50,-1
 571 1108 l 2,51,52
 641 1108 641 1108 641 1071 c 2,53,-1
 641 799 l 1,54,-1
 907 799 l 1,55,-1
 907 1071 l 2,56,57
 907 1108 907 1108 977 1108 c 2,58,-1
 1018 1108 l 2,59,32
 1090 1108 1090 1108 1090 1071 c 2,33,-1
EndSplineSet
EndChar

StartChar: C.ss05
Encoding: 65594 -1 120
Width: 1548
Flags: W
LayerCount: 2
Back
Fore
SplineSet
1141 1351.5 m 128,-1,1
 1309 1253 1309 1253 1408 1084 c 128,-1,2
 1507 915 1507 915 1507 717 c 256,3,4
 1507 518 1507 518 1408 349 c 128,-1,5
 1309 180 1309 180 1141 82 c 128,-1,6
 973 -16 973 -16 774 -16 c 256,7,8
 575 -16 575 -16 406.5 82 c 128,-1,9
 238 180 238 180 139.5 349 c 128,-1,10
 41 518 41 518 41 717 c 256,11,12
 41 916 41 916 139.5 1084.5 c 128,-1,13
 238 1253 238 1253 406.5 1351.5 c 128,-1,14
 575 1450 575 1450 774 1450 c 256,15,0
 973 1450 973 1450 1141 1351.5 c 128,-1,1
487 1212.5 m 128,-1,17
 356 1135 356 1135 278.5 1003.5 c 128,-1,18
 201 872 201 872 201 717 c 256,19,20
 201 561 201 561 278.5 430 c 128,-1,21
 356 299 356 299 487 221 c 128,-1,22
 618 143 618 143 774 143 c 256,23,24
 930 143 930 143 1061 221 c 128,-1,25
 1192 299 1192 299 1270 430 c 128,-1,26
 1348 561 1348 561 1348 717 c 256,27,28
 1348 873 1348 873 1270 1004 c 128,-1,29
 1192 1135 1192 1135 1061 1212.5 c 128,-1,30
 930 1290 930 1290 774 1290 c 256,31,16
 618 1290 618 1290 487 1212.5 c 128,-1,17
683 512 m 128,-1,33
 668 520 668 520 668 541 c 0,34,35
 668 598 668 598 699.5 653.5 c 128,-1,36
 731 709 731 709 795 776 c 0,37,38
 836 821 836 821 855 849 c 128,-1,39
 874 877 874 877 874 899 c 0,40,41
 874 932 874 932 849.5 952.5 c 128,-1,42
 825 973 825 973 776 973 c 0,43,44
 723 973 723 973 655 942 c 0,45,46
 635 932 635 932 629 932 c 0,47,48
 602 932 602 932 573.5 974 c 128,-1,49
 545 1016 545 1016 545 1040 c 0,50,51
 545 1093 545 1093 622.5 1120 c 128,-1,52
 700 1147 700 1147 795 1147 c 0,53,54
 928 1147 928 1147 1004.5 1083.5 c 128,-1,55
 1081 1020 1081 1020 1081 911 c 0,56,57
 1081 835 1081 835 1044.5 786 c 128,-1,58
 1008 737 1008 737 940 684 c 0,59,60
 889 641 889 641 862.5 608 c 128,-1,61
 836 575 836 575 834 537 c 0,62,63
 832 519 832 519 815.5 511.5 c 128,-1,64
 799 504 799 504 764 504 c 2,65,-1
 733 504 l 2,66,32
 698 504 698 504 683 512 c 128,-1,33
850 381 m 2,68,-1
 850 270 l 2,69,70
 850 227 850 227 770 227 c 2,71,-1
 727 227 l 2,72,73
 649 227 649 227 649 270 c 2,74,-1
 649 381 l 2,75,76
 649 424 649 424 727 424 c 2,77,-1
 770 424 l 2,78,67
 850 424 850 424 850 381 c 2,68,-1
EndSplineSet
EndChar

StartChar: D.ss05
Encoding: 65595 -1 121
Width: 1548
Flags: W
LayerCount: 2
Back
Fore
SplineSet
1141 1351.5 m 128,-1,1
 1309 1253 1309 1253 1408 1084 c 128,-1,2
 1507 915 1507 915 1507 717 c 256,3,4
 1507 518 1507 518 1408 349 c 128,-1,5
 1309 180 1309 180 1141 82 c 128,-1,6
 973 -16 973 -16 774 -16 c 256,7,8
 575 -16 575 -16 406.5 82 c 128,-1,9
 238 180 238 180 139.5 349 c 128,-1,10
 41 518 41 518 41 717 c 256,11,12
 41 916 41 916 139.5 1084.5 c 128,-1,13
 238 1253 238 1253 406.5 1351.5 c 128,-1,14
 575 1450 575 1450 774 1450 c 256,15,0
 973 1450 973 1450 1141 1351.5 c 128,-1,1
487 1212.5 m 128,-1,17
 356 1135 356 1135 278.5 1003.5 c 128,-1,18
 201 872 201 872 201 717 c 256,19,20
 201 561 201 561 278.5 430 c 128,-1,21
 356 299 356 299 487 221 c 128,-1,22
 618 143 618 143 774 143 c 256,23,24
 930 143 930 143 1061 221 c 128,-1,25
 1192 299 1192 299 1270 430 c 128,-1,26
 1348 561 1348 561 1348 717 c 256,27,28
 1348 873 1348 873 1270 1004 c 128,-1,29
 1192 1135 1192 1135 1061 1212.5 c 128,-1,30
 930 1290 930 1290 774 1290 c 256,31,16
 618 1290 618 1290 487 1212.5 c 128,-1,17
803 1184 m 0,33,34
 834 1184 834 1184 834 1151 c 2,35,-1
 834 1114 l 1,36,37
 912 1112 912 1112 964 1087.5 c 128,-1,38
 1016 1063 1016 1063 1016 1036 c 0,39,40
 1016 1013 1016 1013 994.5 975.5 c 128,-1,41
 973 938 973 938 954 938 c 0,42,43
 948 938 948 938 932 944 c 0,44,45
 881 964 881 964 834 967 c 1,46,-1
 834 793 l 1,47,48
 951 746 951 746 1001 695.5 c 128,-1,49
 1051 645 1051 645 1051 557 c 0,50,51
 1051 440 1051 440 989.5 378.5 c 128,-1,52
 928 317 928 317 834 305 c 1,53,-1
 834 254 l 2,54,55
 834 221 834 221 805 221 c 0,56,57
 770 221 770 221 770 254 c 2,58,-1
 770 305 l 1,59,60
 696 307 696 307 641 323.5 c 128,-1,61
 586 340 586 340 556 361.5 c 128,-1,62
 526 383 526 383 526 403 c 0,63,64
 526 430 526 430 553 467 c 128,-1,65
 580 504 580 504 596 504 c 0,66,67
 602 504 602 504 611.5 500 c 128,-1,68
 621 496 621 496 629 492 c 0,69,70
 668 474 668 474 698.5 463.5 c 128,-1,71
 729 453 729 453 770 453 c 1,72,-1
 770 639 l 1,73,74
 645 686 645 686 594 737 c 128,-1,75
 543 788 543 788 543 883 c 0,76,77
 543 987 543 987 607.5 1045.5 c 128,-1,78
 672 1104 672 1104 770 1114 c 1,79,-1
 770 1151 l 2,80,32
 770 1184 770 1184 803 1184 c 0,33,34
711 901 m 256,82,83
 711 858 711 858 770 823 c 1,84,-1
 770 961 l 1,85,81
 711 944 711 944 711 901 c 256,82,83
883 535 m 0,87,88
 883 578 883 578 834 610 c 1,89,-1
 834 465 l 1,90,86
 883 486 883 486 883 535 c 0,87,88
EndSplineSet
EndChar

StartChar: E.ss05
Encoding: 65596 -1 122
Width: 1548
Flags: W
LayerCount: 2
Back
Fore
SplineSet
1141 1351.5 m 128,-1,1
 1309 1253 1309 1253 1408 1084 c 128,-1,2
 1507 915 1507 915 1507 717 c 256,3,4
 1507 518 1507 518 1408 349 c 128,-1,5
 1309 180 1309 180 1141 82 c 128,-1,6
 973 -16 973 -16 774 -16 c 256,7,8
 575 -16 575 -16 406.5 82 c 128,-1,9
 238 180 238 180 139.5 349 c 128,-1,10
 41 518 41 518 41 717 c 256,11,12
 41 916 41 916 139.5 1084.5 c 128,-1,13
 238 1253 238 1253 406.5 1351.5 c 128,-1,14
 575 1450 575 1450 774 1450 c 256,15,0
 973 1450 973 1450 1141 1351.5 c 128,-1,1
487 1212.5 m 128,-1,17
 356 1135 356 1135 278.5 1003.5 c 128,-1,18
 201 872 201 872 201 717 c 256,19,20
 201 561 201 561 278.5 430 c 128,-1,21
 356 299 356 299 487 221 c 128,-1,22
 618 143 618 143 774 143 c 256,23,24
 930 143 930 143 1061 221 c 128,-1,25
 1192 299 1192 299 1270 430 c 128,-1,26
 1348 561 1348 561 1348 717 c 256,27,28
 1348 873 1348 873 1270 1004 c 128,-1,29
 1192 1135 1192 1135 1061 1212.5 c 128,-1,30
 930 1290 930 1290 774 1290 c 256,31,16
 618 1290 618 1290 487 1212.5 c 128,-1,17
1017 1098.5 m 128,-1,33
 1024 1085 1024 1085 1024 1055 c 2,34,-1
 1024 1018 l 2,35,36
 1024 987 1024 987 1017 974 c 128,-1,37
 1010 961 1010 961 991 961 c 2,38,-1
 702 961 l 1,39,-1
 702 795 l 1,40,-1
 961 795 l 2,41,42
 996 795 996 795 995 739 c 2,43,-1
 995 702 l 2,44,45
 995 647 995 647 961 647 c 2,46,-1
 702 647 l 1,47,-1
 702 463 l 1,48,-1
 991 463 l 2,49,50
 1026 463 1026 463 1026 406 c 2,51,-1
 1026 369 l 2,52,53
 1026 340 1026 340 1018 326.5 c 128,-1,54
 1010 313 1010 313 991 313 c 2,55,-1
 573 313 l 2,56,57
 548 313 548 313 538 323.5 c 128,-1,58
 528 334 528 334 528 358 c 2,59,-1
 528 1065 l 2,60,61
 528 1090 528 1090 538.5 1101 c 128,-1,62
 549 1112 549 1112 573 1112 c 2,63,-1
 991 1112 l 2,64,32
 1010 1112 1010 1112 1017 1098.5 c 128,-1,33
EndSplineSet
Substitution2: "Single Substitution lookup 14 subtable" K.ss05
Substitution2: "'aalt' Access All Alternates lookup 0 subtable" K.ss05
EndChar

StartChar: F.ss05
Encoding: 65597 -1 123
Width: 1548
Flags: W
LayerCount: 2
Back
Fore
SplineSet
1141 1351.5 m 128,-1,1
 1309 1253 1309 1253 1408 1084 c 128,-1,2
 1507 915 1507 915 1507 717 c 256,3,4
 1507 518 1507 518 1408 349 c 128,-1,5
 1309 180 1309 180 1141 82 c 128,-1,6
 973 -16 973 -16 774 -16 c 256,7,8
 575 -16 575 -16 406.5 82 c 128,-1,9
 238 180 238 180 139.5 349 c 128,-1,10
 41 518 41 518 41 717 c 256,11,12
 41 916 41 916 139.5 1084.5 c 128,-1,13
 238 1253 238 1253 406.5 1351.5 c 128,-1,14
 575 1450 575 1450 774 1450 c 256,15,0
 973 1450 973 1450 1141 1351.5 c 128,-1,1
487 1212.5 m 128,-1,17
 356 1135 356 1135 278.5 1003.5 c 128,-1,18
 201 872 201 872 201 717 c 256,19,20
 201 561 201 561 278.5 430 c 128,-1,21
 356 299 356 299 487 221 c 128,-1,22
 618 143 618 143 774 143 c 256,23,24
 930 143 930 143 1061 221 c 128,-1,25
 1192 299 1192 299 1270 430 c 128,-1,26
 1348 561 1348 561 1348 717 c 256,27,28
 1348 873 1348 873 1270 1004 c 128,-1,29
 1192 1135 1192 1135 1061 1212.5 c 128,-1,30
 930 1290 930 1290 774 1290 c 256,31,16
 618 1290 618 1290 487 1212.5 c 128,-1,17
1026 1056 m 128,-1,33
 1108 1004 1108 1004 1108 860 c 0,34,35
 1108 762 1108 762 1061 706.5 c 128,-1,36
 1014 651 1014 651 955.5 631.5 c 128,-1,37
 897 612 897 612 852 612 c 2,38,-1
 731 612 l 1,39,-1
 731 354 l 2,40,41
 731 334 731 334 714.5 325.5 c 128,-1,42
 698 317 698 317 664 317 c 2,43,-1
 625 317 l 2,44,45
 590 317 590 317 573.5 325.5 c 128,-1,46
 557 334 557 334 557 354 c 2,47,-1
 557 1061 l 2,48,49
 557 1108 557 1108 602 1108 c 2,50,-1
 840 1108 l 2,51,32
 944 1108 944 1108 1026 1056 c 128,-1,33
831 762 m 2,52,53
 872 762 872 762 902 783.5 c 128,-1,54
 932 805 932 805 932 860 c 256,55,56
 932 915 932 915 902 938 c 128,-1,57
 872 961 872 961 831 961 c 2,58,-1
 731 961 l 1,59,-1
 731 762 l 1,60,-1
 831 762 l 2,52,53
EndSplineSet
Substitution2: "Single Substitution lookup 14 subtable" L.ss05
Substitution2: "'aalt' Access All Alternates lookup 0 subtable" L.ss05
EndChar

StartChar: G.ss05
Encoding: 65598 -1 124
Width: 1548
Flags: W
LayerCount: 2
Back
Fore
SplineSet
1141 1351.5 m 128,-1,1
 1309 1253 1309 1253 1408 1084 c 128,-1,2
 1507 915 1507 915 1507 717 c 256,3,4
 1507 518 1507 518 1408 349 c 128,-1,5
 1309 180 1309 180 1141 82 c 128,-1,6
 973 -16 973 -16 774 -16 c 256,7,8
 575 -16 575 -16 406.5 82 c 128,-1,9
 238 180 238 180 139.5 349 c 128,-1,10
 41 518 41 518 41 717 c 256,11,12
 41 916 41 916 139.5 1084.5 c 128,-1,13
 238 1253 238 1253 406.5 1351.5 c 128,-1,14
 575 1450 575 1450 774 1450 c 256,15,0
 973 1450 973 1450 1141 1351.5 c 128,-1,1
487 1212.5 m 128,-1,17
 356 1135 356 1135 278.5 1003.5 c 128,-1,18
 201 872 201 872 201 717 c 256,19,20
 201 561 201 561 278.5 430 c 128,-1,21
 356 299 356 299 487 221 c 128,-1,22
 618 143 618 143 774 143 c 256,23,24
 930 143 930 143 1061 221 c 128,-1,25
 1192 299 1192 299 1270 430 c 128,-1,26
 1348 561 1348 561 1348 717 c 256,27,28
 1348 873 1348 873 1270 1004 c 128,-1,29
 1192 1135 1192 1135 1061 1212.5 c 128,-1,30
 930 1290 930 1290 774 1290 c 256,31,16
 618 1290 618 1290 487 1212.5 c 128,-1,17
946 522 m 2,33,-1
 852 713 l 1,34,-1
 860 870 l 1,35,-1
 901 811 l 2,36,37
 909 801 909 801 917.5 796 c 128,-1,38
 926 791 926 791 940 786 c 2,39,-1
 1006 768 l 2,40,41
 1018 764 1018 764 1034 764 c 0,42,43
 1046 764 1046 764 1055.5 774 c 128,-1,44
 1065 784 1065 784 1065 801 c 0,45,46
 1065 821 1065 821 1042 827 c 2,47,-1
 954 854 l 1,48,-1
 879 985 l 2,49,50
 863 1014 863 1014 831 1030 c 1,51,-1
 834 1063 l 1,52,53
 854 1073 854 1073 856 1094 c 2,54,-1
 864 1169 l 2,55,56
 864 1185 864 1185 849 1197.5 c 128,-1,57
 834 1210 834 1210 811 1210 c 0,58,59
 791 1210 791 1210 777.5 1199 c 128,-1,60
 764 1188 764 1188 762 1169 c 2,61,-1
 758 1100 l 2,62,63
 758 1088 758 1088 772 1067 c 1,64,65
 772 1049 772 1049 748 1036 c 0,66,67
 719 1026 719 1026 692 989 c 2,68,-1
 610 885 l 2,69,70
 602 873 602 873 598 859.5 c 128,-1,71
 594 846 594 846 592 832.5 c 128,-1,72
 590 819 590 819 588 811 c 2,73,-1
 582 758 l 2,74,75
 576 731 576 731 575 709 c 0,76,77
 575 697 575 697 586.5 689.5 c 128,-1,78
 598 682 598 682 610 682 c 0,79,80
 643 682 643 682 645 717 c 2,81,-1
 657 834 l 1,82,-1
 717 887 l 1,83,-1
 696 705 l 1,84,-1
 645 467 l 1,85,-1
 551 309 l 2,86,87
 539 289 539 289 539 283 c 0,88,89
 539 271 539 271 559 256 c 0,90,91
 582 240 582 240 590 240 c 0,92,93
 602 240 602 240 608 250 c 2,94,-1
 696 385 l 2,95,96
 727 434 727 434 735 459 c 2,97,-1
 786 606 l 1,98,-1
 870 471 l 1,99,-1
 903 250 l 2,100,101
 905 227 905 227 950 227 c 0,102,103
 966 227 966 227 976.5 232.5 c 128,-1,104
 987 238 987 238 987 246 c 0,105,106
 987 262 987 262 976 348 c 128,-1,107
 965 434 965 434 958 479 c 0,108,32
 956 504 956 504 946 522 c 2,33,-1
EndSplineSet
Substitution2: "Single Substitution lookup 14 subtable" M.ss05
Substitution2: "'aalt' Access All Alternates lookup 0 subtable" M.ss05
EndChar

StartChar: H.ss05
Encoding: 65599 -1 125
Width: 1548
Flags: W
LayerCount: 2
Back
Fore
SplineSet
1141 1351.5 m 128,-1,1
 1309 1253 1309 1253 1408 1084 c 128,-1,2
 1507 915 1507 915 1507 717 c 256,3,4
 1507 518 1507 518 1408 349 c 128,-1,5
 1309 180 1309 180 1141 82 c 128,-1,6
 973 -16 973 -16 774 -16 c 256,7,8
 575 -16 575 -16 406.5 82 c 128,-1,9
 238 180 238 180 139.5 349 c 128,-1,10
 41 518 41 518 41 717 c 256,11,12
 41 916 41 916 139.5 1084.5 c 128,-1,13
 238 1253 238 1253 406.5 1351.5 c 128,-1,14
 575 1450 575 1450 774 1450 c 256,15,0
 973 1450 973 1450 1141 1351.5 c 128,-1,1
487 1212.5 m 128,-1,17
 356 1135 356 1135 278.5 1003.5 c 128,-1,18
 201 872 201 872 201 717 c 256,19,20
 201 561 201 561 278.5 430 c 128,-1,21
 356 299 356 299 487 221 c 128,-1,22
 618 143 618 143 774 143 c 256,23,24
 930 143 930 143 1061 221 c 128,-1,25
 1192 299 1192 299 1270 430 c 128,-1,26
 1348 561 1348 561 1348 717 c 256,27,28
 1348 873 1348 873 1270 1004 c 128,-1,29
 1192 1135 1192 1135 1061 1212.5 c 128,-1,30
 930 1290 930 1290 774 1290 c 256,31,16
 618 1290 618 1290 487 1212.5 c 128,-1,17
1059 829 m 1,32,-1
 1145 829 l 2,33,34
 1184 829 1184 829 1198 862 c 0,35,36
 1210 891 1210 891 1210 905 c 256,37,38
 1210 919 1210 919 1190 932 c 2,39,-1
 1065 1004 l 1,40,-1
 1065 1063 l 2,41,42
 1065 1071 1065 1071 1055 1071 c 0,43,44
 1049 1071 1049 1071 1042 1065 c 2,45,-1
 860 836 l 1,46,-1
 418 881 l 1,47,48
 418 858 418 858 435.5 831.5 c 128,-1,49
 453 805 453 805 475 797 c 1,50,51
 467 674 467 674 459 551 c 128,-1,52
 451 428 451 428 449 375 c 0,53,54
 449 346 449 346 498 346 c 0,55,56
 549 346 549 346 555 375 c 2,57,-1
 596 629 l 1,58,59
 692 588 692 588 791 588 c 2,60,-1
 893 588 l 1,61,-1
 911 375 l 2,62,63
 913 346 913 346 971 346 c 0,64,65
 1026 346 1026 346 1026 375 c 2,66,-1
 1026 727 l 1,67,-1
 1059 829 l 1,32,-1
EndSplineSet
Substitution2: "Single Substitution lookup 14 subtable" N.ss05
Substitution2: "'aalt' Access All Alternates lookup 0 subtable" N.ss05
EndChar

StartChar: I.ss05
Encoding: 65600 -1 126
Width: 1548
Flags: W
LayerCount: 2
Back
Fore
SplineSet
1141 1351.5 m 128,-1,1
 1309 1253 1309 1253 1408 1084 c 128,-1,2
 1507 915 1507 915 1507 717 c 256,3,4
 1507 518 1507 518 1408 349 c 128,-1,5
 1309 180 1309 180 1141 82 c 128,-1,6
 973 -16 973 -16 774 -16 c 256,7,8
 575 -16 575 -16 406.5 82 c 128,-1,9
 238 180 238 180 139.5 349 c 128,-1,10
 41 518 41 518 41 717 c 256,11,12
 41 916 41 916 139.5 1084.5 c 128,-1,13
 238 1253 238 1253 406.5 1351.5 c 128,-1,14
 575 1450 575 1450 774 1450 c 256,15,0
 973 1450 973 1450 1141 1351.5 c 128,-1,1
487 1212.5 m 128,-1,17
 356 1135 356 1135 278.5 1003.5 c 128,-1,18
 201 872 201 872 201 717 c 256,19,20
 201 561 201 561 278.5 430 c 128,-1,21
 356 299 356 299 487 221 c 128,-1,22
 618 143 618 143 774 143 c 256,23,24
 930 143 930 143 1061 221 c 128,-1,25
 1192 299 1192 299 1270 430 c 128,-1,26
 1348 561 1348 561 1348 717 c 256,27,28
 1348 873 1348 873 1270 1004 c 128,-1,29
 1192 1135 1192 1135 1061 1212.5 c 128,-1,30
 930 1290 930 1290 774 1290 c 256,31,16
 618 1290 618 1290 487 1212.5 c 128,-1,17
995 1051 m 2,33,-1
 995 358 l 2,34,35
 995 335 995 335 963 336 c 2,36,-1
 588 336 l 2,37,38
 555 336 555 336 555 358 c 2,39,-1
 555 1051 l 2,40,41
 555 1071 555 1071 592 1071 c 2,42,-1
 840 1071 l 1,43,-1
 848 1096 l 2,44,45
 852 1108 852 1108 872 1108 c 2,46,-1
 883 1108 l 2,47,48
 908 1108 908 1108 909 1096 c 2,49,-1
 915 1071 l 1,50,-1
 958 1071 l 2,51,32
 995 1071 995 1071 995 1051 c 2,33,-1
934 1012 m 1,52,-1
 616 1012 l 1,53,-1
 616 655 l 1,54,-1
 934 655 l 1,55,-1
 934 1012 l 1,52,-1
702 575 m 2,56,57
 702 581 702 581 697 582.5 c 128,-1,58
 692 584 692 584 682 584 c 2,59,-1
 635 584 l 2,60,61
 627 584 627 584 621.5 583 c 128,-1,62
 616 582 616 582 616 575 c 2,63,-1
 616 551 l 2,64,65
 616 543 616 543 635 543 c 2,66,-1
 682 543 l 2,67,68
 702 543 702 543 702 551 c 2,69,-1
 702 575 l 2,56,57
819 575 m 2,70,71
 819 581 819 581 813 582.5 c 128,-1,72
 807 584 807 584 799 584 c 2,73,-1
 752 584 l 2,74,75
 742 584 742 584 736.5 583 c 128,-1,76
 731 582 731 582 731 575 c 2,77,-1
 731 551 l 2,78,79
 731 543 731 543 752 543 c 2,80,-1
 799 543 l 2,81,82
 819 543 819 543 819 551 c 2,83,-1
 819 575 l 2,70,71
934 575 m 2,84,85
 934 581 934 581 929 582.5 c 128,-1,86
 924 584 924 584 913 584 c 2,87,-1
 866 584 l 2,88,89
 858 584 858 584 853 583 c 128,-1,90
 848 582 848 582 848 575 c 2,91,-1
 848 551 l 2,92,93
 848 543 848 543 866 543 c 2,94,-1
 913 543 l 2,95,96
 933 543 933 543 934 551 c 2,97,-1
 934 575 l 2,84,85
702 504 m 2,98,99
 702 510 702 510 697 511 c 128,-1,100
 692 512 692 512 682 512 c 2,101,-1
 635 512 l 2,102,103
 627 512 627 512 621.5 511 c 128,-1,104
 616 510 616 510 616 504 c 2,105,-1
 616 479 l 2,106,107
 616 475 616 475 621.5 474 c 128,-1,108
 627 473 627 473 635 473 c 2,109,-1
 682 473 l 2,110,111
 692 473 692 473 697 474 c 128,-1,112
 702 475 702 475 702 479 c 2,113,-1
 702 504 l 2,98,99
819 504 m 2,114,115
 819 510 819 510 813 511 c 128,-1,116
 807 512 807 512 799 512 c 2,117,-1
 752 512 l 2,118,119
 742 512 742 512 736.5 511 c 128,-1,120
 731 510 731 510 731 504 c 2,121,-1
 731 479 l 2,122,123
 731 475 731 475 736 474 c 128,-1,124
 741 473 741 473 752 473 c 2,125,-1
 799 473 l 2,126,127
 819 473 819 473 819 479 c 2,128,-1
 819 504 l 2,114,115
934 504 m 2,129,130
 934 510 934 510 929 511 c 128,-1,131
 924 512 924 512 913 512 c 2,132,-1
 866 512 l 2,133,134
 858 512 858 512 853 511 c 128,-1,135
 848 510 848 510 848 504 c 2,136,-1
 848 479 l 2,137,138
 848 475 848 475 853 474 c 128,-1,139
 858 473 858 473 866 473 c 2,140,-1
 913 473 l 2,141,142
 923 473 923 473 928.5 474 c 128,-1,143
 934 475 934 475 934 479 c 2,144,-1
 934 504 l 2,129,130
702 432 m 2,145,146
 702 438 702 438 697 439 c 128,-1,147
 692 440 692 440 682 440 c 2,148,-1
 635 440 l 2,149,150
 627 440 627 440 621.5 439 c 128,-1,151
 616 438 616 438 616 432 c 2,152,-1
 616 408 l 2,153,154
 616 404 616 404 621.5 402.5 c 128,-1,155
 627 401 627 401 635 401 c 2,156,-1
 682 401 l 2,157,158
 692 401 692 401 697 402 c 128,-1,159
 702 403 702 403 702 408 c 2,160,-1
 702 432 l 2,145,146
819 432 m 2,161,162
 819 438 819 438 813 439 c 128,-1,163
 807 440 807 440 799 440 c 2,164,-1
 752 440 l 2,165,166
 742 440 742 440 736.5 439 c 128,-1,167
 731 438 731 438 731 432 c 2,168,-1
 731 408 l 2,169,170
 731 404 731 404 736 402.5 c 128,-1,171
 741 401 741 401 752 401 c 2,172,-1
 799 401 l 2,173,174
 819 401 819 401 819 408 c 2,175,-1
 819 432 l 2,161,162
934 432 m 2,176,177
 934 438 934 438 929 439 c 128,-1,178
 924 440 924 440 913 440 c 2,179,-1
 866 440 l 2,180,181
 858 440 858 440 853 439 c 128,-1,182
 848 438 848 438 848 432 c 2,183,-1
 848 408 l 2,184,185
 848 404 848 404 853 402.5 c 128,-1,186
 858 401 858 401 866 401 c 2,187,-1
 913 401 l 2,188,189
 923 401 923 401 928.5 402 c 128,-1,190
 934 403 934 403 934 408 c 2,191,-1
 934 432 l 2,176,177
EndSplineSet
Substitution2: "Single Substitution lookup 14 subtable" O.ss05
Substitution2: "'aalt' Access All Alternates lookup 0 subtable" O.ss05
EndChar

StartChar: J.ss05
Encoding: 65601 -1 127
Width: 1548
Flags: W
LayerCount: 2
Back
Fore
SplineSet
1141 1351.5 m 128,-1,1
 1309 1253 1309 1253 1408 1084 c 128,-1,2
 1507 915 1507 915 1507 717 c 256,3,4
 1507 518 1507 518 1408 349 c 128,-1,5
 1309 180 1309 180 1141 82 c 128,-1,6
 973 -16 973 -16 774 -16 c 256,7,8
 575 -16 575 -16 406.5 82 c 128,-1,9
 238 180 238 180 139.5 349 c 128,-1,10
 41 518 41 518 41 717 c 256,11,12
 41 916 41 916 139.5 1084.5 c 128,-1,13
 238 1253 238 1253 406.5 1351.5 c 128,-1,14
 575 1450 575 1450 774 1450 c 256,15,0
 973 1450 973 1450 1141 1351.5 c 128,-1,1
487 1212.5 m 128,-1,17
 356 1135 356 1135 278.5 1003.5 c 128,-1,18
 201 872 201 872 201 717 c 256,19,20
 201 561 201 561 278.5 430 c 128,-1,21
 356 299 356 299 487 221 c 128,-1,22
 618 143 618 143 774 143 c 256,23,24
 930 143 930 143 1061 221 c 128,-1,25
 1192 299 1192 299 1270 430 c 128,-1,26
 1348 561 1348 561 1348 717 c 256,27,28
 1348 873 1348 873 1270 1004 c 128,-1,29
 1192 1135 1192 1135 1061 1212.5 c 128,-1,30
 930 1290 930 1290 774 1290 c 256,31,16
 618 1290 618 1290 487 1212.5 c 128,-1,17
1116 618 m 2,33,-1
 1106 618 l 2,34,35
 1090 618 1090 618 1090 629 c 2,36,-1
 1090 760 l 2,37,38
 1090 785 1090 785 1072.5 802 c 128,-1,39
 1055 819 1055 819 1030 819 c 2,40,-1
 821 819 l 2,41,42
 749 819 749 819 698 870.5 c 128,-1,43
 647 922 647 922 647 993 c 256,44,45
 647 1065 647 1065 698.5 1116 c 128,-1,46
 750 1167 750 1167 821 1167 c 256,47,48
 893 1167 893 1167 944 1116 c 128,-1,49
 995 1065 995 1065 995 993 c 2,50,-1
 995 991 l 2,51,52
 995 983 995 983 977 983 c 2,53,-1
 969 983 l 2,54,55
 951 983 951 983 950 991 c 2,56,-1
 950 993 l 2,57,58
 950 1046 950 1046 912 1084 c 128,-1,59
 874 1122 874 1122 821 1122 c 256,60,61
 768 1122 768 1122 729 1084.5 c 128,-1,62
 690 1047 690 1047 690 993 c 256,63,64
 690 940 690 940 729 902 c 128,-1,65
 768 864 768 864 821 864 c 2,66,-1
 1030 864 l 2,67,68
 1073 864 1073 864 1103 833.5 c 128,-1,69
 1133 803 1133 803 1133 760 c 2,70,-1
 1133 629 l 2,71,32
 1132 618 1132 618 1116 618 c 2,33,-1
1186 618 m 2,73,-1
 1176 618 l 2,74,75
 1160 618 1160 618 1159 627 c 2,76,-1
 1159 760 l 2,77,78
 1159 813 1159 813 1121 852 c 128,-1,79
 1083 891 1083 891 1030 891 c 2,80,-1
 821 891 l 2,81,82
 778 891 778 891 747.5 920.5 c 128,-1,83
 717 950 717 950 717 995 c 2,84,-1
 717 997 l 2,85,86
 717 1005 717 1005 733 1006 c 2,87,-1
 743 1006 l 2,88,89
 751 1006 751 1006 756.5 1005 c 128,-1,90
 762 1004 762 1004 762 997 c 2,91,-1
 762 995 l 2,92,93
 762 970 762 970 779.5 953 c 128,-1,94
 797 936 797 936 821 936 c 2,95,-1
 1030 936 l 2,96,97
 1102 936 1102 936 1153 885 c 128,-1,98
 1204 834 1204 834 1204 760 c 2,99,-1
 1204 629 l 2,100,72
 1204 618 1204 618 1186 618 c 2,73,-1
1061 481 m 1,101,-1
 338 481 l 2,102,103
 320 481 320 481 319 516 c 2,104,-1
 319 545 l 2,105,106
 319 578 319 578 338 578 c 2,107,-1
 1061 578 l 1,108,-1
 1061 481 l 1,101,-1
1090 578 m 1,109,-1
 1133 578 l 1,110,-1
 1133 481 l 1,111,-1
 1090 481 l 1,112,-1
 1090 578 l 1,109,-1
1196 481 m 2,114,-1
 1159 481 l 1,115,-1
 1159 578 l 1,116,-1
 1196 578 l 2,117,118
 1214 578 1214 578 1214 545 c 2,119,-1
 1214 516 l 2,120,113
 1214 481 1214 481 1196 481 c 2,114,-1
EndSplineSet
Substitution2: "Single Substitution lookup 14 subtable" P.ss05
Substitution2: "'aalt' Access All Alternates lookup 0 subtable" P.ss05
EndChar

StartChar: K.ss05
Encoding: 65602 -1 128
Width: 1548
Flags: W
LayerCount: 2
Back
Fore
SplineSet
1017 1098.5 m 128,-1,1
 1024 1085 1024 1085 1024 1055 c 2,2,-1
 1024 1018 l 2,3,4
 1024 987 1024 987 1017 974 c 128,-1,5
 1010 961 1010 961 991 961 c 2,6,-1
 702 961 l 1,7,-1
 702 795 l 1,8,-1
 961 795 l 2,9,10
 996 795 996 795 995 739 c 2,11,-1
 995 702 l 2,12,13
 995 647 995 647 961 647 c 2,14,-1
 702 647 l 1,15,-1
 702 463 l 1,16,-1
 991 463 l 2,17,18
 1026 463 1026 463 1026 406 c 2,19,-1
 1026 369 l 2,20,21
 1026 340 1026 340 1018 326.5 c 128,-1,22
 1010 313 1010 313 991 313 c 2,23,-1
 573 313 l 2,24,25
 548 313 548 313 538 323.5 c 128,-1,26
 528 334 528 334 528 358 c 2,27,-1
 528 1065 l 2,28,29
 528 1090 528 1090 538.5 1101 c 128,-1,30
 549 1112 549 1112 573 1112 c 2,31,-1
 991 1112 l 2,32,0
 1010 1112 1010 1112 1017 1098.5 c 128,-1,1
EndSplineSet
Position2: "Single Positioning lookup 2 subtable" dx=0 dy=0 dh=-1548 dv=0
EndChar

StartChar: L.ss05
Encoding: 65603 -1 129
Width: 1548
Flags: W
LayerCount: 2
Back
Fore
SplineSet
1026 1056 m 128,-1,1
 1108 1004 1108 1004 1108 860 c 0,2,3
 1108 762 1108 762 1061 706.5 c 128,-1,4
 1014 651 1014 651 955.5 631.5 c 128,-1,5
 897 612 897 612 852 612 c 2,6,-1
 731 612 l 1,7,-1
 731 354 l 2,8,9
 731 334 731 334 714.5 325.5 c 128,-1,10
 698 317 698 317 664 317 c 2,11,-1
 625 317 l 2,12,13
 590 317 590 317 573.5 325.5 c 128,-1,14
 557 334 557 334 557 354 c 2,15,-1
 557 1061 l 2,16,17
 557 1108 557 1108 602 1108 c 2,18,-1
 840 1108 l 2,19,0
 944 1108 944 1108 1026 1056 c 128,-1,1
831 762 m 2,20,21
 872 762 872 762 902 783.5 c 128,-1,22
 932 805 932 805 932 860 c 256,23,24
 932 915 932 915 902 938 c 128,-1,25
 872 961 872 961 831 961 c 2,26,-1
 731 961 l 1,27,-1
 731 762 l 1,28,-1
 831 762 l 2,20,21
EndSplineSet
Position2: "Single Positioning lookup 2 subtable" dx=0 dy=0 dh=-1548 dv=0
EndChar

StartChar: M.ss05
Encoding: 65604 -1 130
Width: 1548
Flags: W
LayerCount: 2
Back
Fore
SplineSet
946 522 m 2,1,-1
 852 713 l 1,2,-1
 860 870 l 1,3,-1
 901 811 l 2,4,5
 909 801 909 801 917.5 796 c 128,-1,6
 926 791 926 791 940 786 c 2,7,-1
 1006 768 l 2,8,9
 1018 764 1018 764 1034 764 c 0,10,11
 1046 764 1046 764 1055.5 774 c 128,-1,12
 1065 784 1065 784 1065 801 c 0,13,14
 1065 821 1065 821 1042 827 c 2,15,-1
 954 854 l 1,16,-1
 879 985 l 2,17,18
 863 1014 863 1014 831 1030 c 1,19,-1
 834 1063 l 1,20,21
 854 1073 854 1073 856 1094 c 2,22,-1
 864 1169 l 2,23,24
 864 1185 864 1185 849 1197.5 c 128,-1,25
 834 1210 834 1210 811 1210 c 0,26,27
 791 1210 791 1210 777.5 1199 c 128,-1,28
 764 1188 764 1188 762 1169 c 2,29,-1
 758 1100 l 2,30,31
 758 1088 758 1088 772 1067 c 1,32,33
 772 1049 772 1049 748 1036 c 0,34,35
 719 1026 719 1026 692 989 c 2,36,-1
 610 885 l 2,37,38
 602 873 602 873 598 859.5 c 128,-1,39
 594 846 594 846 592 832.5 c 128,-1,40
 590 819 590 819 588 811 c 2,41,-1
 582 758 l 2,42,43
 576 731 576 731 575 709 c 0,44,45
 575 697 575 697 586.5 689.5 c 128,-1,46
 598 682 598 682 610 682 c 0,47,48
 643 682 643 682 645 717 c 2,49,-1
 657 834 l 1,50,-1
 717 887 l 1,51,-1
 696 705 l 1,52,-1
 645 467 l 1,53,-1
 551 309 l 2,54,55
 539 289 539 289 539 283 c 0,56,57
 539 271 539 271 559 256 c 0,58,59
 582 240 582 240 590 240 c 0,60,61
 602 240 602 240 608 250 c 2,62,-1
 696 385 l 2,63,64
 727 434 727 434 735 459 c 2,65,-1
 786 606 l 1,66,-1
 870 471 l 1,67,-1
 903 250 l 2,68,69
 905 227 905 227 950 227 c 0,70,71
 966 227 966 227 976.5 232.5 c 128,-1,72
 987 238 987 238 987 246 c 0,73,74
 987 262 987 262 976 348 c 128,-1,75
 965 434 965 434 958 479 c 0,76,0
 956 504 956 504 946 522 c 2,1,-1
EndSplineSet
Position2: "Single Positioning lookup 2 subtable" dx=0 dy=0 dh=-1548 dv=0
EndChar

StartChar: N.ss05
Encoding: 65605 -1 131
Width: 1548
Flags: W
LayerCount: 2
Back
Fore
SplineSet
1059 829 m 1,0,-1
 1145 829 l 2,1,2
 1184 829 1184 829 1198 862 c 0,3,4
 1210 891 1210 891 1210 905 c 256,5,6
 1210 919 1210 919 1190 932 c 2,7,-1
 1065 1004 l 1,8,-1
 1065 1063 l 2,9,10
 1065 1071 1065 1071 1055 1071 c 0,11,12
 1049 1071 1049 1071 1042 1065 c 2,13,-1
 860 836 l 1,14,-1
 418 881 l 1,15,16
 418 858 418 858 435.5 831.5 c 128,-1,17
 453 805 453 805 475 797 c 1,18,19
 467 674 467 674 459 551 c 128,-1,20
 451 428 451 428 449 375 c 0,21,22
 449 346 449 346 498 346 c 0,23,24
 549 346 549 346 555 375 c 2,25,-1
 596 629 l 1,26,27
 692 588 692 588 791 588 c 2,28,-1
 893 588 l 1,29,-1
 911 375 l 2,30,31
 913 346 913 346 971 346 c 0,32,33
 1026 346 1026 346 1026 375 c 2,34,-1
 1026 727 l 1,35,-1
 1059 829 l 1,0,-1
EndSplineSet
Position2: "Single Positioning lookup 2 subtable" dx=0 dy=0 dh=-1548 dv=0
EndChar

StartChar: O.ss05
Encoding: 65606 -1 132
Width: 1548
Flags: W
LayerCount: 2
Back
Fore
SplineSet
995 1051 m 2,1,-1
 995 358 l 2,2,3
 995 335 995 335 963 336 c 2,4,-1
 588 336 l 2,5,6
 555 336 555 336 555 358 c 2,7,-1
 555 1051 l 2,8,9
 555 1071 555 1071 592 1071 c 2,10,-1
 840 1071 l 1,11,-1
 848 1096 l 2,12,13
 852 1108 852 1108 872 1108 c 2,14,-1
 883 1108 l 2,15,16
 908 1108 908 1108 909 1096 c 2,17,-1
 915 1071 l 1,18,-1
 958 1071 l 2,19,0
 995 1071 995 1071 995 1051 c 2,1,-1
934 1012 m 1,20,-1
 616 1012 l 1,21,-1
 616 655 l 1,22,-1
 934 655 l 1,23,-1
 934 1012 l 1,20,-1
702 575 m 2,24,25
 702 581 702 581 697 582.5 c 128,-1,26
 692 584 692 584 682 584 c 2,27,-1
 635 584 l 2,28,29
 627 584 627 584 621.5 583 c 128,-1,30
 616 582 616 582 616 575 c 2,31,-1
 616 551 l 2,32,33
 616 543 616 543 635 543 c 2,34,-1
 682 543 l 2,35,36
 702 543 702 543 702 551 c 2,37,-1
 702 575 l 2,24,25
819 575 m 2,38,39
 819 581 819 581 813 582.5 c 128,-1,40
 807 584 807 584 799 584 c 2,41,-1
 752 584 l 2,42,43
 742 584 742 584 736.5 583 c 128,-1,44
 731 582 731 582 731 575 c 2,45,-1
 731 551 l 2,46,47
 731 543 731 543 752 543 c 2,48,-1
 799 543 l 2,49,50
 819 543 819 543 819 551 c 2,51,-1
 819 575 l 2,38,39
934 575 m 2,52,53
 934 581 934 581 929 582.5 c 128,-1,54
 924 584 924 584 913 584 c 2,55,-1
 866 584 l 2,56,57
 858 584 858 584 853 583 c 128,-1,58
 848 582 848 582 848 575 c 2,59,-1
 848 551 l 2,60,61
 848 543 848 543 866 543 c 2,62,-1
 913 543 l 2,63,64
 933 543 933 543 934 551 c 2,65,-1
 934 575 l 2,52,53
702 504 m 2,66,67
 702 510 702 510 697 511 c 128,-1,68
 692 512 692 512 682 512 c 2,69,-1
 635 512 l 2,70,71
 627 512 627 512 621.5 511 c 128,-1,72
 616 510 616 510 616 504 c 2,73,-1
 616 479 l 2,74,75
 616 475 616 475 621.5 474 c 128,-1,76
 627 473 627 473 635 473 c 2,77,-1
 682 473 l 2,78,79
 692 473 692 473 697 474 c 128,-1,80
 702 475 702 475 702 479 c 2,81,-1
 702 504 l 2,66,67
819 504 m 2,82,83
 819 510 819 510 813 511 c 128,-1,84
 807 512 807 512 799 512 c 2,85,-1
 752 512 l 2,86,87
 742 512 742 512 736.5 511 c 128,-1,88
 731 510 731 510 731 504 c 2,89,-1
 731 479 l 2,90,91
 731 475 731 475 736 474 c 128,-1,92
 741 473 741 473 752 473 c 2,93,-1
 799 473 l 2,94,95
 819 473 819 473 819 479 c 2,96,-1
 819 504 l 2,82,83
934 504 m 2,97,98
 934 510 934 510 929 511 c 128,-1,99
 924 512 924 512 913 512 c 2,100,-1
 866 512 l 2,101,102
 858 512 858 512 853 511 c 128,-1,103
 848 510 848 510 848 504 c 2,104,-1
 848 479 l 2,105,106
 848 475 848 475 853 474 c 128,-1,107
 858 473 858 473 866 473 c 2,108,-1
 913 473 l 2,109,110
 923 473 923 473 928.5 474 c 128,-1,111
 934 475 934 475 934 479 c 2,112,-1
 934 504 l 2,97,98
702 432 m 2,113,114
 702 438 702 438 697 439 c 128,-1,115
 692 440 692 440 682 440 c 2,116,-1
 635 440 l 2,117,118
 627 440 627 440 621.5 439 c 128,-1,119
 616 438 616 438 616 432 c 2,120,-1
 616 408 l 2,121,122
 616 404 616 404 621.5 402.5 c 128,-1,123
 627 401 627 401 635 401 c 2,124,-1
 682 401 l 2,125,126
 692 401 692 401 697 402 c 128,-1,127
 702 403 702 403 702 408 c 2,128,-1
 702 432 l 2,113,114
819 432 m 2,129,130
 819 438 819 438 813 439 c 128,-1,131
 807 440 807 440 799 440 c 2,132,-1
 752 440 l 2,133,134
 742 440 742 440 736.5 439 c 128,-1,135
 731 438 731 438 731 432 c 2,136,-1
 731 408 l 2,137,138
 731 404 731 404 736 402.5 c 128,-1,139
 741 401 741 401 752 401 c 2,140,-1
 799 401 l 2,141,142
 819 401 819 401 819 408 c 2,143,-1
 819 432 l 2,129,130
934 432 m 2,144,145
 934 438 934 438 929 439 c 128,-1,146
 924 440 924 440 913 440 c 2,147,-1
 866 440 l 2,148,149
 858 440 858 440 853 439 c 128,-1,150
 848 438 848 438 848 432 c 2,151,-1
 848 408 l 2,152,153
 848 404 848 404 853 402.5 c 128,-1,154
 858 401 858 401 866 401 c 2,155,-1
 913 401 l 2,156,157
 923 401 923 401 928.5 402 c 128,-1,158
 934 403 934 403 934 408 c 2,159,-1
 934 432 l 2,144,145
EndSplineSet
Position2: "Single Positioning lookup 2 subtable" dx=0 dy=0 dh=-1548 dv=0
EndChar

